<?xml version="1.0" standalone="no"?>
<!DOCTYPE svg PUBLIC "-//W3C//DTD SVG 1.1//EN" "http://www.w3.org/Graphics/SVG/1.1/DTD/svg11.dtd" >
<svg xmlns="http://www.w3.org/2000/svg" xmlns:xlink="http://www.w3.org/1999/xlink" version="1.1">
<metadata>
Created by FontForge 20170812 at Thu Jul  2 01:41:17 2020
 By www-data
Copyright (c) 2020 by Jeremy Bowen. All rights reserved.
</metadata>
<defs>
<font id="Executive-Regular" horiz-adv-x="630" >
  <font-face 
    font-family="Executive"
    font-weight="400"
    font-stretch="normal"
    units-per-em="1000"
    panose-1="0 0 5 0 0 0 0 0 0 0"
    ascent="800"
    descent="-200"
    x-height="471"
    cap-height="704"
    bbox="-355 -268 1007 1095"
    underline-thickness="50"
    underline-position="-100"
    unicode-range="U+0020-2260"
  />
<missing-glyph horiz-adv-x="520" 
d="M426 -240h-329v1040h329v-1040zM175 730v-34h67v-38h-68v-35h172v35h-68v38h68v34h-171zM174 596v-108h172v35h-68v73h-104zM242 523h-34v38h34v-38zM174 460v-34h68v-39h-68v-34h104v73h68v34h-172zM312 398v-69h-138v-35h172v104h-34zM242 271v-59h36v24h34v-49h-104
v84h-34v-118h172v118h-104zM174 91v-118h172v118h-172zM312 8h-104v48h104v-48zM174 -51v-34h72l-72 -49v-34h172v34h-106l73 49h33v34h-172z" />
    <glyph glyph-name=".notdef" horiz-adv-x="520" 
d="M426 -240h-329v1040h329v-1040zM175 730v-34h67v-38h-68v-35h172v35h-68v38h68v34h-171zM174 596v-108h172v35h-68v73h-104zM242 523h-34v38h34v-38zM174 460v-34h68v-39h-68v-34h104v73h68v34h-172zM312 398v-69h-138v-35h172v104h-34zM242 271v-59h36v24h34v-49h-104
v84h-34v-118h172v118h-104zM174 91v-118h172v118h-172zM312 8h-104v48h104v-48zM174 -51v-34h72l-72 -49v-34h172v34h-106l73 49h33v34h-172z" />
    <glyph glyph-name="space" unicode=" " horiz-adv-x="420" 
 />
    <glyph glyph-name="A" unicode="A" horiz-adv-x="840" 
d="M37.5 5.5q-13.5 9.5 -13.5 28.5q0 34 49 34l33 -1q11 0 20 5.5t12 13.5l255 590q5 13 13.5 19t22.5 6t22 -6t13 -18l243 -591q8 -20 26 -20q16 0 23 1l24 1q16 0 26 -9t10 -22q0 -15 -11.5 -27t-30.5 -12q-28 0 -55 3q-10 1 -28 2t-32 1q-35 0 -72 -5q-11 -1 -22.5 -2
t-24.5 -1q-26 0 -38 10t-12 26t14 26t35 10q15 0 24 -1l35 -1q18 0 18 17q0 5 -2 11l-49 119q-3 8 -11.5 14t-19.5 6h-232q-18 0 -31 -8t-18 -21l-39 -110q-2 -4 -2 -11q0 -9 10.5 -13.5t35.5 -4.5q17 0 28 -9t11 -22q0 -16 -9.5 -26.5t-24.5 -10.5q-9 0 -20 1t-23 2
q-33 5 -59 5q-20 0 -48 -5q-32 -4 -41 -4q-21 0 -34.5 9.5zM534 301q0 2 -2 10l-102 241q-4 11 -15 11q-6 0 -10 -3.5t-6 -7.5l-99 -245q-1 -2 -1 -5q0 -6 5 -9.5t13 -3.5h202q15 0 15 12z" />
    <glyph glyph-name="Aacute" unicode="&#xc1;" horiz-adv-x="840" 
d="M37.5 5.5q-13.5 9.5 -13.5 28.5q0 34 49 34l33 -1q11 0 20 5.5t12 13.5l255 590q5 13 13.5 19t22.5 6t22 -6t13 -18l243 -591q8 -20 26 -20q16 0 23 1l24 1q16 0 26 -9t10 -22q0 -15 -11.5 -27t-30.5 -12q-28 0 -55 3q-10 1 -28 2t-32 1q-35 0 -72 -5q-11 -1 -22.5 -2
t-24.5 -1q-26 0 -38 10t-12 26t14 26t35 10q15 0 24 -1l35 -1q18 0 18 17q0 5 -2 11l-49 119q-3 8 -11.5 14t-19.5 6h-232q-18 0 -31 -8t-18 -21l-39 -110q-2 -4 -2 -11q0 -9 10.5 -13.5t35.5 -4.5q17 0 28 -9t11 -22q0 -16 -9.5 -26.5t-24.5 -10.5q-9 0 -20 1t-23 2
q-33 5 -59 5q-20 0 -48 -5q-32 -4 -41 -4q-21 0 -34.5 9.5zM534 301q0 2 -2 10l-102 241q-4 11 -15 11q-6 0 -10 -3.5t-6 -7.5l-99 -245q-1 -2 -1 -5q0 -6 5 -9.5t13 -3.5h202q15 0 15 12zM313 808q-11 0 -19.5 6.5t-8.5 17.5q0 8 6 16.5t17 14.5l168 94q8 4 18 4
q11 0 21 -5.5t14 -14.5q4 -10 4 -16q0 -11 -7 -20.5t-20 -15.5l-178 -78q-7 -3 -15 -3z" />
    <glyph glyph-name="Acircumflex" unicode="&#xc2;" horiz-adv-x="840" 
d="M37.5 5.5q-13.5 9.5 -13.5 28.5q0 34 49 34l33 -1q11 0 20 5.5t12 13.5l255 590q5 13 13.5 19t22.5 6t22 -6t13 -18l243 -591q8 -20 26 -20q16 0 23 1l24 1q16 0 26 -9t10 -22q0 -15 -11.5 -27t-30.5 -12q-28 0 -55 3q-10 1 -28 2t-32 1q-35 0 -72 -5q-11 -1 -22.5 -2
t-24.5 -1q-26 0 -38 10t-12 26t14 26t35 10q15 0 24 -1l35 -1q18 0 18 17q0 5 -2 11l-49 119q-3 8 -11.5 14t-19.5 6h-232q-18 0 -31 -8t-18 -21l-39 -110q-2 -4 -2 -11q0 -9 10.5 -13.5t35.5 -4.5q17 0 28 -9t11 -22q0 -16 -9.5 -26.5t-24.5 -10.5q-9 0 -20 1t-23 2
q-33 5 -59 5q-20 0 -48 -5q-32 -4 -41 -4q-21 0 -34.5 9.5zM534 301q0 2 -2 10l-102 241q-4 11 -15 11q-6 0 -10 -3.5t-6 -7.5l-99 -245q-1 -2 -1 -5q0 -6 5 -9.5t13 -3.5h202q15 0 15 12zM292 840q0 11 8 22l88 116q15 18 30 18q16 0 31 -18l92 -116q7 -8 7 -22
q0 -13 -7 -19q-6 -6 -16 -6q-15 0 -25 12l-65 68q-7 8 -16 8q-8 0 -16 -8l-63 -68q-11 -12 -24 -12q-8 0 -16 6q-8 8 -8 19z" />
    <glyph glyph-name="Adieresis" unicode="&#xc4;" horiz-adv-x="840" 
d="M37.5 5.5q-13.5 9.5 -13.5 28.5q0 34 49 34l33 -1q11 0 20 5.5t12 13.5l255 590q5 13 13.5 19t22.5 6t22 -6t13 -18l243 -591q8 -20 26 -20q16 0 23 1l24 1q16 0 26 -9t10 -22q0 -15 -11.5 -27t-30.5 -12q-28 0 -55 3q-10 1 -28 2t-32 1q-35 0 -72 -5q-11 -1 -22.5 -2
t-24.5 -1q-26 0 -38 10t-12 26t14 26t35 10q15 0 24 -1l35 -1q18 0 18 17q0 5 -2 11l-49 119q-3 8 -11.5 14t-19.5 6h-232q-18 0 -31 -8t-18 -21l-39 -110q-2 -4 -2 -11q0 -9 10.5 -13.5t35.5 -4.5q17 0 28 -9t11 -22q0 -16 -9.5 -26.5t-24.5 -10.5q-9 0 -20 1t-23 2
q-33 5 -59 5q-20 0 -48 -5q-32 -4 -41 -4q-21 0 -34.5 9.5zM534 301q0 2 -2 10l-102 241q-4 11 -15 11q-6 0 -10 -3.5t-6 -7.5l-99 -245q-1 -2 -1 -5q0 -6 5 -9.5t13 -3.5h202q15 0 15 12zM290 869q-14 14 -14 34t14 33.5t34 13.5t34 -13.5t14 -33.5t-14 -34t-34 -14t-34 14
zM481.5 869q-14.5 14 -14.5 34q0 19 14.5 33t34.5 14t34 -13.5t14 -33.5t-14 -34t-34 -14t-34.5 14z" />
    <glyph glyph-name="Agrave" unicode="&#xc0;" horiz-adv-x="840" 
d="M37.5 5.5q-13.5 9.5 -13.5 28.5q0 34 49 34l33 -1q11 0 20 5.5t12 13.5l255 590q5 13 13.5 19t22.5 6t22 -6t13 -18l243 -591q8 -20 26 -20q16 0 23 1l24 1q16 0 26 -9t10 -22q0 -15 -11.5 -27t-30.5 -12q-28 0 -55 3q-10 1 -28 2t-32 1q-35 0 -72 -5q-11 -1 -22.5 -2
t-24.5 -1q-26 0 -38 10t-12 26t14 26t35 10q15 0 24 -1l35 -1q18 0 18 17q0 5 -2 11l-49 119q-3 8 -11.5 14t-19.5 6h-232q-18 0 -31 -8t-18 -21l-39 -110q-2 -4 -2 -11q0 -9 10.5 -13.5t35.5 -4.5q17 0 28 -9t11 -22q0 -16 -9.5 -26.5t-24.5 -10.5q-9 0 -20 1t-23 2
q-33 5 -59 5q-20 0 -48 -5q-32 -4 -41 -4q-21 0 -34.5 9.5zM534 301q0 2 -2 10l-102 241q-4 11 -15 11q-6 0 -10 -3.5t-6 -7.5l-99 -245q-1 -2 -1 -5q0 -6 5 -9.5t13 -3.5h202q15 0 15 12zM303 904.5q-7 9.5 -7 20.5q0 16 11.5 26.5t27.5 10.5q8 0 18 -5l168 -94
q11 -6 17 -14.5t6 -16.5q0 -11 -8 -17.5t-20 -6.5q-8 0 -15 3l-178 78q-13 6 -20 15.5z" />
    <glyph glyph-name="Aring" unicode="&#xc5;" horiz-adv-x="840" 
d="M37.5 5.5q-13.5 9.5 -13.5 28.5q0 34 49 34l33 -1q11 0 20 5.5t12 13.5l255 590q5 13 13.5 19t22.5 6t22 -6t13 -18l243 -591q8 -20 26 -20q16 0 23 1l24 1q16 0 26 -9t10 -22q0 -15 -11.5 -27t-30.5 -12q-28 0 -55 3q-10 1 -28 2t-32 1q-35 0 -72 -5q-11 -1 -22.5 -2
t-24.5 -1q-26 0 -38 10t-12 26t14 26t35 10q15 0 24 -1l35 -1q18 0 18 17q0 5 -2 11l-49 119q-3 8 -11.5 14t-19.5 6h-232q-18 0 -31 -8t-18 -21l-39 -110q-2 -4 -2 -11q0 -9 10.5 -13.5t35.5 -4.5q17 0 28 -9t11 -22q0 -16 -9.5 -26.5t-24.5 -10.5q-9 0 -20 1t-23 2
q-33 5 -59 5q-20 0 -48 -5q-32 -4 -41 -4q-21 0 -34.5 9.5zM534 301q0 2 -2 10l-102 241q-4 11 -15 11q-6 0 -10 -3.5t-6 -7.5l-99 -245q-1 -2 -1 -5q0 -6 5 -9.5t13 -3.5h202q15 0 15 12zM349 809.5q-28 27.5 -28 65.5q0 40 28.5 68t72.5 28q43 0 70 -27t27 -66t-27 -67.5
t-74 -28.5q-41 0 -69 27.5zM453.5 840.5q13.5 14.5 13.5 34.5q0 24 -13 39t-35 15q-18 0 -32 -16t-14 -35q0 -24 14 -38t33 -14q20 0 33.5 14.5z" />
    <glyph glyph-name="Atilde" unicode="&#xc3;" horiz-adv-x="840" 
d="M37.5 5.5q-13.5 9.5 -13.5 28.5q0 34 49 34l33 -1q11 0 20 5.5t12 13.5l255 590q5 13 13.5 19t22.5 6t22 -6t13 -18l243 -591q8 -20 26 -20q16 0 23 1l24 1q16 0 26 -9t10 -22q0 -15 -11.5 -27t-30.5 -12q-28 0 -55 3q-10 1 -28 2t-32 1q-35 0 -72 -5q-11 -1 -22.5 -2
t-24.5 -1q-26 0 -38 10t-12 26t14 26t35 10q15 0 24 -1l35 -1q18 0 18 17q0 5 -2 11l-49 119q-3 8 -11.5 14t-19.5 6h-232q-18 0 -31 -8t-18 -21l-39 -110q-2 -4 -2 -11q0 -9 10.5 -13.5t35.5 -4.5q17 0 28 -9t11 -22q0 -16 -9.5 -26.5t-24.5 -10.5q-9 0 -20 1t-23 2
q-33 5 -59 5q-20 0 -48 -5q-32 -4 -41 -4q-21 0 -34.5 9.5zM534 301q0 2 -2 10l-102 241q-4 11 -15 11q-6 0 -10 -3.5t-6 -7.5l-99 -245q-1 -2 -1 -5q0 -6 5 -9.5t13 -3.5h202q15 0 15 12zM416 851q-26 15 -52 15q-24 0 -43 -14q-12 -8 -21 -8q-7 0 -15 5q-10 7 -10 19
q0 10 6 19q10 18 35.5 33t51.5 15q35 0 64 -19q22 -15 45 -15q19 0 32.5 9.5t15.5 11.5q10 5 16 5q9 0 16 -7q6 -6 6 -17q0 -13 -9 -26q-29 -44 -80 -44q-29 0 -58 18z" />
    <glyph glyph-name="AE" unicode="&#xc6;" horiz-adv-x="1050" 
d="M37.5 5.5q-13.5 9.5 -13.5 28.5q0 34 49 34l33 -1q21 0 32 19l332 573q13 23 30 31.5t49 8.5q49 0 194 5q60 3 95 3q25 0 38.5 -2.5t22.5 -12.5q13 -15 36.5 -56t35.5 -67q3 -6 3 -13q0 -12 -8 -21.5t-23 -9.5q-19 0 -32 16l-56 74q-16 20 -43 20l-217 -1q-14 0 -18.5 -7
t-4.5 -30l-1 -190q1 -14 9.5 -19t24.5 -5h86q18 0 31 12.5t21 43.5q9 34 28 34q23 0 23 -44l-2 -25q-2 -24 -2 -41q0 -16 2 -50l2 -30q0 -25 -4.5 -34.5t-15.5 -9.5q-9 0 -18.5 12.5t-21.5 41.5q-7 16 -17.5 26t-23.5 10h-93q-14 0 -21.5 -8.5t-7.5 -21.5l-1 -169
q0 -39 11 -51t41 -12l201 2q35 0 44 19q12 25 22 52l24 53q10 20 18 26t19 6q8 0 15 -7t7 -17q0 -18 -6 -52l-3 -22l-3 -20q-5 -52 -15 -77q-7 -18 -27.5 -24t-58.5 -6q-32 0 -90 2q-56 2 -82 2q-41 0 -105 -2q-22 -1 -51 -1q-15 0 -25.5 10.5t-10.5 28.5v133q0 6 -4.5 10.5
t-11.5 4.5h-185q-16 0 -24.5 -6.5t-17.5 -22.5l-35 -65q-4 -8 -4 -12q0 -17 45 -17q17 0 28 -9t11 -22q0 -16 -9.5 -26.5t-24.5 -10.5q-9 0 -20 1t-23 2q-33 5 -59 5q-20 0 -48 -5q-32 -4 -41 -4q-21 0 -34.5 9.5zM490.5 249q4.5 5 4.5 13v282q0 7 -3 11t-7 4q-6 0 -10 -7
l-164 -290q-2 -4 -2 -6q0 -5 5.5 -8.5t13.5 -3.5h151q7 0 11.5 5z" />
    <glyph glyph-name="B" unicode="B" horiz-adv-x="840" 
d="M64 32q0 16 11 26.5t26 10.5l42 -1q9 -1 22 -1q28 0 28 36v508q0 20 -13 20q-7 0 -16 -2t-19 -2q-19 0 -30.5 11t-11.5 28t11 28t33 11q6 0 26 -2q40 -5 73 -5q23 0 75 2q62 2 110 2q73 0 126.5 -23t81.5 -63t28 -89q0 -39 -17 -70.5t-44 -52.5q-6 -4 -6 -11q0 -8 10 -11
q165 -42 165 -177q0 -58 -32 -104.5t-92 -73.5t-139 -27q-72 0 -150 3l-113 2q-9 0 -87 -3q-31 -3 -58 -3q-40 0 -40 33zM554.5 431q34.5 32 34.5 80q0 58 -46.5 93.5t-116.5 35.5q-73 0 -147 -4q-16 -2 -16 -19l4 -201q1 -10 5.5 -13.5t12.5 -3.5h159q76 0 110.5 32z
M639.5 98q45.5 36 45.5 96q0 37 -22 71.5t-67.5 57t-110.5 22.5h-202q-6 0 -10 -4t-4 -10l5 -237q0 -11 6 -17t16 -7q97 -8 210 -8q88 0 133.5 36z" />
    <glyph glyph-name="C" unicode="C" horiz-adv-x="840" 
d="M268.5 33.5q-84.5 47.5 -132.5 128.5t-48 176q0 107 50.5 191t136 131t184.5 47q97 0 155 -31q13 -7 23 -7t16.5 5.5t9.5 12.5q8 18 27 18q22 0 22 -26q0 -9 -3 -23q-3 -33 -3 -35q0 -21 5 -39q1 -5 2 -11t1 -14q0 -12 -9 -20t-22 -8q-12 0 -22.5 8.5t-25.5 29.5
q-28 39 -67 58t-98 19q-89 0 -155 -39t-101.5 -106.5t-35.5 -150.5q0 -87 34.5 -153.5t98 -103t146.5 -36.5q66 0 107.5 22.5t64.5 70.5q17 36 32.5 56t37.5 20q42 0 42 -45q0 -33 -21 -62.5t-57 -62.5q-32 -28 -82.5 -48t-121.5 -20q-106 0 -190.5 47.5z" />
    <glyph glyph-name="Cacute" unicode="&#x106;" horiz-adv-x="840" 
d="M268.5 33.5q-84.5 47.5 -132.5 128.5t-48 176q0 107 50.5 191t136 131t184.5 47q97 0 155 -31q13 -7 23 -7t16.5 5.5t9.5 12.5q8 18 27 18q22 0 22 -26q0 -9 -3 -23q-3 -33 -3 -35q0 -21 5 -39q1 -5 2 -11t1 -14q0 -12 -9 -20t-22 -8q-12 0 -22.5 8.5t-25.5 29.5
q-28 39 -67 58t-98 19q-89 0 -155 -39t-101.5 -106.5t-35.5 -150.5q0 -87 34.5 -153.5t98 -103t146.5 -36.5q66 0 107.5 22.5t64.5 70.5q17 36 32.5 56t37.5 20q42 0 42 -45q0 -33 -21 -62.5t-57 -62.5q-32 -28 -82.5 -48t-121.5 -20q-106 0 -190.5 47.5zM313 808
q-11 0 -19.5 6.5t-8.5 17.5q0 8 6 16.5t17 14.5l168 94q8 4 18 4q11 0 21 -5.5t14 -14.5q4 -10 4 -16q0 -11 -7 -20.5t-20 -15.5l-178 -78q-7 -3 -15 -3z" />
    <glyph glyph-name="Ccaron" unicode="&#x10c;" horiz-adv-x="840" 
d="M268.5 33.5q-84.5 47.5 -132.5 128.5t-48 176q0 107 50.5 191t136 131t184.5 47q97 0 155 -31q13 -7 23 -7t16.5 5.5t9.5 12.5q8 18 27 18q22 0 22 -26q0 -9 -3 -23q-3 -33 -3 -35q0 -21 5 -39q1 -5 2 -11t1 -14q0 -12 -9 -20t-22 -8q-12 0 -22.5 8.5t-25.5 29.5
q-28 39 -67 58t-98 19q-89 0 -155 -39t-101.5 -106.5t-35.5 -150.5q0 -87 34.5 -153.5t98 -103t146.5 -36.5q66 0 107.5 22.5t64.5 70.5q17 36 32.5 56t37.5 20q42 0 42 -45q0 -33 -21 -62.5t-57 -62.5q-32 -28 -82.5 -48t-121.5 -20q-106 0 -190.5 47.5zM292 970q0 13 7 19
q6 6 16 6q14 0 25 -12l65 -68q7 -8 16 -8q8 0 16 8l63 68q11 12 24 12q9 0 16 -6q8 -8 8 -19t-8 -22l-88 -116q-15 -18 -30 -18q-16 0 -31 18l-92 116q-7 8 -7 22z" />
    <glyph glyph-name="Ccedilla" unicode="&#xc7;" horiz-adv-x="840" 
d="M386.5 -219q-27.5 7 -47.5 18q-17 11 -17 25q0 4 4 12q7 11 22 11q9 0 21 -5q32 -15 63 -15q21 0 36 12.5t15 31.5q0 10 -9 16t-28 6l-27 -1q-9 -1 -23 -1q-43 0 -43 33q0 18 19 43q6 7 6 15q0 12 -17 16q-80 20 -142 69.5t-96.5 120t-34.5 150.5q0 107 50.5 191t136 131
t184.5 47q97 0 155 -31q13 -7 23 -7t16.5 5.5t9.5 12.5q8 18 27 18q22 0 22 -26q0 -9 -3 -23q-3 -33 -3 -35q0 -21 5 -39q1 -5 2 -11t1 -14q0 -12 -9 -20t-22 -8q-12 0 -22.5 8.5t-25.5 29.5q-28 39 -67 58t-98 19q-89 0 -155 -39t-101.5 -106.5t-35.5 -150.5
q0 -87 34.5 -153.5t98 -103t146.5 -36.5q66 0 107.5 22.5t64.5 70.5q17 36 32.5 56t37.5 20q42 0 42 -45q0 -33 -21 -62.5t-57 -62.5q-32 -28 -81.5 -48t-114.5 -20q-14 0 -20 -8t-10 -19q-1 -2 -1 -5q0 -10 22 -10q51 0 74.5 -19t23.5 -49q0 -44 -34 -73t-80 -29
q-28 0 -55.5 7z" />
    <glyph glyph-name="Cdotaccent" unicode="&#x10a;" horiz-adv-x="840" 
d="M268.5 33.5q-84.5 47.5 -132.5 128.5t-48 176q0 107 50.5 191t136 131t184.5 47q97 0 155 -31q13 -7 23 -7t16.5 5.5t9.5 12.5q8 18 27 18q22 0 22 -26q0 -9 -3 -23q-3 -33 -3 -35q0 -21 5 -39q1 -5 2 -11t1 -14q0 -12 -9 -20t-22 -8q-12 0 -22.5 8.5t-25.5 29.5
q-28 39 -67 58t-98 19q-89 0 -155 -39t-101.5 -106.5t-35.5 -150.5q0 -87 34.5 -153.5t98 -103t146.5 -36.5q66 0 107.5 22.5t64.5 70.5q17 36 32.5 56t37.5 20q42 0 42 -45q0 -33 -21 -62.5t-57 -62.5q-32 -28 -82.5 -48t-121.5 -20q-106 0 -190.5 47.5zM386 869
q-14 14 -14 34t14 33.5t34 13.5t34 -13.5t14 -33.5t-14 -34t-34 -14t-34 14z" />
    <glyph glyph-name="D" unicode="D" horiz-adv-x="840" 
d="M69.5 7.5q-11.5 10.5 -11.5 27.5q0 18 12 27t28 9l52 -2l28 -1q28 0 28 37v506q0 11 -2.5 15.5t-9.5 4.5t-16 -2t-19 -2q-19 0 -30.5 11t-11.5 28t11 28t33 11q6 0 26 -2q32 -4 73 -4q40 0 83 3q16 0 47.5 1.5t56.5 1.5q160 0 246 -78.5t86 -254.5q0 -107 -45.5 -191.5
t-126.5 -132t-186 -47.5l-74 1q-26 1 -75 1q-32 0 -57 -1t-42 -2q-42 -3 -72 -3q-20 0 -31.5 10.5zM561.5 103q61.5 38 94.5 104.5t33 149.5q0 138 -66.5 210.5t-178.5 72.5h-145q-22 0 -22 -20l9 -527q0 -23 24 -25q53 -3 109 -3q81 0 142.5 38z" />
    <glyph glyph-name="Dcaron" unicode="&#x10e;" horiz-adv-x="840" 
d="M69.5 7.5q-11.5 10.5 -11.5 27.5q0 18 12 27t28 9l52 -2l28 -1q28 0 28 37v506q0 11 -2.5 15.5t-9.5 4.5t-16 -2t-19 -2q-19 0 -30.5 11t-11.5 28t11 28t33 11q6 0 26 -2q32 -4 73 -4q40 0 83 3q16 0 47.5 1.5t56.5 1.5q160 0 246 -78.5t86 -254.5q0 -107 -45.5 -191.5
t-126.5 -132t-186 -47.5l-74 1q-26 1 -75 1q-32 0 -57 -1t-42 -2q-42 -3 -72 -3q-20 0 -31.5 10.5zM561.5 103q61.5 38 94.5 104.5t33 149.5q0 138 -66.5 210.5t-178.5 72.5h-145q-22 0 -22 -20l9 -527q0 -23 24 -25q53 -3 109 -3q81 0 142.5 38zM292 970q0 13 7 19
q6 6 16 6q14 0 25 -12l65 -68q7 -8 16 -8q8 0 16 8l63 68q11 12 24 12q9 0 16 -6q8 -8 8 -19t-8 -22l-88 -116q-15 -18 -30 -18q-16 0 -31 18l-92 116q-7 8 -7 22z" />
    <glyph glyph-name="E" unicode="E" horiz-adv-x="840" 
d="M473 4q-47 1 -89 2t-71 1q-45 0 -149 -4l-75 -2q-16 0 -25.5 9t-9.5 25q0 14 9.5 24t26.5 10l39 -1q8 -1 24 -1q18 0 26.5 9.5t10.5 29t2 61.5v444q0 11 -2.5 15.5t-9.5 4.5t-16 -2t-19 -2q-19 0 -30.5 11t-11.5 28t11 28t33 11q11 0 26 -3q32 -6 73 -6q56 0 254 7
q116 4 128 4q25 0 38.5 -2.5t22.5 -12.5q13 -15 36.5 -56t35.5 -67q3 -6 3 -13q0 -12 -8 -21.5t-23 -9.5q-19 0 -32 16q-42 56 -57 74q-17 20 -43 20l-309 -1q-14 0 -18.5 -5.5t-4.5 -22.5l-1 -199q0 -14 7 -19t22 -5h104q18 0 31 12.5t21 43.5q9 34 28 34q23 0 23 -44
l-2 -25q-2 -24 -2 -41q0 -16 2 -50l2 -30q0 -25 -4.5 -34.5t-15.5 -9.5q-9 0 -18.5 12.5t-21.5 41.5q-7 16 -17.5 26t-23.5 10h-106q-29 0 -29 -30l-1 -187q0 -25 9 -35t32 -10l302 2q34 0 44 19q21 40 39 82l10 23q9 21 16.5 26.5t19.5 5.5q8 0 15.5 -7t7.5 -17
q0 -18 -6 -52l-3 -22l-3 -20q-5 -52 -15 -77q-7 -18 -27.5 -24t-58.5 -6q-34 0 -176 4z" />
    <glyph glyph-name="Eacute" unicode="&#xc9;" horiz-adv-x="840" 
d="M473 4q-47 1 -89 2t-71 1q-45 0 -149 -4l-75 -2q-16 0 -25.5 9t-9.5 25q0 14 9.5 24t26.5 10l39 -1q8 -1 24 -1q18 0 26.5 9.5t10.5 29t2 61.5v444q0 11 -2.5 15.5t-9.5 4.5t-16 -2t-19 -2q-19 0 -30.5 11t-11.5 28t11 28t33 11q11 0 26 -3q32 -6 73 -6q56 0 254 7
q116 4 128 4q25 0 38.5 -2.5t22.5 -12.5q13 -15 36.5 -56t35.5 -67q3 -6 3 -13q0 -12 -8 -21.5t-23 -9.5q-19 0 -32 16q-42 56 -57 74q-17 20 -43 20l-309 -1q-14 0 -18.5 -5.5t-4.5 -22.5l-1 -199q0 -14 7 -19t22 -5h104q18 0 31 12.5t21 43.5q9 34 28 34q23 0 23 -44
l-2 -25q-2 -24 -2 -41q0 -16 2 -50l2 -30q0 -25 -4.5 -34.5t-15.5 -9.5q-9 0 -18.5 12.5t-21.5 41.5q-7 16 -17.5 26t-23.5 10h-106q-29 0 -29 -30l-1 -187q0 -25 9 -35t32 -10l302 2q34 0 44 19q21 40 39 82l10 23q9 21 16.5 26.5t19.5 5.5q8 0 15.5 -7t7.5 -17
q0 -18 -6 -52l-3 -22l-3 -20q-5 -52 -15 -77q-7 -18 -27.5 -24t-58.5 -6q-34 0 -176 4zM313 808q-11 0 -19.5 6.5t-8.5 17.5q0 8 6 16.5t17 14.5l168 94q8 4 18 4q11 0 21 -5.5t14 -14.5q4 -10 4 -16q0 -11 -7 -20.5t-20 -15.5l-178 -78q-7 -3 -15 -3z" />
    <glyph glyph-name="Ecaron" unicode="&#x11a;" horiz-adv-x="840" 
d="M473 4q-47 1 -89 2t-71 1q-45 0 -149 -4l-75 -2q-16 0 -25.5 9t-9.5 25q0 14 9.5 24t26.5 10l39 -1q8 -1 24 -1q18 0 26.5 9.5t10.5 29t2 61.5v444q0 11 -2.5 15.5t-9.5 4.5t-16 -2t-19 -2q-19 0 -30.5 11t-11.5 28t11 28t33 11q11 0 26 -3q32 -6 73 -6q56 0 254 7
q116 4 128 4q25 0 38.5 -2.5t22.5 -12.5q13 -15 36.5 -56t35.5 -67q3 -6 3 -13q0 -12 -8 -21.5t-23 -9.5q-19 0 -32 16q-42 56 -57 74q-17 20 -43 20l-309 -1q-14 0 -18.5 -5.5t-4.5 -22.5l-1 -199q0 -14 7 -19t22 -5h104q18 0 31 12.5t21 43.5q9 34 28 34q23 0 23 -44
l-2 -25q-2 -24 -2 -41q0 -16 2 -50l2 -30q0 -25 -4.5 -34.5t-15.5 -9.5q-9 0 -18.5 12.5t-21.5 41.5q-7 16 -17.5 26t-23.5 10h-106q-29 0 -29 -30l-1 -187q0 -25 9 -35t32 -10l302 2q34 0 44 19q21 40 39 82l10 23q9 21 16.5 26.5t19.5 5.5q8 0 15.5 -7t7.5 -17
q0 -18 -6 -52l-3 -22l-3 -20q-5 -52 -15 -77q-7 -18 -27.5 -24t-58.5 -6q-34 0 -176 4zM292 970q0 13 7 19q6 6 16 6q14 0 25 -12l65 -68q7 -8 16 -8q8 0 16 8l63 68q11 12 24 12q9 0 16 -6q8 -8 8 -19t-8 -22l-88 -116q-15 -18 -30 -18q-16 0 -31 18l-92 116q-7 8 -7 22z
" />
    <glyph glyph-name="Ecircumflex" unicode="&#xca;" horiz-adv-x="840" 
d="M473 4q-47 1 -89 2t-71 1q-45 0 -149 -4l-75 -2q-16 0 -25.5 9t-9.5 25q0 14 9.5 24t26.5 10l39 -1q8 -1 24 -1q18 0 26.5 9.5t10.5 29t2 61.5v444q0 11 -2.5 15.5t-9.5 4.5t-16 -2t-19 -2q-19 0 -30.5 11t-11.5 28t11 28t33 11q11 0 26 -3q32 -6 73 -6q56 0 254 7
q116 4 128 4q25 0 38.5 -2.5t22.5 -12.5q13 -15 36.5 -56t35.5 -67q3 -6 3 -13q0 -12 -8 -21.5t-23 -9.5q-19 0 -32 16q-42 56 -57 74q-17 20 -43 20l-309 -1q-14 0 -18.5 -5.5t-4.5 -22.5l-1 -199q0 -14 7 -19t22 -5h104q18 0 31 12.5t21 43.5q9 34 28 34q23 0 23 -44
l-2 -25q-2 -24 -2 -41q0 -16 2 -50l2 -30q0 -25 -4.5 -34.5t-15.5 -9.5q-9 0 -18.5 12.5t-21.5 41.5q-7 16 -17.5 26t-23.5 10h-106q-29 0 -29 -30l-1 -187q0 -25 9 -35t32 -10l302 2q34 0 44 19q21 40 39 82l10 23q9 21 16.5 26.5t19.5 5.5q8 0 15.5 -7t7.5 -17
q0 -18 -6 -52l-3 -22l-3 -20q-5 -52 -15 -77q-7 -18 -27.5 -24t-58.5 -6q-34 0 -176 4zM292 840q0 11 8 22l88 116q15 18 30 18q16 0 31 -18l92 -116q7 -8 7 -22q0 -13 -7 -19q-6 -6 -16 -6q-15 0 -25 12l-65 68q-7 8 -16 8q-8 0 -16 -8l-63 -68q-11 -12 -24 -12q-8 0 -16 6
q-8 8 -8 19z" />
    <glyph glyph-name="Edieresis" unicode="&#xcb;" horiz-adv-x="840" 
d="M473 4q-47 1 -89 2t-71 1q-45 0 -149 -4l-75 -2q-16 0 -25.5 9t-9.5 25q0 14 9.5 24t26.5 10l39 -1q8 -1 24 -1q18 0 26.5 9.5t10.5 29t2 61.5v444q0 11 -2.5 15.5t-9.5 4.5t-16 -2t-19 -2q-19 0 -30.5 11t-11.5 28t11 28t33 11q11 0 26 -3q32 -6 73 -6q56 0 254 7
q116 4 128 4q25 0 38.5 -2.5t22.5 -12.5q13 -15 36.5 -56t35.5 -67q3 -6 3 -13q0 -12 -8 -21.5t-23 -9.5q-19 0 -32 16q-42 56 -57 74q-17 20 -43 20l-309 -1q-14 0 -18.5 -5.5t-4.5 -22.5l-1 -199q0 -14 7 -19t22 -5h104q18 0 31 12.5t21 43.5q9 34 28 34q23 0 23 -44
l-2 -25q-2 -24 -2 -41q0 -16 2 -50l2 -30q0 -25 -4.5 -34.5t-15.5 -9.5q-9 0 -18.5 12.5t-21.5 41.5q-7 16 -17.5 26t-23.5 10h-106q-29 0 -29 -30l-1 -187q0 -25 9 -35t32 -10l302 2q34 0 44 19q21 40 39 82l10 23q9 21 16.5 26.5t19.5 5.5q8 0 15.5 -7t7.5 -17
q0 -18 -6 -52l-3 -22l-3 -20q-5 -52 -15 -77q-7 -18 -27.5 -24t-58.5 -6q-34 0 -176 4zM290 869q-14 14 -14 34t14 33.5t34 13.5t34 -13.5t14 -33.5t-14 -34t-34 -14t-34 14zM481.5 869q-14.5 14 -14.5 34q0 19 14.5 33t34.5 14t34 -13.5t14 -33.5t-14 -34t-34 -14t-34.5 14
z" />
    <glyph glyph-name="Edotaccent" unicode="&#x116;" horiz-adv-x="840" 
d="M473 4q-47 1 -89 2t-71 1q-45 0 -149 -4l-75 -2q-16 0 -25.5 9t-9.5 25q0 14 9.5 24t26.5 10l39 -1q8 -1 24 -1q18 0 26.5 9.5t10.5 29t2 61.5v444q0 11 -2.5 15.5t-9.5 4.5t-16 -2t-19 -2q-19 0 -30.5 11t-11.5 28t11 28t33 11q11 0 26 -3q32 -6 73 -6q56 0 254 7
q116 4 128 4q25 0 38.5 -2.5t22.5 -12.5q13 -15 36.5 -56t35.5 -67q3 -6 3 -13q0 -12 -8 -21.5t-23 -9.5q-19 0 -32 16q-42 56 -57 74q-17 20 -43 20l-309 -1q-14 0 -18.5 -5.5t-4.5 -22.5l-1 -199q0 -14 7 -19t22 -5h104q18 0 31 12.5t21 43.5q9 34 28 34q23 0 23 -44
l-2 -25q-2 -24 -2 -41q0 -16 2 -50l2 -30q0 -25 -4.5 -34.5t-15.5 -9.5q-9 0 -18.5 12.5t-21.5 41.5q-7 16 -17.5 26t-23.5 10h-106q-29 0 -29 -30l-1 -187q0 -25 9 -35t32 -10l302 2q34 0 44 19q21 40 39 82l10 23q9 21 16.5 26.5t19.5 5.5q8 0 15.5 -7t7.5 -17
q0 -18 -6 -52l-3 -22l-3 -20q-5 -52 -15 -77q-7 -18 -27.5 -24t-58.5 -6q-34 0 -176 4zM386 869q-14 14 -14 34t14 33.5t34 13.5t34 -13.5t14 -33.5t-14 -34t-34 -14t-34 14z" />
    <glyph glyph-name="Egrave" unicode="&#xc8;" horiz-adv-x="840" 
d="M473 4q-47 1 -89 2t-71 1q-45 0 -149 -4l-75 -2q-16 0 -25.5 9t-9.5 25q0 14 9.5 24t26.5 10l39 -1q8 -1 24 -1q18 0 26.5 9.5t10.5 29t2 61.5v444q0 11 -2.5 15.5t-9.5 4.5t-16 -2t-19 -2q-19 0 -30.5 11t-11.5 28t11 28t33 11q11 0 26 -3q32 -6 73 -6q56 0 254 7
q116 4 128 4q25 0 38.5 -2.5t22.5 -12.5q13 -15 36.5 -56t35.5 -67q3 -6 3 -13q0 -12 -8 -21.5t-23 -9.5q-19 0 -32 16q-42 56 -57 74q-17 20 -43 20l-309 -1q-14 0 -18.5 -5.5t-4.5 -22.5l-1 -199q0 -14 7 -19t22 -5h104q18 0 31 12.5t21 43.5q9 34 28 34q23 0 23 -44
l-2 -25q-2 -24 -2 -41q0 -16 2 -50l2 -30q0 -25 -4.5 -34.5t-15.5 -9.5q-9 0 -18.5 12.5t-21.5 41.5q-7 16 -17.5 26t-23.5 10h-106q-29 0 -29 -30l-1 -187q0 -25 9 -35t32 -10l302 2q34 0 44 19q21 40 39 82l10 23q9 21 16.5 26.5t19.5 5.5q8 0 15.5 -7t7.5 -17
q0 -18 -6 -52l-3 -22l-3 -20q-5 -52 -15 -77q-7 -18 -27.5 -24t-58.5 -6q-34 0 -176 4zM303 904.5q-7 9.5 -7 20.5q0 16 11.5 26.5t27.5 10.5q8 0 18 -5l168 -94q11 -6 17 -14.5t6 -16.5q0 -11 -8 -17.5t-20 -6.5q-8 0 -15 3l-178 78q-13 6 -20 15.5z" />
    <glyph glyph-name="F" unicode="F" horiz-adv-x="840" 
d="M66 10q-11 9 -11 24t11.5 24.5t29.5 9.5l35 -1q13 -1 34 -1q23 0 34 15t11 49v481q0 11 -2.5 15.5t-9.5 4.5t-16 -2t-19 -2q-19 0 -30.5 11t-11.5 28t11 28t33 11q11 0 26 -3q32 -6 73 -6q37 0 227 5q124 4 150 4q7 0 23.5 0.5t26.5 -2t16 -9.5q18 -21 56 -105l9 -20
q3 -6 3 -13q0 -12 -8 -21.5t-23 -9.5q-19 0 -32 16q-2 3 -21.5 29t-36.5 47q-16 20 -43 20l-301 -1q-14 0 -18.5 -5t-4.5 -21l-1 -203q0 -14 9.5 -21.5t24.5 -7.5h95q17 0 28 14t20 47q9 34 28 34q23 0 23 -44l-2 -25q-2 -24 -2 -41t2 -53l2 -33q0 -25 -4.5 -34.5
t-15.5 -9.5q-9 0 -18.5 12.5t-21.5 41.5q-7 16 -17.5 26t-23.5 10h-98q-29 0 -29 -31l-1 -187q0 -40 42 -40q18 0 46 2q30 2 48 2q17 0 28 -9.5t11 -24.5q0 -34 -41 -34q-19 0 -45 1t-40 2q-40 3 -83 3q-45 0 -111 -4l-44 -2q-19 0 -30 9z" />
    <glyph glyph-name="G" unicode="G" horiz-adv-x="840" 
d="M242 40q-86 45 -135.5 124.5t-49.5 178.5q0 112 50.5 195.5t136.5 128t188 44.5q68 0 117.5 -14.5t78.5 -34.5q8 -5 12 -5q9 0 12 11q12 31 35 31q12 0 20 -7.5t8 -18.5q0 -9 -3 -23q-3 -33 -3 -35q0 -21 5 -43q1 -6 2 -13.5t1 -14.5q0 -13 -7 -20.5t-20 -7.5
q-12 0 -20.5 11t-22.5 39q-22 43 -79 62.5t-125 19.5q-88 0 -155.5 -39t-104 -106.5t-36.5 -149.5t39 -148t104 -103.5t140 -37.5q127 0 191 55q26 22 26 64v71q0 16 -12 25t-34 14q-41 8 -41 33q0 12 9.5 19t22.5 7q7 0 15 -1l16 -2q25 -5 45 -5t47 5q9 1 17.5 2t16.5 1
q14 0 21 -7t7 -17q0 -16 -31 -31q-14 -7 -19.5 -16t-5.5 -26v-100q0 -40 3 -72l1 -36q0 -23 -6.5 -33t-21.5 -10q-27 0 -32 25q-4 20 -5 29q-2 11 -12 11q-7 0 -12 -5q-78 -69 -204 -69q-104 0 -190 45z" />
    <glyph glyph-name="Gdotaccent" unicode="&#x120;" horiz-adv-x="840" 
d="M242 40q-86 45 -135.5 124.5t-49.5 178.5q0 112 50.5 195.5t136.5 128t188 44.5q68 0 117.5 -14.5t78.5 -34.5q8 -5 12 -5q9 0 12 11q12 31 35 31q12 0 20 -7.5t8 -18.5q0 -9 -3 -23q-3 -33 -3 -35q0 -21 5 -43q1 -6 2 -13.5t1 -14.5q0 -13 -7 -20.5t-20 -7.5
q-12 0 -20.5 11t-22.5 39q-22 43 -79 62.5t-125 19.5q-88 0 -155.5 -39t-104 -106.5t-36.5 -149.5t39 -148t104 -103.5t140 -37.5q127 0 191 55q26 22 26 64v71q0 16 -12 25t-34 14q-41 8 -41 33q0 12 9.5 19t22.5 7q7 0 15 -1l16 -2q25 -5 45 -5t47 5q9 1 17.5 2t16.5 1
q14 0 21 -7t7 -17q0 -16 -31 -31q-14 -7 -19.5 -16t-5.5 -26v-100q0 -40 3 -72l1 -36q0 -23 -6.5 -33t-21.5 -10q-27 0 -32 25q-4 20 -5 29q-2 11 -12 11q-7 0 -12 -5q-78 -69 -204 -69q-104 0 -190 45zM386 869q-14 14 -14 34t14 33.5t34 13.5t34 -13.5t14 -33.5t-14 -34
t-34 -14t-34 14z" />
    <glyph glyph-name="H" unicode="H" horiz-adv-x="840" 
d="M733 -1q-54 3 -67 3q-40 0 -82 -2q-28 -2 -40 -2q-24 0 -35.5 10t-11.5 25q0 14 12 24.5t31 10.5l49 -1q28 0 28 32l3 211q0 14 -6 21t-15 7h-363q-8 0 -13 -6t-5 -16l1 -213q0 -37 30 -37l48 1q24 0 35 -9t11 -24q0 -16 -11.5 -26t-36.5 -10q-7 0 -33 2q-54 3 -67 3
q-19 0 -82 -3q-28 -2 -40 -2q-24 0 -35.5 9.5t-11.5 26.5q0 14 13 24t30 10l42 -1q16 0 22.5 9t6.5 26l4 482q0 27 -11.5 37.5t-39.5 11.5q-21 1 -35 10t-14 23q0 15 12 25t37 10q14 0 42 -2q34 -2 60 -2q27 0 55 2q24 2 37 2q21 0 32.5 -10t11.5 -24t-11 -23t-27 -9
q-39 0 -54 -6q-12 -5 -16.5 -14t-5.5 -24l1 -171q0 -29 20 -29h364q9 0 14.5 6t5.5 14l3 186q0 20 -14 29q-11 7 -52 7q-17 0 -30.5 8.5t-13.5 25.5q0 16 12 26t37 10q14 0 42 -2q34 -2 60 -2q27 0 55 2l37 1q21 0 31 -10t10 -25q0 -14 -11.5 -24t-27.5 -10q-23 0 -36 -1
q-14 -1 -22 -11t-8 -28l3 -498q0 -29 33 -29l38 1q21 0 33.5 -9.5t12.5 -22.5q0 -16 -12.5 -27t-35.5 -11q-7 0 -33 2z" />
    <glyph glyph-name="I" unicode="I" horiz-adv-x="420" 
d="M276 1q-32 4 -63 4q-33 0 -65 -4q-24 -2 -35 -2q-47 0 -47 35q0 14 11.5 24t29.5 10l31 -1q13 0 20 7.5t7 19.5l2 497q0 25 -14 35q-7 5 -13 6t-25 1q-16 0 -30 9t-14 26q0 15 11 25.5t32 10.5t39 -3q45 -3 56 -3q26 0 62 2q28 2 42 2q20 0 29.5 -9.5t9.5 -24.5
q0 -16 -9.5 -25t-25.5 -9q-4 0 -26 0.5t-36 -7.5q-17 -10 -17 -31l8 -501q0 -29 35 -29q7 0 13.5 0.5t17.5 0.5q19 0 30.5 -8.5t11.5 -23.5q0 -16 -12 -26.5t-34 -10.5q-14 0 -32 3z" />
    <glyph glyph-name="Iacute" unicode="&#xcd;" horiz-adv-x="420" 
d="M276 1q-32 4 -63 4q-33 0 -65 -4q-24 -2 -35 -2q-47 0 -47 35q0 14 11.5 24t29.5 10l31 -1q13 0 20 7.5t7 19.5l2 497q0 25 -14 35q-7 5 -13 6t-25 1q-16 0 -30 9t-14 26q0 15 11 25.5t32 10.5t39 -3q45 -3 56 -3q26 0 62 2q28 2 42 2q20 0 29.5 -9.5t9.5 -24.5
q0 -16 -9.5 -25t-25.5 -9q-4 0 -26 0.5t-36 -7.5q-17 -10 -17 -31l8 -501q0 -29 35 -29q7 0 13.5 0.5t17.5 0.5q19 0 30.5 -8.5t11.5 -23.5q0 -16 -12 -26.5t-34 -10.5q-14 0 -32 3zM103 808q-11 0 -19.5 6.5t-8.5 17.5q0 8 6 16.5t17 14.5l168 94q8 4 18 4q11 0 21 -5.5
t14 -14.5q4 -10 4 -16q0 -11 -7 -20.5t-20 -15.5l-178 -78q-7 -3 -15 -3z" />
    <glyph glyph-name="Icircumflex" unicode="&#xce;" horiz-adv-x="420" 
d="M276 1q-32 4 -63 4q-33 0 -65 -4q-24 -2 -35 -2q-47 0 -47 35q0 14 11.5 24t29.5 10l31 -1q13 0 20 7.5t7 19.5l2 497q0 25 -14 35q-7 5 -13 6t-25 1q-16 0 -30 9t-14 26q0 15 11 25.5t32 10.5t39 -3q45 -3 56 -3q26 0 62 2q28 2 42 2q20 0 29.5 -9.5t9.5 -24.5
q0 -16 -9.5 -25t-25.5 -9q-4 0 -26 0.5t-36 -7.5q-17 -10 -17 -31l8 -501q0 -29 35 -29q7 0 13.5 0.5t17.5 0.5q19 0 30.5 -8.5t11.5 -23.5q0 -16 -12 -26.5t-34 -10.5q-14 0 -32 3zM82 840q0 11 8 22l88 116q15 18 30 18q16 0 31 -18l92 -116q7 -8 7 -22q0 -13 -7 -19
q-6 -6 -16 -6q-15 0 -25 12l-65 68q-7 8 -16 8q-8 0 -16 -8l-63 -68q-11 -12 -24 -12q-8 0 -16 6q-8 8 -8 19z" />
    <glyph glyph-name="Idieresis" unicode="&#xcf;" horiz-adv-x="420" 
d="M276 1q-32 4 -63 4q-33 0 -65 -4q-24 -2 -35 -2q-47 0 -47 35q0 14 11.5 24t29.5 10l31 -1q13 0 20 7.5t7 19.5l2 497q0 25 -14 35q-7 5 -13 6t-25 1q-16 0 -30 9t-14 26q0 15 11 25.5t32 10.5t39 -3q45 -3 56 -3q26 0 62 2q28 2 42 2q20 0 29.5 -9.5t9.5 -24.5
q0 -16 -9.5 -25t-25.5 -9q-4 0 -26 0.5t-36 -7.5q-17 -10 -17 -31l8 -501q0 -29 35 -29q7 0 13.5 0.5t17.5 0.5q19 0 30.5 -8.5t11.5 -23.5q0 -16 -12 -26.5t-34 -10.5q-14 0 -32 3zM80 869q-14 14 -14 34t14 33.5t34 13.5t34 -13.5t14 -33.5t-14 -34t-34 -14t-34 14z
M271.5 869q-14.5 14 -14.5 34q0 19 14.5 33t34.5 14t34 -13.5t14 -33.5t-14 -34t-34 -14t-34.5 14z" />
    <glyph glyph-name="Idotaccent" unicode="&#x130;" horiz-adv-x="420" 
d="M276 1q-32 4 -63 4q-33 0 -65 -4q-24 -2 -35 -2q-47 0 -47 35q0 14 11.5 24t29.5 10l31 -1q13 0 20 7.5t7 19.5l2 497q0 25 -14 35q-7 5 -13 6t-25 1q-16 0 -30 9t-14 26q0 15 11 25.5t32 10.5t39 -3q45 -3 56 -3q26 0 62 2q28 2 42 2q20 0 29.5 -9.5t9.5 -24.5
q0 -16 -9.5 -25t-25.5 -9q-4 0 -26 0.5t-36 -7.5q-17 -10 -17 -31l8 -501q0 -29 35 -29q7 0 13.5 0.5t17.5 0.5q19 0 30.5 -8.5t11.5 -23.5q0 -16 -12 -26.5t-34 -10.5q-14 0 -32 3zM176 869q-14 14 -14 34t14 33.5t34 13.5t34 -13.5t14 -33.5t-14 -34t-34 -14t-34 14z" />
    <glyph glyph-name="Igrave" unicode="&#xcc;" horiz-adv-x="420" 
d="M276 1q-32 4 -63 4q-33 0 -65 -4q-24 -2 -35 -2q-47 0 -47 35q0 14 11.5 24t29.5 10l31 -1q13 0 20 7.5t7 19.5l2 497q0 25 -14 35q-7 5 -13 6t-25 1q-16 0 -30 9t-14 26q0 15 11 25.5t32 10.5t39 -3q45 -3 56 -3q26 0 62 2q28 2 42 2q20 0 29.5 -9.5t9.5 -24.5
q0 -16 -9.5 -25t-25.5 -9q-4 0 -26 0.5t-36 -7.5q-17 -10 -17 -31l8 -501q0 -29 35 -29q7 0 13.5 0.5t17.5 0.5q19 0 30.5 -8.5t11.5 -23.5q0 -16 -12 -26.5t-34 -10.5q-14 0 -32 3zM93 904.5q-7 9.5 -7 20.5q0 16 11.5 26.5t27.5 10.5q8 0 18 -5l168 -94q11 -6 17 -14.5
t6 -16.5q0 -11 -8 -17.5t-20 -6.5q-8 0 -15 3l-178 78q-13 6 -20 15.5z" />
    <glyph glyph-name="J" unicode="J" 
d="M145 12.5q-44 23.5 -66.5 61.5t-22.5 81q0 26 12 41t33 15t30.5 -13t14.5 -41q9 -55 34 -79.5t66 -24.5q55 0 81.5 36t26.5 110l2 417q0 7 -4.5 11.5t-11.5 4.5q-18 0 -52 -2l-54 -1q-23 0 -38.5 10.5t-15.5 27.5q0 19 14 28t37 9q21 0 42 -1.5t31 -1.5q46 -4 85 -4
q50 0 92 5q10 1 29 2t34 1q25 0 38.5 -10t13.5 -27q0 -16 -15.5 -27t-45.5 -11q-21 0 -34 1l-55 1q-7 0 -11.5 -5t-4.5 -13l1 -424q0 -201 -182 -201q-60 0 -104 23.5z" />
    <glyph glyph-name="K" unicode="K" horiz-adv-x="840" 
d="M719 -1q-25 5 -54 5t-74 -5q-19 -3 -37 -3q-24 0 -35.5 10t-11.5 24q0 15 11.5 26t31.5 11l25 -1q7 -1 21 -1q29 0 29 14q0 6 -6 12l-248 276q-5 5 -11 5q-3 0 -8 -3q-57 -41 -118 -82q-12 -8 -17 -19t-4 -30l3 -143q2 -29 34 -29t46 0.5t21 0.5q21 0 33.5 -10.5
t12.5 -24.5t-12.5 -25t-35.5 -11q-22 0 -64 4q-44 4 -70 4q-38 0 -74 -4q-21 -3 -38 -3q-24 0 -35.5 10.5t-11.5 24.5t12 24.5t31 10.5q15 0 25 -1t18 -1q13 0 20 7t7 19v494q0 18 -2.5 27t-10.5 15q-6 4 -20.5 5t-30.5 1t-30 8.5t-14 24.5t12 26t37 10q14 0 42 -2
q34 -2 60 -2t68 2q34 2 47 2q21 0 31 -9t10 -24t-11 -24.5t-27 -9.5q-55 0 -74 -10q-16 -8 -16 -29l4 -224q0 -13 6 -19.5t14 -6.5q5 0 13 4q41 28 98 77q107 93 193 172q9 9 9 17q0 10 -12 13q-42 9 -42 36q0 16 11 26t33 10q15 0 35 -2q22 -2 44 -2q35 0 64 3q30 2 44 2
q21 0 31.5 -10t10.5 -25q0 -14 -10 -24.5t-26 -10.5q-47 0 -71 -10q-14 -6 -33 -22q-96 -82 -196 -172q-4 -4 -4 -10t5 -11l300 -321q18 -19 46 -19q22 0 33 -10.5t11 -24.5q0 -15 -12 -26t-35 -11t-51 4z" />
    <glyph glyph-name="L" unicode="L" horiz-adv-x="840" 
d="M492 1q-96 3 -148 3q-46 0 -152 -4l-77 -2q-16 0 -28.5 10t-12.5 25t11 26t30 11l38 -1q10 -1 31 -1q24 0 32.5 10.5t8.5 38.5v468q0 17 -3.5 27t-11.5 16q-5 4 -15.5 4.5t-19 0.5h-12.5q-17 0 -31 8.5t-14 24.5q0 15 12 26t34 11q24 0 47 -3q51 -3 59 -3q26 0 68 4
q27 3 50 3q20 0 29 -9.5t9 -24.5t-10 -25t-27 -10q-54 0 -71 -9q-10 -5 -14 -15t-4 -29l2 -474q0 -22 9 -31.5t29 -9.5l291 1q36 0 48 20q22 36 31 115q4 30 11.5 42.5t21.5 12.5q22 0 22 -32q0 -16 -1 -28l-1 -62l1 -84q0 -29 -16 -42t-49 -13q-51 0 -207 4z" />
    <glyph glyph-name="Lacute" unicode="&#x139;" horiz-adv-x="840" 
d="M492 1q-96 3 -148 3q-46 0 -152 -4l-77 -2q-16 0 -28.5 10t-12.5 25t11 26t30 11l38 -1q10 -1 31 -1q24 0 32.5 10.5t8.5 38.5v468q0 17 -3.5 27t-11.5 16q-5 4 -15.5 4.5t-19 0.5h-12.5q-17 0 -31 8.5t-14 24.5q0 15 12 26t34 11q24 0 47 -3q51 -3 59 -3q26 0 68 4
q27 3 50 3q20 0 29 -9.5t9 -24.5t-10 -25t-27 -10q-54 0 -71 -9q-10 -5 -14 -15t-4 -29l2 -474q0 -22 9 -31.5t29 -9.5l291 1q36 0 48 20q22 36 31 115q4 30 11.5 42.5t21.5 12.5q22 0 22 -32q0 -16 -1 -28l-1 -62l1 -84q0 -29 -16 -42t-49 -13q-51 0 -207 4zM163 808
q-11 0 -19.5 6.5t-8.5 17.5q0 8 6 16.5t17 14.5l168 94q8 4 18 4q11 0 21 -5.5t14 -14.5q4 -10 4 -16q0 -11 -7 -20.5t-20 -15.5l-178 -78q-7 -3 -15 -3z" />
    <glyph glyph-name="Lcaron" unicode="&#x13d;" horiz-adv-x="840" 
d="M492 1q-96 3 -148 3q-46 0 -152 -4l-77 -2q-16 0 -28.5 10t-12.5 25t11 26t30 11l38 -1q10 -1 31 -1q24 0 32.5 10.5t8.5 38.5v468q0 17 -3.5 27t-11.5 16q-5 4 -15.5 4.5t-19 0.5h-12.5q-17 0 -31 8.5t-14 24.5q0 15 12 26t34 11q24 0 47 -3q51 -3 59 -3q26 0 68 4
q27 3 50 3q20 0 29 -9.5t9 -24.5t-10 -25t-27 -10q-54 0 -71 -9q-10 -5 -14 -15t-4 -29l2 -474q0 -22 9 -31.5t29 -9.5l291 1q36 0 48 20q22 36 31 115q4 30 11.5 42.5t21.5 12.5q22 0 22 -32q0 -16 -1 -28l-1 -62l1 -84q0 -29 -16 -42t-49 -13q-51 0 -207 4zM142 970
q0 13 7 19q6 6 16 6q14 0 25 -12l65 -68q7 -8 16 -8q8 0 16 8l63 68q11 12 24 12q9 0 16 -6q8 -8 8 -19t-8 -22l-88 -116q-15 -18 -30 -18q-16 0 -31 18l-92 116q-7 8 -7 22z" />
    <glyph glyph-name="M" unicode="M" horiz-adv-x="1050" 
d="M273 0q-47 5 -64 5q-27 0 -69 -4q-25 -3 -44 -3q-22 0 -36 10t-14 24q0 15 12 25.5t33 10.5l24 -1q7 -1 23 -1q11 0 19.5 8t8.5 23q0 184 2 264l5 244q0 27 -22 27l-43 -1q-53 0 -53 40q0 19 12.5 30t36.5 11q14 0 37.5 -2t34.5 -3l29 -3q22 -2 35 -9.5t21 -23.5
q35 -66 112 -227q98 -201 145 -287q5 -8 12 -8q8 0 11 9q45 99 93 195t119 231l39 75q17 34 41 38q13 2 56 3.5t68 1.5q16 0 26.5 -10t10.5 -24q0 -16 -10.5 -26.5t-30.5 -10.5q-10 0 -21.5 1t-26.5 1q-18 0 -18 -22l5 -505q0 -40 34 -40q11 0 21 1.5t19 1.5q16 0 27 -9
t11 -23q0 -16 -11.5 -27t-33.5 -11q-13 0 -24 1t-20 2q-32 5 -64 5q-16 0 -69 -5q-34 -4 -44 -4q-21 0 -34.5 9t-13.5 26q0 16 11.5 26t33.5 10q14 0 28 -1.5t23 -1.5q29 0 29 37l-4 415q0 21 -12 21q-9 0 -17 -15q-39 -83 -118 -246q-92 -190 -124 -261q-9 -20 -25 -20
q-20 0 -27 17q-93 223 -231 510q-3 7 -10 7q-4 0 -7 -3t-3 -9l3 -416q0 -38 41 -38q13 0 24 1.5t19 1.5q17 0 26.5 -11t9.5 -24q0 -15 -12 -26t-31 -11q-12 0 -44 4z" />
    <glyph glyph-name="N" unicode="N" horiz-adv-x="840" 
d="M634 0q-86 129 -219 325l-176 261q-5 8 -15 8q-7 0 -12 -5.5t-5 -14.5l4 -472q0 -37 36 -37q9 0 21.5 2t20.5 2q18 0 28.5 -10t10.5 -26t-12 -26t-31 -10q-12 0 -44 4q-47 5 -64 5q-16 0 -69 -5q-34 -4 -44 -4q-22 0 -36 10t-14 27q0 15 12 25t30 10q12 0 28 -2
q14 -2 22 -2q11 0 19.5 8t8.5 23q0 71 1 106q0 106 1 159l5 233q1 22 -15.5 30t-49.5 8q-21 0 -32.5 9t-11.5 26q0 16 12.5 26t32.5 10q28 0 96 -2q43 -1 64 -8.5t31 -21.5q97 -137 199 -284.5t156 -228.5q5 -6 10 -6t8 4.5t3 11.5l3 428q0 19 -8.5 29t-21.5 10l-21 -1
q-14 -2 -27 -2q-17 0 -30.5 10.5t-13.5 25.5t13 25.5t35 10.5q20 0 45 -3q40 -4 63 -4q19 0 32.5 1t22.5 2q24 3 45 3q22 0 33.5 -9.5t11.5 -25.5q0 -15 -11 -25.5t-27 -10.5q-9 0 -19 1.5t-21 1.5q-17 0 -26.5 -8.5t-9.5 -30.5l-5 -582q0 -16 -9.5 -26.5t-22.5 -10.5
q-26 0 -41 23z" />
    <glyph glyph-name="Nacute" unicode="&#x143;" horiz-adv-x="840" 
d="M634 0q-86 129 -219 325l-176 261q-5 8 -15 8q-7 0 -12 -5.5t-5 -14.5l4 -472q0 -37 36 -37q9 0 21.5 2t20.5 2q18 0 28.5 -10t10.5 -26t-12 -26t-31 -10q-12 0 -44 4q-47 5 -64 5q-16 0 -69 -5q-34 -4 -44 -4q-22 0 -36 10t-14 27q0 15 12 25t30 10q12 0 28 -2
q14 -2 22 -2q11 0 19.5 8t8.5 23q0 71 1 106q0 106 1 159l5 233q1 22 -15.5 30t-49.5 8q-21 0 -32.5 9t-11.5 26q0 16 12.5 26t32.5 10q28 0 96 -2q43 -1 64 -8.5t31 -21.5q97 -137 199 -284.5t156 -228.5q5 -6 10 -6t8 4.5t3 11.5l3 428q0 19 -8.5 29t-21.5 10l-21 -1
q-14 -2 -27 -2q-17 0 -30.5 10.5t-13.5 25.5t13 25.5t35 10.5q20 0 45 -3q40 -4 63 -4q19 0 32.5 1t22.5 2q24 3 45 3q22 0 33.5 -9.5t11.5 -25.5q0 -15 -11 -25.5t-27 -10.5q-9 0 -19 1.5t-21 1.5q-17 0 -26.5 -8.5t-9.5 -30.5l-5 -582q0 -16 -9.5 -26.5t-22.5 -10.5
q-26 0 -41 23zM313 808q-11 0 -19.5 6.5t-8.5 17.5q0 8 6 16.5t17 14.5l168 94q8 4 18 4q11 0 21 -5.5t14 -14.5q4 -10 4 -16q0 -11 -7 -20.5t-20 -15.5l-178 -78q-7 -3 -15 -3z" />
    <glyph glyph-name="Ncaron" unicode="&#x147;" horiz-adv-x="840" 
d="M634 0q-86 129 -219 325l-176 261q-5 8 -15 8q-7 0 -12 -5.5t-5 -14.5l4 -472q0 -37 36 -37q9 0 21.5 2t20.5 2q18 0 28.5 -10t10.5 -26t-12 -26t-31 -10q-12 0 -44 4q-47 5 -64 5q-16 0 -69 -5q-34 -4 -44 -4q-22 0 -36 10t-14 27q0 15 12 25t30 10q12 0 28 -2
q14 -2 22 -2q11 0 19.5 8t8.5 23q0 71 1 106q0 106 1 159l5 233q1 22 -15.5 30t-49.5 8q-21 0 -32.5 9t-11.5 26q0 16 12.5 26t32.5 10q28 0 96 -2q43 -1 64 -8.5t31 -21.5q97 -137 199 -284.5t156 -228.5q5 -6 10 -6t8 4.5t3 11.5l3 428q0 19 -8.5 29t-21.5 10l-21 -1
q-14 -2 -27 -2q-17 0 -30.5 10.5t-13.5 25.5t13 25.5t35 10.5q20 0 45 -3q40 -4 63 -4q19 0 32.5 1t22.5 2q24 3 45 3q22 0 33.5 -9.5t11.5 -25.5q0 -15 -11 -25.5t-27 -10.5q-9 0 -19 1.5t-21 1.5q-17 0 -26.5 -8.5t-9.5 -30.5l-5 -582q0 -16 -9.5 -26.5t-22.5 -10.5
q-26 0 -41 23zM292 970q0 13 7 19q6 6 16 6q14 0 25 -12l65 -68q7 -8 16 -8q8 0 16 8l63 68q11 12 24 12q9 0 16 -6q8 -8 8 -19t-8 -22l-88 -116q-15 -18 -30 -18q-16 0 -31 18l-92 116q-7 8 -7 22z" />
    <glyph glyph-name="Ntilde" unicode="&#xd1;" horiz-adv-x="840" 
d="M634 0q-86 129 -219 325l-176 261q-5 8 -15 8q-7 0 -12 -5.5t-5 -14.5l4 -472q0 -37 36 -37q9 0 21.5 2t20.5 2q18 0 28.5 -10t10.5 -26t-12 -26t-31 -10q-12 0 -44 4q-47 5 -64 5q-16 0 -69 -5q-34 -4 -44 -4q-22 0 -36 10t-14 27q0 15 12 25t30 10q12 0 28 -2
q14 -2 22 -2q11 0 19.5 8t8.5 23q0 71 1 106q0 106 1 159l5 233q1 22 -15.5 30t-49.5 8q-21 0 -32.5 9t-11.5 26q0 16 12.5 26t32.5 10q28 0 96 -2q43 -1 64 -8.5t31 -21.5q97 -137 199 -284.5t156 -228.5q5 -6 10 -6t8 4.5t3 11.5l3 428q0 19 -8.5 29t-21.5 10l-21 -1
q-14 -2 -27 -2q-17 0 -30.5 10.5t-13.5 25.5t13 25.5t35 10.5q20 0 45 -3q40 -4 63 -4q19 0 32.5 1t22.5 2q24 3 45 3q22 0 33.5 -9.5t11.5 -25.5q0 -15 -11 -25.5t-27 -10.5q-9 0 -19 1.5t-21 1.5q-17 0 -26.5 -8.5t-9.5 -30.5l-5 -582q0 -16 -9.5 -26.5t-22.5 -10.5
q-26 0 -41 23zM416 851q-26 15 -52 15q-24 0 -43 -14q-12 -8 -21 -8q-7 0 -15 5q-10 7 -10 19q0 10 6 19q10 18 35.5 33t51.5 15q35 0 64 -19q22 -15 45 -15q19 0 32.5 9.5t15.5 11.5q10 5 16 5q9 0 16 -7q6 -6 6 -17q0 -13 -9 -26q-29 -44 -80 -44q-29 0 -58 18z" />
    <glyph glyph-name="O" unicode="O" horiz-adv-x="840" 
d="M239.5 23q-83.5 37 -134.5 113.5t-51 190.5q0 109 44 195t125.5 134.5t189.5 48.5q115 0 199.5 -46t129 -127t44.5 -184q0 -114 -51.5 -196t-134.5 -124t-177 -42q-100 0 -183.5 37zM553.5 77.5q64.5 34.5 103 100t38.5 155.5q0 88 -31.5 159.5t-93.5 113t-151 41.5
q-83 0 -145.5 -40.5t-95.5 -110t-33 -154.5q0 -96 37.5 -163.5t98.5 -101.5t132 -34q76 0 140.5 34.5z" />
    <glyph glyph-name="Oacute" unicode="&#xd3;" horiz-adv-x="840" 
d="M239.5 23q-83.5 37 -134.5 113.5t-51 190.5q0 109 44 195t125.5 134.5t189.5 48.5q115 0 199.5 -46t129 -127t44.5 -184q0 -114 -51.5 -196t-134.5 -124t-177 -42q-100 0 -183.5 37zM553.5 77.5q64.5 34.5 103 100t38.5 155.5q0 88 -31.5 159.5t-93.5 113t-151 41.5
q-83 0 -145.5 -40.5t-95.5 -110t-33 -154.5q0 -96 37.5 -163.5t98.5 -101.5t132 -34q76 0 140.5 34.5zM313 808q-11 0 -19.5 6.5t-8.5 17.5q0 8 6 16.5t17 14.5l168 94q8 4 18 4q11 0 21 -5.5t14 -14.5q4 -10 4 -16q0 -11 -7 -20.5t-20 -15.5l-178 -78q-7 -3 -15 -3z" />
    <glyph glyph-name="Ocircumflex" unicode="&#xd4;" horiz-adv-x="840" 
d="M239.5 23q-83.5 37 -134.5 113.5t-51 190.5q0 109 44 195t125.5 134.5t189.5 48.5q115 0 199.5 -46t129 -127t44.5 -184q0 -114 -51.5 -196t-134.5 -124t-177 -42q-100 0 -183.5 37zM553.5 77.5q64.5 34.5 103 100t38.5 155.5q0 88 -31.5 159.5t-93.5 113t-151 41.5
q-83 0 -145.5 -40.5t-95.5 -110t-33 -154.5q0 -96 37.5 -163.5t98.5 -101.5t132 -34q76 0 140.5 34.5zM292 840q0 11 8 22l88 116q15 18 30 18q16 0 31 -18l92 -116q7 -8 7 -22q0 -13 -7 -19q-6 -6 -16 -6q-15 0 -25 12l-65 68q-7 8 -16 8q-8 0 -16 -8l-63 -68
q-11 -12 -24 -12q-8 0 -16 6q-8 8 -8 19z" />
    <glyph glyph-name="Odieresis" unicode="&#xd6;" horiz-adv-x="840" 
d="M239.5 23q-83.5 37 -134.5 113.5t-51 190.5q0 109 44 195t125.5 134.5t189.5 48.5q115 0 199.5 -46t129 -127t44.5 -184q0 -114 -51.5 -196t-134.5 -124t-177 -42q-100 0 -183.5 37zM553.5 77.5q64.5 34.5 103 100t38.5 155.5q0 88 -31.5 159.5t-93.5 113t-151 41.5
q-83 0 -145.5 -40.5t-95.5 -110t-33 -154.5q0 -96 37.5 -163.5t98.5 -101.5t132 -34q76 0 140.5 34.5zM290 869q-14 14 -14 34t14 33.5t34 13.5t34 -13.5t14 -33.5t-14 -34t-34 -14t-34 14zM481.5 869q-14.5 14 -14.5 34q0 19 14.5 33t34.5 14t34 -13.5t14 -33.5t-14 -34
t-34 -14t-34.5 14z" />
    <glyph glyph-name="Ograve" unicode="&#xd2;" horiz-adv-x="840" 
d="M239.5 23q-83.5 37 -134.5 113.5t-51 190.5q0 109 44 195t125.5 134.5t189.5 48.5q115 0 199.5 -46t129 -127t44.5 -184q0 -114 -51.5 -196t-134.5 -124t-177 -42q-100 0 -183.5 37zM553.5 77.5q64.5 34.5 103 100t38.5 155.5q0 88 -31.5 159.5t-93.5 113t-151 41.5
q-83 0 -145.5 -40.5t-95.5 -110t-33 -154.5q0 -96 37.5 -163.5t98.5 -101.5t132 -34q76 0 140.5 34.5zM303 904.5q-7 9.5 -7 20.5q0 16 11.5 26.5t27.5 10.5q8 0 18 -5l168 -94q11 -6 17 -14.5t6 -16.5q0 -11 -8 -17.5t-20 -6.5q-8 0 -15 3l-178 78q-13 6 -20 15.5z" />
    <glyph glyph-name="Oslash" unicode="&#xd8;" horiz-adv-x="840" 
d="M303.5 0.5q-57.5 14.5 -104.5 43.5q-4 3 -10 3t-13 -7l-26 -27q-23 -21 -43 -21q-12 0 -20 8q-9 9 -9 20q0 17 22 41l22 22q8 8 8 15q0 4 -5 11q-71 86 -71 218q0 109 44 195t125.5 134.5t189.5 48.5q75 0 137.5 -20t108.5 -57q7 -5 12 -5q6 0 14 8l50 51q23 23 41 23
q12 0 19 -9q8 -10 8 -20q0 -19 -24 -43l-51 -49q-7 -7 -7 -14q0 -6 5 -13q60 -89 60 -209q0 -114 -51.5 -196t-134.5 -124t-177 -42q-62 0 -119.5 14.5zM403 350q134 131 206 204q5 5 5 9q0 5 -5 10q-33 35 -81 54.5t-109 19.5q-83 0 -145.5 -40.5t-95.5 -110t-33 -154.5
q0 -96 40 -168q7 -13 15 -13q4 0 8 3q74 69 195 186zM553.5 77.5q64.5 34.5 103 100t38.5 155.5q0 94 -35 167q-3 7 -8 7t-10 -5l-200 -190q-131 -126 -194 -195q-5 -5 -5 -9t6 -10q33 -27 75.5 -41t88.5 -14q76 0 140.5 34.5z" />
    <glyph glyph-name="Otilde" unicode="&#xd5;" horiz-adv-x="840" 
d="M239.5 23q-83.5 37 -134.5 113.5t-51 190.5q0 109 44 195t125.5 134.5t189.5 48.5q115 0 199.5 -46t129 -127t44.5 -184q0 -114 -51.5 -196t-134.5 -124t-177 -42q-100 0 -183.5 37zM553.5 77.5q64.5 34.5 103 100t38.5 155.5q0 88 -31.5 159.5t-93.5 113t-151 41.5
q-83 0 -145.5 -40.5t-95.5 -110t-33 -154.5q0 -96 37.5 -163.5t98.5 -101.5t132 -34q76 0 140.5 34.5zM416 851q-26 15 -52 15q-24 0 -43 -14q-12 -8 -21 -8q-7 0 -15 5q-10 7 -10 19q0 10 6 19q10 18 35.5 33t51.5 15q35 0 64 -19q22 -15 45 -15q19 0 32.5 9.5t15.5 11.5
q10 5 16 5q9 0 16 -7q6 -6 6 -17q0 -13 -9 -26q-29 -44 -80 -44q-29 0 -58 18z" />
    <glyph glyph-name="OE" unicode="&#x152;" horiz-adv-x="1050" 
d="M225.5 21.5q-76.5 35.5 -124 112.5t-47.5 193q0 108 44 194.5t118.5 135t163.5 48.5q36 0 72 -7.5t61 -21.5q7 -4 13 -4q7 0 15 10q14 17 48 17q52 0 169 5q48 3 80 3q25 0 38.5 -2.5t22.5 -12.5q13 -15 36.5 -56t35.5 -67q3 -6 3 -13q0 -12 -8 -21.5t-23 -9.5
q-19 0 -32 16l-58 74q-16 20 -43 20l-175 -1q-14 0 -18.5 -7t-4.5 -30l-1 -190q0 -24 34 -24h46q18 0 31 12.5t21 43.5q9 34 28 34q23 0 23 -44l-2 -25q-2 -24 -2 -41q0 -16 2 -50l2 -30q0 -25 -4.5 -34.5t-15.5 -9.5q-9 0 -18.5 12.5t-21.5 41.5q-7 16 -17.5 26t-23.5 10
h-53q-14 0 -21.5 -8.5t-7.5 -21.5l-1 -169q0 -39 11 -51t41 -12l161 2q35 0 44 19q12 25 23 53q11 27 23 52q11 20 18 26t18 6q9 0 16 -7t7 -17q0 -18 -6 -52l-3 -22l-3 -20q-5 -52 -15 -77q-7 -18 -27.5 -24t-58.5 -6q-32 0 -90 2q-56 2 -82 2q-38 0 -80 -2q-14 -1 -36 -1
q-11 0 -19 5q-9 6 -18 6q-11 0 -23 -6q-42 -20 -122 -20q-87 0 -163.5 35.5zM466 56q35 13 59 43q6 7 8 20.5t2 47.5v347q0 36 -3 49.5t-9 21.5q-24 31 -57.5 46.5t-84.5 15.5q-60 0 -117 -38.5t-93 -108t-36 -158.5q0 -94 33.5 -161.5t89.5 -102.5t122 -35q51 0 86 13z" />
    <glyph glyph-name="P" unicode="P" horiz-adv-x="840" 
d="M68 8q-11 10 -11 25q0 16 12.5 25.5t32.5 9.5l35 -1q11 -1 30 -1q24 0 34.5 21.5t10.5 71.5v452q0 11 -2.5 15.5t-9.5 4.5t-16 -2t-19 -2q-19 0 -30.5 11t-11.5 28t11 28t33 11q11 0 26 -3q32 -6 73 -6q81 0 159 5q90 4 145 4q65 0 113 -27t73.5 -73.5t25.5 -103.5
q0 -60 -31 -105t-84 -69.5t-116 -24.5q-39 0 -113 2q-80 2 -132 2q-8 0 -13 -5t-5 -12v-160q0 -65 53 -65q18 0 40 2q24 2 42 2t28.5 -9t10.5 -25t-11 -26t-31 -10q-42 0 -83 3q-42 3 -84 3q-20 0 -47.5 -1.5t-40.5 -1.5q-36 -3 -67 -3q-19 0 -30 10zM535 366q82 1 119.5 36
t37.5 102q0 38 -18 70t-50.5 51t-74.5 19q-109 0 -237 -7q-14 -1 -18.5 -8t-4.5 -30v-219q0 -15 17 -15q157 0 229 1z" />
    <glyph glyph-name="Q" unicode="Q" horiz-adv-x="840" 
d="M546 -68.5q-42 17.5 -100 51.5q-7 4 -13 4l-29 -1q-78 0 -145 25q-8 2 -14 0q-12 -4 -21 -13q-8 -8 -11.5 -16.5t-5 -17.5l-2.5 -15q-5 -16 -15 -25t-23 -9q-16 0 -26.5 11t-10.5 29q0 20 13.5 41.5t37.5 38.5q6 5 6 9q0 5 -5 8q-63 45 -98 114.5t-35 153.5
q0 113 44 200.5t126 136t192 48.5q106 0 188.5 -46t129 -129.5t46.5 -191.5q0 -117 -56.5 -201t-151.5 -120q-9 -4 -9 -9t9 -9q41 -12 66 -12q33 0 51 3.5t29 10.5q3 2 11 7t14.5 7.5t13.5 2.5q12 0 20 -8.5t8 -22.5q0 -32 -38 -52.5t-99 -20.5q-55 0 -97 17.5zM580.5 97.5
q50.5 39.5 77.5 98t27 125.5q0 93 -31 166.5t-92 116.5t-147 43q-85 0 -147.5 -40t-95.5 -110.5t-33 -161.5q0 -88 30.5 -155t87.5 -103q12 -7 21 -7q6 0 16 2t20 2q45 0 121 -27q9 -3 16 -3t11 1q68 13 118.5 52.5z" />
    <glyph glyph-name="R" unicode="R" horiz-adv-x="840" 
d="M602 37q-13 16 -39 64q-17 35 -43 76q-24 38 -45.5 64.5t-57.5 66.5q-15 16 -36 16h-123q-13 0 -13 -15l4 -212q0 -30 34 -30l45 1q23 0 35.5 -9t12.5 -25t-12 -26t-36 -10q-15 0 -35 3q-40 4 -71 4q-36 0 -74 -4q-28 -2 -43 -2q-20 0 -31.5 9t-11.5 25q0 14 12 24.5
t31 10.5q12 0 20.5 -1t16.5 -1q27 0 27 26v519q0 11 -3 15.5t-11 4.5q-5 0 -14 -2t-19 -2q-19 0 -30.5 11t-11.5 28t11 28t33 11q11 0 26 -3q32 -6 73 -6q35 0 72 3q87 3 106 3q73 0 126.5 -25t81.5 -66t28 -88q0 -62 -39.5 -111.5t-88.5 -69.5q-9 -3 -9 -11q0 -6 4 -10
q37 -37 89 -112q28 -42 46 -75q23 -38 26 -42q23 -31 53 -31q7 0 19.5 5t21.5 5q14 0 22.5 -8t8.5 -22q0 -22 -21 -35.5t-57 -13.5q-74 0 -110 45zM510 410q38 35 38 93q0 61 -40.5 99t-111.5 38h-136q-10 0 -16 -5.5t-6 -15.5l5 -221q0 -10 4 -14t15 -5q56 -4 153 -4
q57 0 95 35z" />
    <glyph glyph-name="Racute" unicode="&#x154;" horiz-adv-x="840" 
d="M602 37q-13 16 -39 64q-17 35 -43 76q-24 38 -45.5 64.5t-57.5 66.5q-15 16 -36 16h-123q-13 0 -13 -15l4 -212q0 -30 34 -30l45 1q23 0 35.5 -9t12.5 -25t-12 -26t-36 -10q-15 0 -35 3q-40 4 -71 4q-36 0 -74 -4q-28 -2 -43 -2q-20 0 -31.5 9t-11.5 25q0 14 12 24.5
t31 10.5q12 0 20.5 -1t16.5 -1q27 0 27 26v519q0 11 -3 15.5t-11 4.5q-5 0 -14 -2t-19 -2q-19 0 -30.5 11t-11.5 28t11 28t33 11q11 0 26 -3q32 -6 73 -6q35 0 72 3q87 3 106 3q73 0 126.5 -25t81.5 -66t28 -88q0 -62 -39.5 -111.5t-88.5 -69.5q-9 -3 -9 -11q0 -6 4 -10
q37 -37 89 -112q28 -42 46 -75q23 -38 26 -42q23 -31 53 -31q7 0 19.5 5t21.5 5q14 0 22.5 -8t8.5 -22q0 -22 -21 -35.5t-57 -13.5q-74 0 -110 45zM510 410q38 35 38 93q0 61 -40.5 99t-111.5 38h-136q-10 0 -16 -5.5t-6 -15.5l5 -221q0 -10 4 -14t15 -5q56 -4 153 -4
q57 0 95 35zM313 808q-11 0 -19.5 6.5t-8.5 17.5q0 8 6 16.5t17 14.5l168 94q8 4 18 4q11 0 21 -5.5t14 -14.5q4 -10 4 -16q0 -11 -7 -20.5t-20 -15.5l-178 -78q-7 -3 -15 -3z" />
    <glyph glyph-name="Rcaron" unicode="&#x158;" horiz-adv-x="840" 
d="M602 37q-13 16 -39 64q-17 35 -43 76q-24 38 -45.5 64.5t-57.5 66.5q-15 16 -36 16h-123q-13 0 -13 -15l4 -212q0 -30 34 -30l45 1q23 0 35.5 -9t12.5 -25t-12 -26t-36 -10q-15 0 -35 3q-40 4 -71 4q-36 0 -74 -4q-28 -2 -43 -2q-20 0 -31.5 9t-11.5 25q0 14 12 24.5
t31 10.5q12 0 20.5 -1t16.5 -1q27 0 27 26v519q0 11 -3 15.5t-11 4.5q-5 0 -14 -2t-19 -2q-19 0 -30.5 11t-11.5 28t11 28t33 11q11 0 26 -3q32 -6 73 -6q35 0 72 3q87 3 106 3q73 0 126.5 -25t81.5 -66t28 -88q0 -62 -39.5 -111.5t-88.5 -69.5q-9 -3 -9 -11q0 -6 4 -10
q37 -37 89 -112q28 -42 46 -75q23 -38 26 -42q23 -31 53 -31q7 0 19.5 5t21.5 5q14 0 22.5 -8t8.5 -22q0 -22 -21 -35.5t-57 -13.5q-74 0 -110 45zM510 410q38 35 38 93q0 61 -40.5 99t-111.5 38h-136q-10 0 -16 -5.5t-6 -15.5l5 -221q0 -10 4 -14t15 -5q56 -4 153 -4
q57 0 95 35zM292 970q0 13 7 19q6 6 16 6q14 0 25 -12l65 -68q7 -8 16 -8q8 0 16 8l63 68q11 12 24 12q9 0 16 -6q8 -8 8 -19t-8 -22l-88 -116q-15 -18 -30 -18q-16 0 -31 18l-92 116q-7 8 -7 22z" />
    <glyph glyph-name="S" unicode="S" 
d="M257.5 -1.5q-34.5 8.5 -71.5 21.5q-22 9 -28 9q-10 0 -16 -5t-13 -14q-8 -10 -13.5 -14.5t-15.5 -4.5q-12 0 -20 11t-8 33q0 5 2 21q3 36 3 41q0 16 -6 48q-1 6 -3 20t-2 25q0 39 24 39q10 0 15.5 -7.5t11.5 -28.5q8 -26 26 -53.5t37 -41.5q22 -16 62 -28t85 -12
q76 0 116 39.5t40 100.5q0 52 -45.5 82.5t-143.5 41.5q-106 12 -157 63.5t-51 131.5q0 49 29 93.5t78.5 72t109.5 27.5q40 0 69 -7.5t56 -19.5q5 -2 14 -5t13 -3q9 0 13.5 4t10.5 13q6 10 12 15t17 5q28 0 28 -44q0 -9 -1 -21t-1 -32q0 -15 4 -39q4 -22 4 -30
q0 -18 -7.5 -30t-21.5 -12q-15 0 -23 12.5t-16 37.5q-3 14 -7 22q-7 18 -30 36t-54.5 29.5t-63.5 11.5q-48 0 -84 -19t-55 -47.5t-19 -56.5q0 -40 16.5 -65.5t54.5 -40.5t104 -23q112 -14 171.5 -66t59.5 -132q0 -59 -31 -108t-82.5 -77t-110.5 -28q-51 0 -85.5 8.5z" />
    <glyph glyph-name="Sacute" unicode="&#x15a;" 
d="M257.5 -1.5q-34.5 8.5 -71.5 21.5q-22 9 -28 9q-10 0 -16 -5t-13 -14q-8 -10 -13.5 -14.5t-15.5 -4.5q-12 0 -20 11t-8 33q0 5 2 21q3 36 3 41q0 16 -6 48q-1 6 -3 20t-2 25q0 39 24 39q10 0 15.5 -7.5t11.5 -28.5q8 -26 26 -53.5t37 -41.5q22 -16 62 -28t85 -12
q76 0 116 39.5t40 100.5q0 52 -45.5 82.5t-143.5 41.5q-106 12 -157 63.5t-51 131.5q0 49 29 93.5t78.5 72t109.5 27.5q40 0 69 -7.5t56 -19.5q5 -2 14 -5t13 -3q9 0 13.5 4t10.5 13q6 10 12 15t17 5q28 0 28 -44q0 -9 -1 -21t-1 -32q0 -15 4 -39q4 -22 4 -30
q0 -18 -7.5 -30t-21.5 -12q-15 0 -23 12.5t-16 37.5q-3 14 -7 22q-7 18 -30 36t-54.5 29.5t-63.5 11.5q-48 0 -84 -19t-55 -47.5t-19 -56.5q0 -40 16.5 -65.5t54.5 -40.5t104 -23q112 -14 171.5 -66t59.5 -132q0 -59 -31 -108t-82.5 -77t-110.5 -28q-51 0 -85.5 8.5z
M208 808q-11 0 -19.5 6.5t-8.5 17.5q0 8 6 16.5t17 14.5l168 94q8 4 18 4q11 0 21 -5.5t14 -14.5q4 -10 4 -16q0 -11 -7 -20.5t-20 -15.5l-178 -78q-7 -3 -15 -3z" />
    <glyph glyph-name="Scaron" unicode="&#x160;" 
d="M257.5 -1.5q-34.5 8.5 -71.5 21.5q-22 9 -28 9q-10 0 -16 -5t-13 -14q-8 -10 -13.5 -14.5t-15.5 -4.5q-12 0 -20 11t-8 33q0 5 2 21q3 36 3 41q0 16 -6 48q-1 6 -3 20t-2 25q0 39 24 39q10 0 15.5 -7.5t11.5 -28.5q8 -26 26 -53.5t37 -41.5q22 -16 62 -28t85 -12
q76 0 116 39.5t40 100.5q0 52 -45.5 82.5t-143.5 41.5q-106 12 -157 63.5t-51 131.5q0 49 29 93.5t78.5 72t109.5 27.5q40 0 69 -7.5t56 -19.5q5 -2 14 -5t13 -3q9 0 13.5 4t10.5 13q6 10 12 15t17 5q28 0 28 -44q0 -9 -1 -21t-1 -32q0 -15 4 -39q4 -22 4 -30
q0 -18 -7.5 -30t-21.5 -12q-15 0 -23 12.5t-16 37.5q-3 14 -7 22q-7 18 -30 36t-54.5 29.5t-63.5 11.5q-48 0 -84 -19t-55 -47.5t-19 -56.5q0 -40 16.5 -65.5t54.5 -40.5t104 -23q112 -14 171.5 -66t59.5 -132q0 -59 -31 -108t-82.5 -77t-110.5 -28q-51 0 -85.5 8.5z
M187 970q0 13 7 19q6 6 16 6q14 0 25 -12l65 -68q7 -8 16 -8q8 0 16 8l63 68q11 12 24 12q9 0 16 -6q8 -8 8 -19t-8 -22l-88 -116q-15 -18 -30 -18q-16 0 -31 18l-92 116q-7 8 -7 22z" />
    <glyph glyph-name="Scedilla" unicode="&#x15e;" 
d="M333 -28l-2 -9q0 -6 4.5 -8t13.5 -2q54 0 78 -20t24 -53q0 -41 -35 -69t-83 -28q-56 0 -99 25q-17 11 -17 25q0 4 4 12q7 11 22 11q9 0 21 -5q32 -15 63 -15q21 0 36 10t15 26q0 30 -37 30l-27 -1q-9 -1 -23 -1q-43 0 -43 33q0 18 19 43q4 5 6.5 10t-0.5 10q-43 6 -87 25
q-21 8 -28 8q-10 0 -16 -5t-13 -14q-8 -10 -13.5 -14.5t-15.5 -4.5q-12 0 -20 11t-8 33q0 5 2 21q3 36 3 41q0 16 -6 48q-1 6 -3 20t-2 25q0 39 24 39q10 0 15.5 -7.5t11.5 -28.5q8 -26 26 -53.5t37 -41.5q22 -16 62 -28t85 -12q76 0 116 39.5t40 100.5q0 52 -45.5 82.5
t-143.5 41.5q-106 12 -157 63.5t-51 131.5q0 49 29 93.5t78.5 72t109.5 27.5q40 0 69 -7.5t56 -19.5q5 -2 14 -5t13 -3q9 0 13.5 4t10.5 13q6 10 12 15t17 5q28 0 28 -44q0 -9 -1 -21t-1 -32q0 -15 4 -39q4 -22 4 -30q0 -18 -7.5 -30t-21.5 -12q-15 0 -23 12.5t-16 37.5
q-3 14 -7 22q-7 18 -30 36t-54.5 29.5t-63.5 11.5q-48 0 -84 -19t-55 -47.5t-19 -56.5q0 -40 16.5 -65.5t54.5 -40.5t104 -23q112 -14 171.5 -66t59.5 -132q0 -59 -30.5 -107.5t-81.5 -77t-110 -28.5q-6 -6 -12 -18z" />
    <glyph glyph-name="T" unicode="T" horiz-adv-x="840" 
d="M503 -2q-54 4 -91 4q-36 0 -86 -4l-48 -2q-47 0 -47 37q0 16 12.5 25.5t30.5 9.5l46 -1q13 -1 29 -1q13 0 20 7t7 19v519q0 12 -4 17t-14 5l-177 1q-12 0 -12 -14l-1 -77q0 -24 -10.5 -36.5t-27.5 -12.5q-16 0 -26.5 12t-10.5 32v70q0 56 1 66q2 15 13 24.5t29 9.5
q9 0 20.5 -1t22.5 -2q16 -3 28 -3q80 -5 200 -5q155 0 233 3q7 0 25 2l32 2q25 0 36 -14t12 -40l2 -118q0 -21 -9.5 -34.5t-24.5 -13.5t-26 11.5t-11 31.5v82q0 9 -7.5 15.5t-17.5 6.5l-184 1q-20 0 -20 -21l8 -516q0 -15 8.5 -21.5t25.5 -6.5l56 1q22 1 36 -9t14 -26
q0 -17 -12 -27.5t-36 -10.5q-17 0 -44 3z" />
    <glyph glyph-name="Tcaron" unicode="&#x164;" horiz-adv-x="840" 
d="M503 -2q-54 4 -91 4q-36 0 -86 -4l-48 -2q-47 0 -47 37q0 16 12.5 25.5t30.5 9.5l46 -1q13 -1 29 -1q13 0 20 7t7 19v519q0 12 -4 17t-14 5l-177 1q-12 0 -12 -14l-1 -77q0 -24 -10.5 -36.5t-27.5 -12.5q-16 0 -26.5 12t-10.5 32v70q0 56 1 66q2 15 13 24.5t29 9.5
q9 0 20.5 -1t22.5 -2q16 -3 28 -3q80 -5 200 -5q155 0 233 3q7 0 25 2l32 2q25 0 36 -14t12 -40l2 -118q0 -21 -9.5 -34.5t-24.5 -13.5t-26 11.5t-11 31.5v82q0 9 -7.5 15.5t-17.5 6.5l-184 1q-20 0 -20 -21l8 -516q0 -15 8.5 -21.5t25.5 -6.5l56 1q22 1 36 -9t14 -26
q0 -17 -12 -27.5t-36 -10.5q-17 0 -44 3zM292 970q0 13 7 19q6 6 16 6q14 0 25 -12l65 -68q7 -8 16 -8q8 0 16 8l63 68q11 12 24 12q9 0 16 -6q8 -8 8 -19t-8 -22l-88 -116q-15 -18 -30 -18q-16 0 -31 18l-92 116q-7 8 -7 22z" />
    <glyph glyph-name="uni0162" unicode="&#x162;" horiz-adv-x="840" 
d="M747 532q0 -21 -9.5 -34.5t-24.5 -13.5t-26 11.5t-11 31.5v82q0 9 -7.5 15.5t-17.5 6.5l-184 1q-20 0 -20 -21l8 -516q0 -15 8.5 -21.5t25.5 -6.5l56 1q22 1 36 -9t14 -26q0 -17 -12 -27.5t-36 -10.5q-10 0 -70 4q-1 -3 -11 -3q-18 0 -28 -24l-2 -9q0 -6 4.5 -8t13.5 -2
q54 0 78 -20t24 -53q0 -41 -35 -69t-83 -28q-56 0 -99 25q-17 11 -17 25q0 4 4 12q7 11 22 11q9 0 21 -5q32 -15 63 -15q21 0 36 10t15 26q0 30 -37 30l-27 -1q-9 -1 -23 -1q-43 0 -43 33q0 18 19 43q7 9 7 14q0 7 -7 11q-28 -2 -39 -2q-33 -3 -55 -3q-47 0 -47 37
q0 16 12.5 25.5t30.5 9.5l46 -1q13 -1 29 -1q13 0 20 7t7 19v519q0 12 -4 17t-14 5l-177 1q-12 0 -12 -14l-1 -77q0 -24 -10.5 -36.5t-27.5 -12.5q-16 0 -26.5 12t-10.5 32v70q0 56 1 66q2 15 13 24.5t29 9.5q9 0 20.5 -1t22.5 -2q16 -3 28 -3q80 -5 200 -5q155 0 233 3
q7 0 25 2l32 2q25 0 36 -14t12 -40z" />
    <glyph glyph-name="U" unicode="U" horiz-adv-x="840" 
d="M279 7.5q-61 25.5 -99.5 79.5t-38.5 133v379q0 19 -6.5 26t-26.5 7q-24 0 -37.5 10t-13.5 25t11 25.5t31 10.5q14 0 36 -2q48 -3 71 -3q13 0 58 3q22 2 32 2q22 0 32.5 -10t10.5 -25q0 -16 -11 -25.5t-32 -9.5l-43 1q-17 0 -23.5 -8t-6.5 -24v-372q0 -86 54.5 -129.5
t141.5 -43.5q84 0 129.5 52t45.5 131l-1 370q0 12 -8 18t-22 6q-8 0 -17 -1t-24 -1q-18 0 -30.5 10t-12.5 25t11.5 25.5t35.5 10.5q12 0 38 -2q38 -4 76 -4q32 0 64 4q24 2 31 2q23 0 35.5 -10t12.5 -25q0 -16 -12 -25.5t-34 -9.5l-41 1q-17 0 -25.5 -7.5t-8.5 -23.5v-354
q0 -78 -30.5 -138.5t-87.5 -94.5t-134 -34q-70 0 -131 25.5z" />
    <glyph glyph-name="Uacute" unicode="&#xda;" horiz-adv-x="840" 
d="M279 7.5q-61 25.5 -99.5 79.5t-38.5 133v379q0 19 -6.5 26t-26.5 7q-24 0 -37.5 10t-13.5 25t11 25.5t31 10.5q14 0 36 -2q48 -3 71 -3q13 0 58 3q22 2 32 2q22 0 32.5 -10t10.5 -25q0 -16 -11 -25.5t-32 -9.5l-43 1q-17 0 -23.5 -8t-6.5 -24v-372q0 -86 54.5 -129.5
t141.5 -43.5q84 0 129.5 52t45.5 131l-1 370q0 12 -8 18t-22 6q-8 0 -17 -1t-24 -1q-18 0 -30.5 10t-12.5 25t11.5 25.5t35.5 10.5q12 0 38 -2q38 -4 76 -4q32 0 64 4q24 2 31 2q23 0 35.5 -10t12.5 -25q0 -16 -12 -25.5t-34 -9.5l-41 1q-17 0 -25.5 -7.5t-8.5 -23.5v-354
q0 -78 -30.5 -138.5t-87.5 -94.5t-134 -34q-70 0 -131 25.5zM313 808q-11 0 -19.5 6.5t-8.5 17.5q0 8 6 16.5t17 14.5l168 94q8 4 18 4q11 0 21 -5.5t14 -14.5q4 -10 4 -16q0 -11 -7 -20.5t-20 -15.5l-178 -78q-7 -3 -15 -3z" />
    <glyph glyph-name="Ucircumflex" unicode="&#xdb;" horiz-adv-x="840" 
d="M279 7.5q-61 25.5 -99.5 79.5t-38.5 133v379q0 19 -6.5 26t-26.5 7q-24 0 -37.5 10t-13.5 25t11 25.5t31 10.5q14 0 36 -2q48 -3 71 -3q13 0 58 3q22 2 32 2q22 0 32.5 -10t10.5 -25q0 -16 -11 -25.5t-32 -9.5l-43 1q-17 0 -23.5 -8t-6.5 -24v-372q0 -86 54.5 -129.5
t141.5 -43.5q84 0 129.5 52t45.5 131l-1 370q0 12 -8 18t-22 6q-8 0 -17 -1t-24 -1q-18 0 -30.5 10t-12.5 25t11.5 25.5t35.5 10.5q12 0 38 -2q38 -4 76 -4q32 0 64 4q24 2 31 2q23 0 35.5 -10t12.5 -25q0 -16 -12 -25.5t-34 -9.5l-41 1q-17 0 -25.5 -7.5t-8.5 -23.5v-354
q0 -78 -30.5 -138.5t-87.5 -94.5t-134 -34q-70 0 -131 25.5zM292 840q0 11 8 22l88 116q15 18 30 18q16 0 31 -18l92 -116q7 -8 7 -22q0 -13 -7 -19q-6 -6 -16 -6q-15 0 -25 12l-65 68q-7 8 -16 8q-8 0 -16 -8l-63 -68q-11 -12 -24 -12q-8 0 -16 6q-8 8 -8 19z" />
    <glyph glyph-name="Udieresis" unicode="&#xdc;" horiz-adv-x="840" 
d="M279 7.5q-61 25.5 -99.5 79.5t-38.5 133v379q0 19 -6.5 26t-26.5 7q-24 0 -37.5 10t-13.5 25t11 25.5t31 10.5q14 0 36 -2q48 -3 71 -3q13 0 58 3q22 2 32 2q22 0 32.5 -10t10.5 -25q0 -16 -11 -25.5t-32 -9.5l-43 1q-17 0 -23.5 -8t-6.5 -24v-372q0 -86 54.5 -129.5
t141.5 -43.5q84 0 129.5 52t45.5 131l-1 370q0 12 -8 18t-22 6q-8 0 -17 -1t-24 -1q-18 0 -30.5 10t-12.5 25t11.5 25.5t35.5 10.5q12 0 38 -2q38 -4 76 -4q32 0 64 4q24 2 31 2q23 0 35.5 -10t12.5 -25q0 -16 -12 -25.5t-34 -9.5l-41 1q-17 0 -25.5 -7.5t-8.5 -23.5v-354
q0 -78 -30.5 -138.5t-87.5 -94.5t-134 -34q-70 0 -131 25.5zM290 869q-14 14 -14 34t14 33.5t34 13.5t34 -13.5t14 -33.5t-14 -34t-34 -14t-34 14zM481.5 869q-14.5 14 -14.5 34q0 19 14.5 33t34.5 14t34 -13.5t14 -33.5t-14 -34t-34 -14t-34.5 14z" />
    <glyph glyph-name="Ugrave" unicode="&#xd9;" horiz-adv-x="840" 
d="M279 7.5q-61 25.5 -99.5 79.5t-38.5 133v379q0 19 -6.5 26t-26.5 7q-24 0 -37.5 10t-13.5 25t11 25.5t31 10.5q14 0 36 -2q48 -3 71 -3q13 0 58 3q22 2 32 2q22 0 32.5 -10t10.5 -25q0 -16 -11 -25.5t-32 -9.5l-43 1q-17 0 -23.5 -8t-6.5 -24v-372q0 -86 54.5 -129.5
t141.5 -43.5q84 0 129.5 52t45.5 131l-1 370q0 12 -8 18t-22 6q-8 0 -17 -1t-24 -1q-18 0 -30.5 10t-12.5 25t11.5 25.5t35.5 10.5q12 0 38 -2q38 -4 76 -4q32 0 64 4q24 2 31 2q23 0 35.5 -10t12.5 -25q0 -16 -12 -25.5t-34 -9.5l-41 1q-17 0 -25.5 -7.5t-8.5 -23.5v-354
q0 -78 -30.5 -138.5t-87.5 -94.5t-134 -34q-70 0 -131 25.5zM303 904.5q-7 9.5 -7 20.5q0 16 11.5 26.5t27.5 10.5q8 0 18 -5l168 -94q11 -6 17 -14.5t6 -16.5q0 -11 -8 -17.5t-20 -6.5q-8 0 -15 3l-178 78q-13 6 -20 15.5z" />
    <glyph glyph-name="Uring" unicode="&#x16e;" horiz-adv-x="840" 
d="M279 7.5q-61 25.5 -99.5 79.5t-38.5 133v379q0 19 -6.5 26t-26.5 7q-24 0 -37.5 10t-13.5 25t11 25.5t31 10.5q14 0 36 -2q48 -3 71 -3q13 0 58 3q22 2 32 2q22 0 32.5 -10t10.5 -25q0 -16 -11 -25.5t-32 -9.5l-43 1q-17 0 -23.5 -8t-6.5 -24v-372q0 -86 54.5 -129.5
t141.5 -43.5q84 0 129.5 52t45.5 131l-1 370q0 12 -8 18t-22 6q-8 0 -17 -1t-24 -1q-18 0 -30.5 10t-12.5 25t11.5 25.5t35.5 10.5q12 0 38 -2q38 -4 76 -4q32 0 64 4q24 2 31 2q23 0 35.5 -10t12.5 -25q0 -16 -12 -25.5t-34 -9.5l-41 1q-17 0 -25.5 -7.5t-8.5 -23.5v-354
q0 -78 -30.5 -138.5t-87.5 -94.5t-134 -34q-70 0 -131 25.5zM349 809.5q-28 27.5 -28 65.5q0 40 28.5 68t72.5 28q43 0 70 -27t27 -66t-27 -67.5t-74 -28.5q-41 0 -69 27.5zM453.5 840.5q13.5 14.5 13.5 34.5q0 24 -13 39t-35 15q-18 0 -32 -16t-14 -35q0 -24 14 -38t33 -14
q20 0 33.5 14.5z" />
    <glyph glyph-name="V" unicode="V" horiz-adv-x="840" 
d="M384 11l-225 587q-8 22 -19.5 27.5t-41.5 5.5q-17 0 -30 10.5t-13 24.5q0 16 12 26t35 10q13 0 37 -2q30 -4 68 -4q30 0 60 4q24 2 32 2q19 0 29 -9.5t10 -25.5q0 -15 -11 -25t-32 -10l-39 1q-17 0 -17 -15q0 -8 4 -17l177 -455q8 -18 15 -18q9 0 13 16l155 458q3 8 3 14
q0 18 -21 18q-6 0 -13.5 -1t-17.5 -1q-18 0 -30.5 10t-12.5 25q0 16 11.5 26.5t35.5 10.5q16 0 31 -3q26 -4 66 -4q29 0 55 4q20 2 29 2q24 0 35.5 -10.5t11.5 -25.5q0 -14 -12.5 -24.5t-33.5 -10.5q-7 0 -17 1.5t-17 1.5q-15 0 -20.5 -6.5t-12.5 -25.5l-204 -592
q-11 -34 -42 -34q-29 0 -43 34z" />
    <glyph glyph-name="W" unicode="W" horiz-adv-x="1050" 
d="M340.5 -15.5q-6.5 6.5 -10.5 21.5l-172 605q-4 15 -15 18.5t-38 3.5q-17 0 -29.5 10t-12.5 24q0 15 10.5 25.5t31.5 10.5q13 0 37 -2q30 -4 67 -4q26 0 48 4q12 3 26 3q22 0 32.5 -9.5t10.5 -25.5q0 -15 -11 -25.5t-32 -10.5q-9 0 -14 0.5t-9 0.5q-21 0 -21 -15
q0 -6 1 -9l117 -420q5 -17 13 -17q9 0 14 18l121 412l2 12q0 23 -40 28q-12 2 -21 9.5t-9 20.5t9 21t24 8q16 0 24 -1l29 -1q17 0 29.5 1t21.5 1q17 0 27 -7.5t10 -21.5q0 -24 -29 -32q-10 -3 -13.5 -11.5t-1.5 -19.5l91 -439q1 -7 5 -11t8 -4q8 0 13 14l132 438l2 13
q0 13 -15 13l-35 -1q-20 0 -31.5 10.5t-11.5 25.5q0 16 10.5 25.5t32.5 9.5q16 0 31 -3q28 -4 58 -4q14 0 53 3q17 3 34 3q22 0 33 -9.5t11 -25.5t-12 -25.5t-30 -9.5q-26 0 -37.5 -4t-16.5 -19l-188 -604q-8 -28 -33 -28q-13 0 -22 8t-12 20l-104 447q-1 4 -3 6.5t-5 2.5
q-5 0 -8 -9l-133 -447q-9 -28 -27 -28q-10 0 -16.5 6.5z" />
    <glyph glyph-name="Wacute" unicode="&#x1e82;" horiz-adv-x="1050" 
d="M340.5 -15.5q-6.5 6.5 -10.5 21.5l-172 605q-4 15 -15 18.5t-38 3.5q-17 0 -29.5 10t-12.5 24q0 15 10.5 25.5t31.5 10.5q13 0 37 -2q30 -4 67 -4q26 0 48 4q12 3 26 3q22 0 32.5 -9.5t10.5 -25.5q0 -15 -11 -25.5t-32 -10.5q-9 0 -14 0.5t-9 0.5q-21 0 -21 -15
q0 -6 1 -9l117 -420q5 -17 13 -17q9 0 14 18l121 412l2 12q0 23 -40 28q-12 2 -21 9.5t-9 20.5t9 21t24 8q16 0 24 -1l29 -1q17 0 29.5 1t21.5 1q17 0 27 -7.5t10 -21.5q0 -24 -29 -32q-10 -3 -13.5 -11.5t-1.5 -19.5l91 -439q1 -7 5 -11t8 -4q8 0 13 14l132 438l2 13
q0 13 -15 13l-35 -1q-20 0 -31.5 10.5t-11.5 25.5q0 16 10.5 25.5t32.5 9.5q16 0 31 -3q28 -4 58 -4q14 0 53 3q17 3 34 3q22 0 33 -9.5t11 -25.5t-12 -25.5t-30 -9.5q-26 0 -37.5 -4t-16.5 -19l-188 -604q-8 -28 -33 -28q-13 0 -22 8t-12 20l-104 447q-1 4 -3 6.5t-5 2.5
q-5 0 -8 -9l-133 -447q-9 -28 -27 -28q-10 0 -16.5 6.5zM418 808q-11 0 -19.5 6.5t-8.5 17.5q0 8 6 16.5t17 14.5l168 94q8 4 18 4q11 0 21 -5.5t14 -14.5q4 -10 4 -16q0 -11 -7 -20.5t-20 -15.5l-178 -78q-7 -3 -15 -3z" />
    <glyph glyph-name="Wcircumflex" unicode="&#x174;" horiz-adv-x="1050" 
d="M340.5 -15.5q-6.5 6.5 -10.5 21.5l-172 605q-4 15 -15 18.5t-38 3.5q-17 0 -29.5 10t-12.5 24q0 15 10.5 25.5t31.5 10.5q13 0 37 -2q30 -4 67 -4q26 0 48 4q12 3 26 3q22 0 32.5 -9.5t10.5 -25.5q0 -15 -11 -25.5t-32 -10.5q-9 0 -14 0.5t-9 0.5q-21 0 -21 -15
q0 -6 1 -9l117 -420q5 -17 13 -17q9 0 14 18l121 412l2 12q0 23 -40 28q-12 2 -21 9.5t-9 20.5t9 21t24 8q16 0 24 -1l29 -1q17 0 29.5 1t21.5 1q17 0 27 -7.5t10 -21.5q0 -24 -29 -32q-10 -3 -13.5 -11.5t-1.5 -19.5l91 -439q1 -7 5 -11t8 -4q8 0 13 14l132 438l2 13
q0 13 -15 13l-35 -1q-20 0 -31.5 10.5t-11.5 25.5q0 16 10.5 25.5t32.5 9.5q16 0 31 -3q28 -4 58 -4q14 0 53 3q17 3 34 3q22 0 33 -9.5t11 -25.5t-12 -25.5t-30 -9.5q-26 0 -37.5 -4t-16.5 -19l-188 -604q-8 -28 -33 -28q-13 0 -22 8t-12 20l-104 447q-1 4 -3 6.5t-5 2.5
q-5 0 -8 -9l-133 -447q-9 -28 -27 -28q-10 0 -16.5 6.5zM397 840q0 11 8 22l88 116q15 18 30 18q16 0 31 -18l92 -116q7 -8 7 -22q0 -13 -7 -19q-6 -6 -16 -6q-15 0 -25 12l-65 68q-7 8 -16 8q-8 0 -16 -8l-63 -68q-11 -12 -24 -12q-8 0 -16 6q-8 8 -8 19z" />
    <glyph glyph-name="Wdieresis" unicode="&#x1e84;" horiz-adv-x="1050" 
d="M340.5 -15.5q-6.5 6.5 -10.5 21.5l-172 605q-4 15 -15 18.5t-38 3.5q-17 0 -29.5 10t-12.5 24q0 15 10.5 25.5t31.5 10.5q13 0 37 -2q30 -4 67 -4q26 0 48 4q12 3 26 3q22 0 32.5 -9.5t10.5 -25.5q0 -15 -11 -25.5t-32 -10.5q-9 0 -14 0.5t-9 0.5q-21 0 -21 -15
q0 -6 1 -9l117 -420q5 -17 13 -17q9 0 14 18l121 412l2 12q0 23 -40 28q-12 2 -21 9.5t-9 20.5t9 21t24 8q16 0 24 -1l29 -1q17 0 29.5 1t21.5 1q17 0 27 -7.5t10 -21.5q0 -24 -29 -32q-10 -3 -13.5 -11.5t-1.5 -19.5l91 -439q1 -7 5 -11t8 -4q8 0 13 14l132 438l2 13
q0 13 -15 13l-35 -1q-20 0 -31.5 10.5t-11.5 25.5q0 16 10.5 25.5t32.5 9.5q16 0 31 -3q28 -4 58 -4q14 0 53 3q17 3 34 3q22 0 33 -9.5t11 -25.5t-12 -25.5t-30 -9.5q-26 0 -37.5 -4t-16.5 -19l-188 -604q-8 -28 -33 -28q-13 0 -22 8t-12 20l-104 447q-1 4 -3 6.5t-5 2.5
q-5 0 -8 -9l-133 -447q-9 -28 -27 -28q-10 0 -16.5 6.5zM395 869q-14 14 -14 34t14 33.5t34 13.5t34 -13.5t14 -33.5t-14 -34t-34 -14t-34 14zM586.5 869q-14.5 14 -14.5 34q0 19 14.5 33t34.5 14t34 -13.5t14 -33.5t-14 -34t-34 -14t-34.5 14z" />
    <glyph glyph-name="Wgrave" unicode="&#x1e80;" horiz-adv-x="1050" 
d="M340.5 -15.5q-6.5 6.5 -10.5 21.5l-172 605q-4 15 -15 18.5t-38 3.5q-17 0 -29.5 10t-12.5 24q0 15 10.5 25.5t31.5 10.5q13 0 37 -2q30 -4 67 -4q26 0 48 4q12 3 26 3q22 0 32.5 -9.5t10.5 -25.5q0 -15 -11 -25.5t-32 -10.5q-9 0 -14 0.5t-9 0.5q-21 0 -21 -15
q0 -6 1 -9l117 -420q5 -17 13 -17q9 0 14 18l121 412l2 12q0 23 -40 28q-12 2 -21 9.5t-9 20.5t9 21t24 8q16 0 24 -1l29 -1q17 0 29.5 1t21.5 1q17 0 27 -7.5t10 -21.5q0 -24 -29 -32q-10 -3 -13.5 -11.5t-1.5 -19.5l91 -439q1 -7 5 -11t8 -4q8 0 13 14l132 438l2 13
q0 13 -15 13l-35 -1q-20 0 -31.5 10.5t-11.5 25.5q0 16 10.5 25.5t32.5 9.5q16 0 31 -3q28 -4 58 -4q14 0 53 3q17 3 34 3q22 0 33 -9.5t11 -25.5t-12 -25.5t-30 -9.5q-26 0 -37.5 -4t-16.5 -19l-188 -604q-8 -28 -33 -28q-13 0 -22 8t-12 20l-104 447q-1 4 -3 6.5t-5 2.5
q-5 0 -8 -9l-133 -447q-9 -28 -27 -28q-10 0 -16.5 6.5zM408 904.5q-7 9.5 -7 20.5q0 16 11.5 26.5t27.5 10.5q8 0 18 -5l168 -94q11 -6 17 -14.5t6 -16.5q0 -11 -8 -17.5t-20 -6.5q-8 0 -15 3l-178 78q-13 6 -20 15.5z" />
    <glyph glyph-name="X" unicode="X" horiz-adv-x="840" 
d="M274 -1q-32 4 -63 4q-36 0 -78 -4q-32 -2 -46 -2q-20 0 -31 10t-11 26q0 14 12 24.5t29 10.5q27 0 42 3.5t24 13.5l225 262q4 4 4 10q0 5 -4 9l-207 242q-14 16 -26 20.5t-35 4.5t-35 10t-12 26q0 14 11.5 24t30.5 10q13 0 35 -2q28 -4 60 -4q10 0 52 3q16 3 33 3
q43 0 43 -34q0 -15 -11 -25.5t-32 -10.5q-8 0 -13 0.5t-12 0.5q-13 0 -13 -8q0 -7 7 -14l58 -65l111 -125q5 -5 8 -5q6 0 12 8q82 96 158 188q4 4 4 9t-3.5 8t-10.5 3l-28 -1q-21 0 -32 10.5t-11 25.5q0 16 11.5 25.5t31.5 9.5q18 0 34 -3q28 -4 51 -4q32 0 60 4q22 2 35 2
q42 0 42 -33q0 -15 -12.5 -25.5t-29.5 -10.5q-26 0 -43.5 -6.5t-29.5 -21.5q-62 -76 -185 -225q-5 -6 -5 -14q0 -9 5 -14l159 -186l73 -85q7 -8 16 -11t23 -3q17 0 28 -9.5t11 -24.5t-10.5 -25.5t-31.5 -10.5q-12 0 -40 2q-32 4 -65 4q-8 0 -50 -3q-30 -4 -52 -4
q-56 0 -56 36q0 15 13.5 25.5t42.5 10.5q25 0 39 -1t22 -1q16 0 16 9q0 6 -5 11l-177 211q-6 7 -13 7q-5 0 -10 -5q-114 -135 -179 -210q-6 -7 -6 -12q0 -11 18 -11l56 2q20 0 32 -11t12 -25q0 -16 -10.5 -26t-32.5 -10q-15 0 -33 3z" />
    <glyph glyph-name="Y" unicode="Y" horiz-adv-x="840" 
d="M501 -1q-50 4 -86 4t-86 -4l-48 -2q-23 0 -35 9.5t-12 25.5t12.5 26t30.5 10l47 -1q12 -1 29 -1q27 0 27 27l2 210q0 17 -10 33l-190 268q-13 17 -26.5 22.5t-41.5 5.5q-17 0 -29.5 11t-12.5 25q0 34 42 34q15 0 41 -2q22 -3 54 -3q12 0 26 1.5t21 1.5q19 3 38 3
q43 0 43 -35q0 -14 -11.5 -24.5t-31.5 -10.5l-31 1q-11 0 -11 -8q0 -4 5 -12l162 -229q6 -8 13 -8t11 7l152 232q3 6 3 10q0 8 -12 8l-41 -1q-20 0 -31.5 10.5t-11.5 24.5q0 16 11.5 25.5t31.5 9.5q17 0 32 -3q28 -4 53 -4q9 0 54 3q20 3 41 3t31.5 -9t10.5 -25
q0 -14 -12.5 -25t-29.5 -11q-29 0 -46 -5.5t-28 -21.5l-182 -274q-13 -22 -13 -41l2 -193q1 -16 9 -23t25 -7l52 1q22 0 34 -9.5t12 -26.5q0 -16 -12.5 -26t-35.5 -10q-15 0 -41 3z" />
    <glyph glyph-name="Yacute" unicode="&#xdd;" horiz-adv-x="840" 
d="M501 -1q-50 4 -86 4t-86 -4l-48 -2q-23 0 -35 9.5t-12 25.5t12.5 26t30.5 10l47 -1q12 -1 29 -1q27 0 27 27l2 210q0 17 -10 33l-190 268q-13 17 -26.5 22.5t-41.5 5.5q-17 0 -29.5 11t-12.5 25q0 34 42 34q15 0 41 -2q22 -3 54 -3q12 0 26 1.5t21 1.5q19 3 38 3
q43 0 43 -35q0 -14 -11.5 -24.5t-31.5 -10.5l-31 1q-11 0 -11 -8q0 -4 5 -12l162 -229q6 -8 13 -8t11 7l152 232q3 6 3 10q0 8 -12 8l-41 -1q-20 0 -31.5 10.5t-11.5 24.5q0 16 11.5 25.5t31.5 9.5q17 0 32 -3q28 -4 53 -4q9 0 54 3q20 3 41 3t31.5 -9t10.5 -25
q0 -14 -12.5 -25t-29.5 -11q-29 0 -46 -5.5t-28 -21.5l-182 -274q-13 -22 -13 -41l2 -193q1 -16 9 -23t25 -7l52 1q22 0 34 -9.5t12 -26.5q0 -16 -12.5 -26t-35.5 -10q-15 0 -41 3zM319 808q-11 0 -19.5 6.5t-8.5 17.5q0 8 6 16.5t17 14.5l168 94q8 4 18 4q11 0 21 -5.5
t14 -14.5q4 -10 4 -16q0 -11 -7 -20.5t-20 -15.5l-178 -78q-7 -3 -15 -3z" />
    <glyph glyph-name="Ycircumflex" unicode="&#x176;" horiz-adv-x="840" 
d="M501 -1q-50 4 -86 4t-86 -4l-48 -2q-23 0 -35 9.5t-12 25.5t12.5 26t30.5 10l47 -1q12 -1 29 -1q27 0 27 27l2 210q0 17 -10 33l-190 268q-13 17 -26.5 22.5t-41.5 5.5q-17 0 -29.5 11t-12.5 25q0 34 42 34q15 0 41 -2q22 -3 54 -3q12 0 26 1.5t21 1.5q19 3 38 3
q43 0 43 -35q0 -14 -11.5 -24.5t-31.5 -10.5l-31 1q-11 0 -11 -8q0 -4 5 -12l162 -229q6 -8 13 -8t11 7l152 232q3 6 3 10q0 8 -12 8l-41 -1q-20 0 -31.5 10.5t-11.5 24.5q0 16 11.5 25.5t31.5 9.5q17 0 32 -3q28 -4 53 -4q9 0 54 3q20 3 41 3t31.5 -9t10.5 -25
q0 -14 -12.5 -25t-29.5 -11q-29 0 -46 -5.5t-28 -21.5l-182 -274q-13 -22 -13 -41l2 -193q1 -16 9 -23t25 -7l52 1q22 0 34 -9.5t12 -26.5q0 -16 -12.5 -26t-35.5 -10q-15 0 -41 3zM298 840q0 11 8 22l88 116q15 18 30 18q16 0 31 -18l92 -116q7 -8 7 -22q0 -13 -7 -19
q-6 -6 -16 -6q-15 0 -25 12l-65 68q-7 8 -16 8q-8 0 -16 -8l-63 -68q-11 -12 -24 -12q-8 0 -16 6q-8 8 -8 19z" />
    <glyph glyph-name="Ydieresis" unicode="&#x178;" horiz-adv-x="840" 
d="M501 -1q-50 4 -86 4t-86 -4l-48 -2q-23 0 -35 9.5t-12 25.5t12.5 26t30.5 10l47 -1q12 -1 29 -1q27 0 27 27l2 210q0 17 -10 33l-190 268q-13 17 -26.5 22.5t-41.5 5.5q-17 0 -29.5 11t-12.5 25q0 34 42 34q15 0 41 -2q22 -3 54 -3q12 0 26 1.5t21 1.5q19 3 38 3
q43 0 43 -35q0 -14 -11.5 -24.5t-31.5 -10.5l-31 1q-11 0 -11 -8q0 -4 5 -12l162 -229q6 -8 13 -8t11 7l152 232q3 6 3 10q0 8 -12 8l-41 -1q-20 0 -31.5 10.5t-11.5 24.5q0 16 11.5 25.5t31.5 9.5q17 0 32 -3q28 -4 53 -4q9 0 54 3q20 3 41 3t31.5 -9t10.5 -25
q0 -14 -12.5 -25t-29.5 -11q-29 0 -46 -5.5t-28 -21.5l-182 -274q-13 -22 -13 -41l2 -193q1 -16 9 -23t25 -7l52 1q22 0 34 -9.5t12 -26.5q0 -16 -12.5 -26t-35.5 -10q-15 0 -41 3zM296 869q-14 14 -14 34t14 33.5t34 13.5t34 -13.5t14 -33.5t-14 -34t-34 -14t-34 14z
M487.5 869q-14.5 14 -14.5 34q0 19 14.5 33t34.5 14t34 -13.5t14 -33.5t-14 -34t-34 -14t-34.5 14z" />
    <glyph glyph-name="Ygrave" unicode="&#x1ef2;" horiz-adv-x="840" 
d="M501 -1q-50 4 -86 4t-86 -4l-48 -2q-23 0 -35 9.5t-12 25.5t12.5 26t30.5 10l47 -1q12 -1 29 -1q27 0 27 27l2 210q0 17 -10 33l-190 268q-13 17 -26.5 22.5t-41.5 5.5q-17 0 -29.5 11t-12.5 25q0 34 42 34q15 0 41 -2q22 -3 54 -3q12 0 26 1.5t21 1.5q19 3 38 3
q43 0 43 -35q0 -14 -11.5 -24.5t-31.5 -10.5l-31 1q-11 0 -11 -8q0 -4 5 -12l162 -229q6 -8 13 -8t11 7l152 232q3 6 3 10q0 8 -12 8l-41 -1q-20 0 -31.5 10.5t-11.5 24.5q0 16 11.5 25.5t31.5 9.5q17 0 32 -3q28 -4 53 -4q9 0 54 3q20 3 41 3t31.5 -9t10.5 -25
q0 -14 -12.5 -25t-29.5 -11q-29 0 -46 -5.5t-28 -21.5l-182 -274q-13 -22 -13 -41l2 -193q1 -16 9 -23t25 -7l52 1q22 0 34 -9.5t12 -26.5q0 -16 -12.5 -26t-35.5 -10q-15 0 -41 3zM309 904.5q-7 9.5 -7 20.5q0 16 11.5 26.5t27.5 10.5q8 0 18 -5l168 -94q11 -6 17 -14.5
t6 -16.5q0 -11 -8 -17.5t-20 -6.5q-8 0 -15 3l-178 78q-13 6 -20 15.5z" />
    <glyph glyph-name="Z" unicode="Z" horiz-adv-x="840" 
d="M112 9.5q-11 9.5 -11 25.5q0 14 6.5 25t22.5 31q70 90 228 283q23 28 128 153q25 31 77 93q4 5 4 10t-4.5 8t-11.5 3l-24 -1q-90 -3 -107 -3l-152 1q-14 0 -23.5 -8t-16.5 -24q-4 -11 -7 -25q-9 -32 -15 -46t-14 -20.5t-21 -6.5q-9 0 -15.5 7t-6.5 19q0 16 3 47t6 52
q6 38 13.5 52.5t28.5 14.5q28 0 90 -2q55 -3 132 -3q82 0 170 4l47 1q17 0 26.5 -10t9.5 -26t-10 -29q-31 -40 -106 -132q-25 -31 -56.5 -70.5t-69.5 -87.5q-108 -137 -197 -259q-4 -5 -4 -11q0 -7 5 -11t14 -4l339 3q35 0 44 19q4 9 23 55q14 38 23 56q10 20 18 26t18 6
t16.5 -7.5t6.5 -20.5q0 -6 -5 -46l-4 -24q-2 -20 -4 -30q-4 -44 -12 -67q-7 -18 -26.5 -24t-56.5 -6q-34 0 -72 1t-73 2q-81 3 -133 3q-45 0 -141 -4l-71 -2q-18 0 -29 9.5z" />
    <glyph glyph-name="Zacute" unicode="&#x179;" horiz-adv-x="840" 
d="M112 9.5q-11 9.5 -11 25.5q0 14 6.5 25t22.5 31q70 90 228 283q23 28 128 153q25 31 77 93q4 5 4 10t-4.5 8t-11.5 3l-24 -1q-90 -3 -107 -3l-152 1q-14 0 -23.5 -8t-16.5 -24q-4 -11 -7 -25q-9 -32 -15 -46t-14 -20.5t-21 -6.5q-9 0 -15.5 7t-6.5 19q0 16 3 47t6 52
q6 38 13.5 52.5t28.5 14.5q28 0 90 -2q55 -3 132 -3q82 0 170 4l47 1q17 0 26.5 -10t9.5 -26t-10 -29q-31 -40 -106 -132q-25 -31 -56.5 -70.5t-69.5 -87.5q-108 -137 -197 -259q-4 -5 -4 -11q0 -7 5 -11t14 -4l339 3q35 0 44 19q4 9 23 55q14 38 23 56q10 20 18 26t18 6
t16.5 -7.5t6.5 -20.5q0 -6 -5 -46l-4 -24q-2 -20 -4 -30q-4 -44 -12 -67q-7 -18 -26.5 -24t-56.5 -6q-34 0 -72 1t-73 2q-81 3 -133 3q-45 0 -141 -4l-71 -2q-18 0 -29 9.5zM313 808q-11 0 -19.5 6.5t-8.5 17.5q0 8 6 16.5t17 14.5l168 94q8 4 18 4q11 0 21 -5.5t14 -14.5
q4 -10 4 -16q0 -11 -7 -20.5t-20 -15.5l-178 -78q-7 -3 -15 -3z" />
    <glyph glyph-name="Zcaron" unicode="&#x17d;" horiz-adv-x="840" 
d="M112 9.5q-11 9.5 -11 25.5q0 14 6.5 25t22.5 31q70 90 228 283q23 28 128 153q25 31 77 93q4 5 4 10t-4.5 8t-11.5 3l-24 -1q-90 -3 -107 -3l-152 1q-14 0 -23.5 -8t-16.5 -24q-4 -11 -7 -25q-9 -32 -15 -46t-14 -20.5t-21 -6.5q-9 0 -15.5 7t-6.5 19q0 16 3 47t6 52
q6 38 13.5 52.5t28.5 14.5q28 0 90 -2q55 -3 132 -3q82 0 170 4l47 1q17 0 26.5 -10t9.5 -26t-10 -29q-31 -40 -106 -132q-25 -31 -56.5 -70.5t-69.5 -87.5q-108 -137 -197 -259q-4 -5 -4 -11q0 -7 5 -11t14 -4l339 3q35 0 44 19q4 9 23 55q14 38 23 56q10 20 18 26t18 6
t16.5 -7.5t6.5 -20.5q0 -6 -5 -46l-4 -24q-2 -20 -4 -30q-4 -44 -12 -67q-7 -18 -26.5 -24t-56.5 -6q-34 0 -72 1t-73 2q-81 3 -133 3q-45 0 -141 -4l-71 -2q-18 0 -29 9.5zM292 970q0 13 7 19q6 6 16 6q14 0 25 -12l65 -68q7 -8 16 -8q8 0 16 8l63 68q11 12 24 12
q9 0 16 -6q8 -8 8 -19t-8 -22l-88 -116q-15 -18 -30 -18q-16 0 -31 18l-92 116q-7 8 -7 22z" />
    <glyph glyph-name="Zdotaccent" unicode="&#x17b;" horiz-adv-x="840" 
d="M112 9.5q-11 9.5 -11 25.5q0 14 6.5 25t22.5 31q70 90 228 283q23 28 128 153q25 31 77 93q4 5 4 10t-4.5 8t-11.5 3l-24 -1q-90 -3 -107 -3l-152 1q-14 0 -23.5 -8t-16.5 -24q-4 -11 -7 -25q-9 -32 -15 -46t-14 -20.5t-21 -6.5q-9 0 -15.5 7t-6.5 19q0 16 3 47t6 52
q6 38 13.5 52.5t28.5 14.5q28 0 90 -2q55 -3 132 -3q82 0 170 4l47 1q17 0 26.5 -10t9.5 -26t-10 -29q-31 -40 -106 -132q-25 -31 -56.5 -70.5t-69.5 -87.5q-108 -137 -197 -259q-4 -5 -4 -11q0 -7 5 -11t14 -4l339 3q35 0 44 19q4 9 23 55q14 38 23 56q10 20 18 26t18 6
t16.5 -7.5t6.5 -20.5q0 -6 -5 -46l-4 -24q-2 -20 -4 -30q-4 -44 -12 -67q-7 -18 -26.5 -24t-56.5 -6q-34 0 -72 1t-73 2q-81 3 -133 3q-45 0 -141 -4l-71 -2q-18 0 -29 9.5zM386 869q-14 14 -14 34t14 33.5t34 13.5t34 -13.5t14 -33.5t-14 -34t-34 -14t-34 14z" />
    <glyph glyph-name="a" unicode="a" 
d="M106.5 29q-37.5 33 -37.5 89q0 91 96 131q47 19 155 29l33 4q25 4 25 33v9q0 42 -27 66t-71 24q-32 0 -62 -13.5t-50 -31.5q-22 -20 -44 -20q-17 0 -28 10.5t-11 27.5q0 39 58 63.5t127 24.5q79 0 130.5 -39.5t51.5 -104.5v-231q0 -16 9.5 -24.5t20.5 -8.5q18 0 34 27
q12 21 33 21q15 0 24 -9.5t9 -24.5q0 -34 -31 -59.5t-70 -25.5q-33 0 -54 9.5t-38 32.5q-3 5 -8 5q-3 0 -9 -4q-30 -18 -74 -30.5t-90 -12.5q-64 0 -101.5 33zM302.5 77q36.5 12 52.5 21q23 14 23 49v59q0 26 -32 26q-38 0 -80 -8.5t-67 -22.5q-51 -28 -51 -78
q0 -26 19.5 -42t56.5 -16q42 0 78.5 12z" />
    <glyph glyph-name="aacute" unicode="&#xe1;" 
d="M106.5 29q-37.5 33 -37.5 89q0 91 96 131q47 19 155 29l33 4q25 4 25 33v9q0 42 -27 66t-71 24q-32 0 -62 -13.5t-50 -31.5q-22 -20 -44 -20q-17 0 -28 10.5t-11 27.5q0 39 58 63.5t127 24.5q79 0 130.5 -39.5t51.5 -104.5v-231q0 -16 9.5 -24.5t20.5 -8.5q18 0 34 27
q12 21 33 21q15 0 24 -9.5t9 -24.5q0 -34 -31 -59.5t-70 -25.5q-33 0 -54 9.5t-38 32.5q-3 5 -8 5q-3 0 -9 -4q-30 -18 -74 -30.5t-90 -12.5q-64 0 -101.5 33zM302.5 77q36.5 12 52.5 21q23 14 23 49v59q0 26 -32 26q-38 0 -80 -8.5t-67 -22.5q-51 -28 -51 -78
q0 -26 19.5 -42t56.5 -16q42 0 78.5 12zM166 578q-11 0 -19.5 6.5t-8.5 17.5q0 8 6 16.5t17 14.5l168 94q8 4 18 4q11 0 21 -5.5t14 -14.5q4 -10 4 -16q0 -11 -7 -20.5t-20 -15.5l-178 -78q-7 -3 -15 -3z" />
    <glyph glyph-name="acircumflex" unicode="&#xe2;" 
d="M106.5 29q-37.5 33 -37.5 89q0 91 96 131q47 19 155 29l33 4q25 4 25 33v9q0 42 -27 66t-71 24q-32 0 -62 -13.5t-50 -31.5q-22 -20 -44 -20q-17 0 -28 10.5t-11 27.5q0 39 58 63.5t127 24.5q79 0 130.5 -39.5t51.5 -104.5v-231q0 -16 9.5 -24.5t20.5 -8.5q18 0 34 27
q12 21 33 21q15 0 24 -9.5t9 -24.5q0 -34 -31 -59.5t-70 -25.5q-33 0 -54 9.5t-38 32.5q-3 5 -8 5q-3 0 -9 -4q-30 -18 -74 -30.5t-90 -12.5q-64 0 -101.5 33zM302.5 77q36.5 12 52.5 21q23 14 23 49v59q0 26 -32 26q-38 0 -80 -8.5t-67 -22.5q-51 -28 -51 -78
q0 -26 19.5 -42t56.5 -16q42 0 78.5 12zM145 610q0 11 8 22l88 116q15 18 30 18q16 0 31 -18l92 -116q7 -8 7 -22q0 -13 -7 -19q-6 -6 -16 -6q-15 0 -25 12l-65 68q-7 8 -16 8q-8 0 -16 -8l-63 -68q-11 -12 -24 -12q-8 0 -16 6q-8 8 -8 19z" />
    <glyph glyph-name="adieresis" unicode="&#xe4;" 
d="M106.5 29q-37.5 33 -37.5 89q0 91 96 131q47 19 155 29l33 4q25 4 25 33v9q0 42 -27 66t-71 24q-32 0 -62 -13.5t-50 -31.5q-22 -20 -44 -20q-17 0 -28 10.5t-11 27.5q0 39 58 63.5t127 24.5q79 0 130.5 -39.5t51.5 -104.5v-231q0 -16 9.5 -24.5t20.5 -8.5q18 0 34 27
q12 21 33 21q15 0 24 -9.5t9 -24.5q0 -34 -31 -59.5t-70 -25.5q-33 0 -54 9.5t-38 32.5q-3 5 -8 5q-3 0 -9 -4q-30 -18 -74 -30.5t-90 -12.5q-64 0 -101.5 33zM302.5 77q36.5 12 52.5 21q23 14 23 49v59q0 26 -32 26q-38 0 -80 -8.5t-67 -22.5q-51 -28 -51 -78
q0 -26 19.5 -42t56.5 -16q42 0 78.5 12zM143 639q-14 14 -14 34t14 33.5t34 13.5t34 -13.5t14 -33.5t-14 -34t-34 -14t-34 14zM334.5 639q-14.5 14 -14.5 34q0 19 14.5 33t34.5 14t34 -13.5t14 -33.5t-14 -34t-34 -14t-34.5 14z" />
    <glyph glyph-name="agrave" unicode="&#xe0;" 
d="M106.5 29q-37.5 33 -37.5 89q0 91 96 131q47 19 155 29l33 4q25 4 25 33v9q0 42 -27 66t-71 24q-32 0 -62 -13.5t-50 -31.5q-22 -20 -44 -20q-17 0 -28 10.5t-11 27.5q0 39 58 63.5t127 24.5q79 0 130.5 -39.5t51.5 -104.5v-231q0 -16 9.5 -24.5t20.5 -8.5q18 0 34 27
q12 21 33 21q15 0 24 -9.5t9 -24.5q0 -34 -31 -59.5t-70 -25.5q-33 0 -54 9.5t-38 32.5q-3 5 -8 5q-3 0 -9 -4q-30 -18 -74 -30.5t-90 -12.5q-64 0 -101.5 33zM302.5 77q36.5 12 52.5 21q23 14 23 49v59q0 26 -32 26q-38 0 -80 -8.5t-67 -22.5q-51 -28 -51 -78
q0 -26 19.5 -42t56.5 -16q42 0 78.5 12zM156 674.5q-7 9.5 -7 20.5q0 16 11.5 26.5t27.5 10.5q8 0 18 -5l168 -94q11 -6 17 -14.5t6 -16.5q0 -11 -8 -17.5t-20 -6.5q-8 0 -15 3l-178 78q-13 6 -20 15.5z" />
    <glyph glyph-name="aring" unicode="&#xe5;" 
d="M106.5 29q-37.5 33 -37.5 89q0 91 96 131q47 19 155 29l33 4q25 4 25 33v9q0 42 -27 66t-71 24q-32 0 -62 -13.5t-50 -31.5q-22 -20 -44 -20q-17 0 -28 10.5t-11 27.5q0 39 58 63.5t127 24.5q79 0 130.5 -39.5t51.5 -104.5v-231q0 -16 9.5 -24.5t20.5 -8.5q18 0 34 27
q12 21 33 21q15 0 24 -9.5t9 -24.5q0 -34 -31 -59.5t-70 -25.5q-33 0 -54 9.5t-38 32.5q-3 5 -8 5q-3 0 -9 -4q-30 -18 -74 -30.5t-90 -12.5q-64 0 -101.5 33zM302.5 77q36.5 12 52.5 21q23 14 23 49v59q0 26 -32 26q-38 0 -80 -8.5t-67 -22.5q-51 -28 -51 -78
q0 -26 19.5 -42t56.5 -16q42 0 78.5 12zM202 579.5q-28 27.5 -28 65.5q0 40 28.5 68t72.5 28q43 0 70 -27t27 -66t-27 -67.5t-74 -28.5q-41 0 -69 27.5zM306.5 610.5q13.5 14.5 13.5 34.5q0 24 -13 39t-35 15q-18 0 -32 -16t-14 -35q0 -24 14 -38t33 -14q20 0 33.5 14.5z
" />
    <glyph glyph-name="atilde" unicode="&#xe3;" 
d="M106.5 29q-37.5 33 -37.5 89q0 91 96 131q47 19 155 29l33 4q25 4 25 33v9q0 42 -27 66t-71 24q-32 0 -62 -13.5t-50 -31.5q-22 -20 -44 -20q-17 0 -28 10.5t-11 27.5q0 39 58 63.5t127 24.5q79 0 130.5 -39.5t51.5 -104.5v-231q0 -16 9.5 -24.5t20.5 -8.5q18 0 34 27
q12 21 33 21q15 0 24 -9.5t9 -24.5q0 -34 -31 -59.5t-70 -25.5q-33 0 -54 9.5t-38 32.5q-3 5 -8 5q-3 0 -9 -4q-30 -18 -74 -30.5t-90 -12.5q-64 0 -101.5 33zM302.5 77q36.5 12 52.5 21q23 14 23 49v59q0 26 -32 26q-38 0 -80 -8.5t-67 -22.5q-51 -28 -51 -78
q0 -26 19.5 -42t56.5 -16q42 0 78.5 12zM269 621q-26 15 -52 15q-24 0 -43 -14q-12 -8 -21 -8q-7 0 -15 5q-10 7 -10 19q0 10 6 19q10 18 35.5 33t51.5 15q35 0 64 -19q22 -15 45 -15q19 0 32.5 9.5t15.5 11.5q10 5 16 5q9 0 16 -7q6 -6 6 -17q0 -13 -9 -26q-29 -44 -80 -44
q-29 0 -58 18z" />
    <glyph glyph-name="ae" unicode="&#xe6;" horiz-adv-x="840" 
d="M405 42q-6 6 -13 6q-6 0 -11 -4q-33 -23 -80 -35.5t-93 -12.5q-37 0 -69 16.5t-51 44t-19 60.5q0 45 21.5 77t74.5 54q51 21 116 28t71 8q13 1 18 13.5t5 43.5q0 39 -26 60t-69 21q-34 0 -62 -14t-46 -33q-18 -18 -46 -18q-21 0 -33 11.5t-12 29.5q0 25 29.5 44.5
t73.5 30t86 10.5q46 0 85 -15.5t63 -42.5q55 50 142 50q47 0 88 -24t66 -62.5t25 -79.5q0 -20 -10 -30q-15 -15 -136 -23l-25 -2q-84 -5 -99 -8q-20 -3 -20 -22q0 -51 6 -83t27.5 -52t65.5 -20q39 0 70.5 11t49.5 31q2 2 10.5 12t19.5 17.5t21 7.5q16 0 26.5 -10t10.5 -27
q0 -16 -10 -27t-11 -12q-30 -36 -81 -56.5t-112 -20.5q-90 0 -137 47zM634 333q0 8 -3 17q-9 28 -32.5 45.5t-56.5 17.5q-40 0 -66.5 -20t-26.5 -49q0 -31 2.5 -40.5t14.5 -8.5l149 17q19 3 19 21zM303.5 78q37.5 13 55.5 24q16 9 16 45v58q0 15 -7 22t-23 7
q-29 0 -73.5 -10.5t-72.5 -26.5q-25 -14 -37.5 -33t-12.5 -40q0 -28 19 -43.5t56 -15.5q42 0 79.5 13z" />
    <glyph glyph-name="b" unicode="b" 
d="M272.5 11.5q-35.5 17.5 -58.5 44.5q-5 5 -9 5q-7 0 -9 -9q-6 -25 -19.5 -39t-32.5 -14q-20 0 -31.5 11.5t-11.5 33.5q0 15 11 39q7 15 11 26.5t4 28.5v447q0 19 -7 27t-24 8t-26.5 8.5t-9.5 23.5q0 11 8 19t20 9q64 8 90 8q23 0 23 -22v-222q0 -15 8 -15q4 0 11 5
q27 21 64.5 32.5t79.5 11.5q48 0 92 -30.5t71 -85t27 -122.5q0 -72 -29.5 -128.5t-76 -87t-93.5 -30.5t-82.5 17.5zM433.5 109q37.5 44 37.5 126q0 53 -18.5 94t-50.5 63t-70 22q-34 0 -62.5 -10t-56.5 -34q-12 -10 -12 -34v-168q0 -24 9 -36q22 -31 54.5 -49t66.5 -18
q65 0 102.5 44z" />
    <glyph glyph-name="c" unicode="c" 
d="M210 24q-59 29 -94 84.5t-35 130.5q0 64 30.5 118t88.5 86t138 32q56 0 100.5 -15.5t69.5 -39.5t25 -48q0 -22 -13 -35.5t-33 -13.5q-21 0 -33.5 11t-22.5 27q-2 3 -9 18t-31.5 25.5t-66.5 10.5q-48 0 -85.5 -23t-58.5 -64t-21 -93q0 -49 25 -87.5t67.5 -59.5t91.5 -21
q44 0 65.5 9t38.5 26l15 17.5t17.5 16.5t19.5 6q20 0 31.5 -11t11.5 -29q0 -11 -7 -24.5t-15 -21.5q-61 -61 -182 -61q-69 0 -128 29z" />
    <glyph glyph-name="cacute" unicode="&#x107;" 
d="M210 24q-59 29 -94 84.5t-35 130.5q0 64 30.5 118t88.5 86t138 32q56 0 100.5 -15.5t69.5 -39.5t25 -48q0 -22 -13 -35.5t-33 -13.5q-21 0 -33.5 11t-22.5 27q-2 3 -9 18t-31.5 25.5t-66.5 10.5q-48 0 -85.5 -23t-58.5 -64t-21 -93q0 -49 25 -87.5t67.5 -59.5t91.5 -21
q44 0 65.5 9t38.5 26l15 17.5t17.5 16.5t19.5 6q20 0 31.5 -11t11.5 -29q0 -11 -7 -24.5t-15 -21.5q-61 -61 -182 -61q-69 0 -128 29zM208 578q-11 0 -19.5 6.5t-8.5 17.5q0 8 6 16.5t17 14.5l168 94q8 4 18 4q11 0 21 -5.5t14 -14.5q4 -10 4 -16q0 -11 -7 -20.5t-20 -15.5
l-178 -78q-7 -3 -15 -3z" />
    <glyph glyph-name="ccaron" unicode="&#x10d;" 
d="M210 24q-59 29 -94 84.5t-35 130.5q0 64 30.5 118t88.5 86t138 32q56 0 100.5 -15.5t69.5 -39.5t25 -48q0 -22 -13 -35.5t-33 -13.5q-21 0 -33.5 11t-22.5 27q-2 3 -9 18t-31.5 25.5t-66.5 10.5q-48 0 -85.5 -23t-58.5 -64t-21 -93q0 -49 25 -87.5t67.5 -59.5t91.5 -21
q44 0 65.5 9t38.5 26l15 17.5t17.5 16.5t19.5 6q20 0 31.5 -11t11.5 -29q0 -11 -7 -24.5t-15 -21.5q-61 -61 -182 -61q-69 0 -128 29zM187 740q0 13 7 19q6 6 16 6q14 0 25 -12l65 -68q7 -8 16 -8q8 0 16 8l63 68q11 12 24 12q9 0 16 -6q8 -8 8 -19t-8 -22l-88 -116
q-15 -18 -30 -18q-16 0 -31 18l-92 116q-7 8 -7 22z" />
    <glyph glyph-name="ccedilla" unicode="&#xe7;" 
d="M281.5 -210q-27.5 7 -47.5 18q-17 11 -17 25q0 4 4 12q7 11 22 11q9 0 21 -5q32 -15 63 -15q21 0 36 12.5t15 31.5q0 10 -9 16t-28 6l-27 -1q-9 -1 -23 -1q-19 0 -31 8.5t-12 24.5q0 17 19 43q8 10 8 16q0 9 -17 14q-79 22 -128 83t-49 150q0 64 30.5 118t88.5 86t138 32
q56 0 100.5 -15.5t69.5 -39.5t25 -48q0 -22 -13 -35.5t-33 -13.5q-21 0 -33.5 11t-22.5 27q-2 3 -9 18t-31.5 25.5t-66.5 10.5q-48 0 -85.5 -23t-58.5 -64t-21 -93q0 -49 25 -87.5t67.5 -59.5t91.5 -21q44 0 65.5 9t38.5 26l15 17.5t17.5 16.5t19.5 6q20 0 31.5 -11
t11.5 -29q0 -11 -7 -24.5t-15 -21.5q-56 -56 -159 -61q-12 -1 -18 -8t-11 -19q-1 -2 -1 -5q0 -10 22 -10q51 0 74.5 -19t23.5 -49q0 -44 -34 -73t-80 -29q-28 0 -55.5 7z" />
    <glyph glyph-name="cdotaccent" unicode="&#x10b;" 
d="M210 24q-59 29 -94 84.5t-35 130.5q0 64 30.5 118t88.5 86t138 32q56 0 100.5 -15.5t69.5 -39.5t25 -48q0 -22 -13 -35.5t-33 -13.5q-21 0 -33.5 11t-22.5 27q-2 3 -9 18t-31.5 25.5t-66.5 10.5q-48 0 -85.5 -23t-58.5 -64t-21 -93q0 -49 25 -87.5t67.5 -59.5t91.5 -21
q44 0 65.5 9t38.5 26l15 17.5t17.5 16.5t19.5 6q20 0 31.5 -11t11.5 -29q0 -11 -7 -24.5t-15 -21.5q-61 -61 -182 -61q-69 0 -128 29zM281 639q-14 14 -14 34t14 33.5t34 13.5t34 -13.5t14 -33.5t-14 -34t-34 -14t-34 14z" />
    <glyph glyph-name="d" unicode="d" 
d="M170.5 30q-51.5 30 -82.5 84.5t-31 125.5q0 63 30.5 117t80 85.5t104.5 31.5q63 0 123 -47q6 -5 12 -5q11 0 11 21v145q0 27 -24 27h-75q-14 0 -25.5 9t-11.5 23q0 16 12 24t26 9l69 4l37 3q28 2 35 2q14 0 22.5 -8.5t8.5 -22.5v-553q0 -11 6.5 -19t17.5 -8q10 0 24 2
t21 2q10 0 18.5 -7t8.5 -19q0 -10 -5.5 -17.5t-14.5 -10.5q-13 -4 -35 -9l-22 -6q-46 -12 -69 -12q-15 0 -24 8.5t-9 25.5q0 7 -2.5 11t-6.5 4q-5 0 -11 -6q-19 -17 -47 -30.5t-61 -13.5q-59 0 -110.5 30zM390 103q11 9 19.5 25.5t8.5 36.5v146q0 31 -19 53q-15 17 -45 30.5
t-64 13.5q-66 0 -108 -44t-42 -124q0 -52 22 -92t57.5 -61.5t73.5 -21.5q53 0 97 38z" />
    <glyph glyph-name="dcaron" unicode="&#x10f;" 
d="M170.5 30q-51.5 30 -82.5 84.5t-31 125.5q0 63 30.5 117t80 85.5t104.5 31.5q63 0 123 -47q6 -5 12 -5q11 0 11 21v145q0 27 -24 27h-75q-14 0 -25.5 9t-11.5 23q0 16 12 24t26 9l69 4l37 3q28 2 35 2q14 0 22.5 -8.5t8.5 -22.5v-553q0 -11 6.5 -19t17.5 -8q10 0 24 2
t21 2q10 0 18.5 -7t8.5 -19q0 -10 -5.5 -17.5t-14.5 -10.5q-13 -4 -35 -9l-22 -6q-46 -12 -69 -12q-15 0 -24 8.5t-9 25.5q0 7 -2.5 11t-6.5 4q-5 0 -11 -6q-19 -17 -47 -30.5t-61 -13.5q-59 0 -110.5 30zM390 103q11 9 19.5 25.5t8.5 36.5v146q0 31 -19 53q-15 17 -45 30.5
t-64 13.5q-66 0 -108 -44t-42 -124q0 -52 22 -92t57.5 -61.5t73.5 -21.5q53 0 97 38zM187 1070q0 13 7 19q6 6 16 6q14 0 25 -12l65 -68q7 -8 16 -8q8 0 16 8l63 68q11 12 24 12q9 0 16 -6q8 -8 8 -19t-8 -22l-88 -116q-15 -18 -30 -18q-16 0 -31 18l-92 116q-7 8 -7 22z
" />
    <glyph glyph-name="e" unicode="e" 
d="M199.5 27q-57.5 32 -89.5 89t-32 129q0 66 30.5 118t86 82t127.5 30q52 0 100 -25.5t77.5 -64.5t29.5 -76q0 -14 -5 -22.5t-19 -12.5q-35 -9 -161 -24q-109 -13 -173 -18q-19 -1 -19 -21q0 -64 52.5 -102t131.5 -38q39 0 70.5 11.5t49.5 29.5q4 5 14 15t19.5 15.5
t21.5 5.5q14 0 24 -10t10 -24q0 -13 -5.5 -22t-14.5 -20q-30 -36 -81.5 -56.5t-113.5 -20.5q-73 0 -130.5 32zM296.5 297.5q75.5 9.5 114.5 14.5q15 3 15 20q0 8 -5 18q-14 26 -46 44.5t-70 18.5q-48 0 -80.5 -19t-48.5 -45.5t-16 -49.5q0 -16 20 -15q41 4 116.5 13.5z" />
    <glyph glyph-name="eacute" unicode="&#xe9;" 
d="M199.5 27q-57.5 32 -89.5 89t-32 129q0 66 30.5 118t86 82t127.5 30q52 0 100 -25.5t77.5 -64.5t29.5 -76q0 -14 -5 -22.5t-19 -12.5q-35 -9 -161 -24q-109 -13 -173 -18q-19 -1 -19 -21q0 -64 52.5 -102t131.5 -38q39 0 70.5 11.5t49.5 29.5q4 5 14 15t19.5 15.5
t21.5 5.5q14 0 24 -10t10 -24q0 -13 -5.5 -22t-14.5 -20q-30 -36 -81.5 -56.5t-113.5 -20.5q-73 0 -130.5 32zM296.5 297.5q75.5 9.5 114.5 14.5q15 3 15 20q0 8 -5 18q-14 26 -46 44.5t-70 18.5q-48 0 -80.5 -19t-48.5 -45.5t-16 -49.5q0 -16 20 -15q41 4 116.5 13.5z
M208 578q-11 0 -19.5 6.5t-8.5 17.5q0 8 6 16.5t17 14.5l168 94q8 4 18 4q11 0 21 -5.5t14 -14.5q4 -10 4 -16q0 -11 -7 -20.5t-20 -15.5l-178 -78q-7 -3 -15 -3z" />
    <glyph glyph-name="ecaron" unicode="&#x11b;" 
d="M199.5 27q-57.5 32 -89.5 89t-32 129q0 66 30.5 118t86 82t127.5 30q52 0 100 -25.5t77.5 -64.5t29.5 -76q0 -14 -5 -22.5t-19 -12.5q-35 -9 -161 -24q-109 -13 -173 -18q-19 -1 -19 -21q0 -64 52.5 -102t131.5 -38q39 0 70.5 11.5t49.5 29.5q4 5 14 15t19.5 15.5
t21.5 5.5q14 0 24 -10t10 -24q0 -13 -5.5 -22t-14.5 -20q-30 -36 -81.5 -56.5t-113.5 -20.5q-73 0 -130.5 32zM296.5 297.5q75.5 9.5 114.5 14.5q15 3 15 20q0 8 -5 18q-14 26 -46 44.5t-70 18.5q-48 0 -80.5 -19t-48.5 -45.5t-16 -49.5q0 -16 20 -15q41 4 116.5 13.5z
M187 740q0 13 7 19q6 6 16 6q14 0 25 -12l65 -68q7 -8 16 -8q8 0 16 8l63 68q11 12 24 12q9 0 16 -6q8 -8 8 -19t-8 -22l-88 -116q-15 -18 -30 -18q-16 0 -31 18l-92 116q-7 8 -7 22z" />
    <glyph glyph-name="ecircumflex" unicode="&#xea;" 
d="M199.5 27q-57.5 32 -89.5 89t-32 129q0 66 30.5 118t86 82t127.5 30q52 0 100 -25.5t77.5 -64.5t29.5 -76q0 -14 -5 -22.5t-19 -12.5q-35 -9 -161 -24q-109 -13 -173 -18q-19 -1 -19 -21q0 -64 52.5 -102t131.5 -38q39 0 70.5 11.5t49.5 29.5q4 5 14 15t19.5 15.5
t21.5 5.5q14 0 24 -10t10 -24q0 -13 -5.5 -22t-14.5 -20q-30 -36 -81.5 -56.5t-113.5 -20.5q-73 0 -130.5 32zM296.5 297.5q75.5 9.5 114.5 14.5q15 3 15 20q0 8 -5 18q-14 26 -46 44.5t-70 18.5q-48 0 -80.5 -19t-48.5 -45.5t-16 -49.5q0 -16 20 -15q41 4 116.5 13.5z
M187 610q0 11 8 22l88 116q15 18 30 18q16 0 31 -18l92 -116q7 -8 7 -22q0 -13 -7 -19q-6 -6 -16 -6q-15 0 -25 12l-65 68q-7 8 -16 8q-8 0 -16 -8l-63 -68q-11 -12 -24 -12q-8 0 -16 6q-8 8 -8 19z" />
    <glyph glyph-name="edieresis" unicode="&#xeb;" 
d="M199.5 27q-57.5 32 -89.5 89t-32 129q0 66 30.5 118t86 82t127.5 30q52 0 100 -25.5t77.5 -64.5t29.5 -76q0 -14 -5 -22.5t-19 -12.5q-35 -9 -161 -24q-109 -13 -173 -18q-19 -1 -19 -21q0 -64 52.5 -102t131.5 -38q39 0 70.5 11.5t49.5 29.5q4 5 14 15t19.5 15.5
t21.5 5.5q14 0 24 -10t10 -24q0 -13 -5.5 -22t-14.5 -20q-30 -36 -81.5 -56.5t-113.5 -20.5q-73 0 -130.5 32zM296.5 297.5q75.5 9.5 114.5 14.5q15 3 15 20q0 8 -5 18q-14 26 -46 44.5t-70 18.5q-48 0 -80.5 -19t-48.5 -45.5t-16 -49.5q0 -16 20 -15q41 4 116.5 13.5z
M185 639q-14 14 -14 34t14 33.5t34 13.5t34 -13.5t14 -33.5t-14 -34t-34 -14t-34 14zM376.5 639q-14.5 14 -14.5 34q0 19 14.5 33t34.5 14t34 -13.5t14 -33.5t-14 -34t-34 -14t-34.5 14z" />
    <glyph glyph-name="edotaccent" unicode="&#x117;" 
d="M199.5 27q-57.5 32 -89.5 89t-32 129q0 66 30.5 118t86 82t127.5 30q52 0 100 -25.5t77.5 -64.5t29.5 -76q0 -14 -5 -22.5t-19 -12.5q-35 -9 -161 -24q-109 -13 -173 -18q-19 -1 -19 -21q0 -64 52.5 -102t131.5 -38q39 0 70.5 11.5t49.5 29.5q4 5 14 15t19.5 15.5
t21.5 5.5q14 0 24 -10t10 -24q0 -13 -5.5 -22t-14.5 -20q-30 -36 -81.5 -56.5t-113.5 -20.5q-73 0 -130.5 32zM296.5 297.5q75.5 9.5 114.5 14.5q15 3 15 20q0 8 -5 18q-14 26 -46 44.5t-70 18.5q-48 0 -80.5 -19t-48.5 -45.5t-16 -49.5q0 -16 20 -15q41 4 116.5 13.5z
M281 639q-14 14 -14 34t14 33.5t34 13.5t34 -13.5t14 -33.5t-14 -34t-34 -14t-34 14z" />
    <glyph glyph-name="egrave" unicode="&#xe8;" 
d="M199.5 27q-57.5 32 -89.5 89t-32 129q0 66 30.5 118t86 82t127.5 30q52 0 100 -25.5t77.5 -64.5t29.5 -76q0 -14 -5 -22.5t-19 -12.5q-35 -9 -161 -24q-109 -13 -173 -18q-19 -1 -19 -21q0 -64 52.5 -102t131.5 -38q39 0 70.5 11.5t49.5 29.5q4 5 14 15t19.5 15.5
t21.5 5.5q14 0 24 -10t10 -24q0 -13 -5.5 -22t-14.5 -20q-30 -36 -81.5 -56.5t-113.5 -20.5q-73 0 -130.5 32zM296.5 297.5q75.5 9.5 114.5 14.5q15 3 15 20q0 8 -5 18q-14 26 -46 44.5t-70 18.5q-48 0 -80.5 -19t-48.5 -45.5t-16 -49.5q0 -16 20 -15q41 4 116.5 13.5z
M198 674.5q-7 9.5 -7 20.5q0 16 11.5 26.5t27.5 10.5q8 0 18 -5l168 -94q11 -6 17 -14.5t6 -16.5q0 -11 -8 -17.5t-20 -6.5q-8 0 -15 3l-178 78q-13 6 -20 15.5z" />
    <glyph glyph-name="f" unicode="f" horiz-adv-x="420" 
d="M43.5 6.5q-12.5 9.5 -12.5 25.5t13 25.5t37 9.5h39q13 0 17 6t4 18v279q0 8 -4.5 12.5t-11.5 4.5l-46 -1q-16 0 -25 7.5t-9 17.5q0 13 9 21t22 10l51 5q6 0 10 3.5t4 9.5q0 72 26.5 128t73 86.5t105.5 30.5q32 0 50 -15.5t18 -38.5q0 -24 -13.5 -38.5t-36.5 -14.5
q-9 0 -17.5 3.5t-16.5 8.5q-2 1 -15 7t-28 6q-72 0 -72 -129v-29q0 -12 15 -11l63 4q16 1 27 -9t11 -23q0 -14 -9.5 -24.5t-25.5 -10.5q-3 0 -17.5 -0.5t-47.5 -0.5q-16 -2 -16 -16v-283q0 -12 4 -18t15 -6l80 1q21 0 33.5 -9.5t12.5 -25.5t-13.5 -26t-38.5 -10q-10 0 -46 2
q-72 3 -79 3q-11 0 -68 -3q-28 -2 -38 -2q-21 0 -33.5 9.5z" />
    <glyph glyph-name="g" unicode="g" 
d="M133 -198q-67 40 -67 110q0 43 21.5 70t50.5 41q8 3 8 10q0 4 -3 8q-17 19 -17 54q0 25 17 49q8 12 8 21q0 6 -4 10q-48 46 -48 126q0 47 25.5 87.5t70.5 64t101 23.5q38 0 68.5 -11t47.5 -27q12 -11 22 -14.5t22 -3.5q15 0 29 11t22 24q7 12 14 17t17 5q16 0 26 -10.5
t10 -27.5t-19 -35.5t-49 -34.5q-15 -8 -20 -15.5t-5 -17.5q0 -9 2 -23l1 -22q0 -53 -27 -90.5t-70.5 -56.5t-93.5 -19q-37 0 -65 7l-12 2q-11 0 -18 -7q-13 -11 -13 -30t12 -30t43.5 -17t90.5 -6l70 1q45 0 76 -19t46 -48t15 -60q0 -38 -24.5 -74t-74 -59t-121.5 -23
q-118 0 -185 40zM379 208q35 31 35 87q0 48 -32.5 83t-83.5 35q-52 0 -88.5 -32.5t-36.5 -86.5t33.5 -85.5t86.5 -31.5q51 0 86 31zM392 -165.5q34 12.5 49.5 30.5t15.5 36q0 51 -75 64l-49 7q-56 6 -86 12q-17 3 -30 7q-10 3 -18 3q-9 0 -19 -5q-21 -12 -31.5 -26.5
t-10.5 -36.5q0 -44 46 -74t124 -30q50 0 84 12.5z" />
    <glyph glyph-name="gdotaccent" unicode="&#x121;" 
d="M133 -198q-67 40 -67 110q0 43 21.5 70t50.5 41q8 3 8 10q0 4 -3 8q-17 19 -17 54q0 25 17 49q8 12 8 21q0 6 -4 10q-48 46 -48 126q0 47 25.5 87.5t70.5 64t101 23.5q38 0 68.5 -11t47.5 -27q12 -11 22 -14.5t22 -3.5q15 0 29 11t22 24q7 12 14 17t17 5q16 0 26 -10.5
t10 -27.5t-19 -35.5t-49 -34.5q-15 -8 -20 -15.5t-5 -17.5q0 -9 2 -23l1 -22q0 -53 -27 -90.5t-70.5 -56.5t-93.5 -19q-37 0 -65 7l-12 2q-11 0 -18 -7q-13 -11 -13 -30t12 -30t43.5 -17t90.5 -6l70 1q45 0 76 -19t46 -48t15 -60q0 -38 -24.5 -74t-74 -59t-121.5 -23
q-118 0 -185 40zM379 208q35 31 35 87q0 48 -32.5 83t-83.5 35q-52 0 -88.5 -32.5t-36.5 -86.5t33.5 -85.5t86.5 -31.5q51 0 86 31zM392 -165.5q34 12.5 49.5 30.5t15.5 36q0 51 -75 64l-49 7q-56 6 -86 12q-17 3 -30 7q-10 3 -18 3q-9 0 -19 -5q-21 -12 -31.5 -26.5
t-10.5 -36.5q0 -44 46 -74t124 -30q50 0 84 12.5zM281 639q-14 14 -14 34t14 33.5t34 13.5t34 -13.5t14 -33.5t-14 -34t-34 -14t-34 14z" />
    <glyph glyph-name="h" unicode="h" 
d="M61 6.5q-12 9.5 -12 25.5q0 14 12 24.5t28 10.5h20q14 0 20.5 7t6.5 25v486q0 11 -5.5 19.5t-16.5 9.5q-26 2 -43 2q-16 0 -25.5 8.5t-9.5 22.5q0 12 9.5 20.5t22.5 10.5l56 5l30 3q24 2 29 2q13 0 20 -7t7 -19v-244q0 -8 3.5 -13t8.5 -5q6 0 13 7q64 69 143 69
q59 0 97.5 -40t38.5 -105v-240q0 -24 20 -24h24q19 -1 28.5 -11t9.5 -24q0 -16 -10.5 -25.5t-30.5 -9.5q-7 0 -25 2q-39 3 -50 3q-26 0 -45 -3q-24 -2 -36 -2q-19 0 -31.5 9.5t-12.5 25.5q0 14 10.5 24.5t27.5 10.5h24q23 0 23 24v224q0 44 -24.5 67.5t-66.5 23.5
q-39 0 -70.5 -25t-54.5 -63q-14 -24 -14 -58v-162q0 -18 6 -24.5t18 -6.5h17q17 0 28.5 -10t11.5 -25t-10.5 -25t-28.5 -10q-8 0 -26 2q-39 3 -51 3q-26 0 -49 -3q-26 -2 -34 -2q-19 0 -31 9.5z" />
    <glyph glyph-name="i" unicode="i" horiz-adv-x="420" 
d="M174.5 608.5q-17.5 17.5 -17.5 42.5q0 24 17 40.5t43 16.5q27 0 43.5 -17t16.5 -40q0 -24 -17.5 -42t-42.5 -18t-42.5 17.5zM100 6.5q-12 9.5 -12 26.5q0 14 13 24t31 10h34q18 0 18 22v284q0 24 -22 26q-11 1 -23.5 0.5t-17.5 -0.5q-13 0 -23.5 7.5t-10.5 20.5t7.5 21
t20.5 10q10 2 30 4l27 3l28 4q18 3 27 3q13 0 22 -8.5t9 -21.5v-351q0 -23 15 -23q30 0 36 -1q20 -2 30.5 -10.5t10.5 -23.5q0 -16 -10.5 -26t-31.5 -10q-10 0 -38 2q-22 3 -47 3q-12 0 -40 -2q-22 -3 -50 -3q-21 0 -33 9.5z" />
    <glyph glyph-name="dotlessi" unicode="&#x131;" horiz-adv-x="420" 
d="M100 6.5q-12 9.5 -12 26.5q0 14 13 24t31 10h34q18 0 18 22v284q0 24 -22 26q-11 1 -23.5 0.5t-17.5 -0.5q-13 0 -23.5 7.5t-10.5 20.5t7.5 21t20.5 10q10 2 30 4l27 3l28 4q18 3 27 3q13 0 22 -8.5t9 -21.5v-351q0 -23 15 -23q30 0 36 -1q20 -2 30.5 -10.5t10.5 -23.5
q0 -16 -10.5 -26t-31.5 -10q-10 0 -38 2q-22 3 -47 3q-12 0 -40 -2q-22 -3 -50 -3q-21 0 -33 9.5z" />
    <glyph glyph-name="iacute" unicode="&#xed;" horiz-adv-x="420" 
d="M100 6.5q-12 9.5 -12 26.5q0 14 13 24t31 10h34q18 0 18 22v284q0 24 -22 26q-11 1 -23.5 0.5t-17.5 -0.5q-13 0 -23.5 7.5t-10.5 20.5t7.5 21t20.5 10q10 2 30 4l27 3l28 4q18 3 27 3q13 0 22 -8.5t9 -21.5v-351q0 -23 15 -23q30 0 36 -1q20 -2 30.5 -10.5t10.5 -23.5
q0 -16 -10.5 -26t-31.5 -10q-10 0 -38 2q-22 3 -47 3q-12 0 -40 -2q-22 -3 -50 -3q-21 0 -33 9.5zM85 578q-11 0 -19.5 6.5t-8.5 17.5q0 8 6 16.5t17 14.5l168 94q8 4 18 4q11 0 21 -5.5t14 -14.5q4 -10 4 -16q0 -11 -7 -20.5t-20 -15.5l-178 -78q-7 -3 -15 -3z" />
    <glyph glyph-name="icircumflex" unicode="&#xee;" horiz-adv-x="420" 
d="M100 6.5q-12 9.5 -12 26.5q0 14 13 24t31 10h34q18 0 18 22v284q0 24 -22 26q-11 1 -23.5 0.5t-17.5 -0.5q-13 0 -23.5 7.5t-10.5 20.5t7.5 21t20.5 10q10 2 30 4l27 3l28 4q18 3 27 3q13 0 22 -8.5t9 -21.5v-351q0 -23 15 -23q30 0 36 -1q20 -2 30.5 -10.5t10.5 -23.5
q0 -16 -10.5 -26t-31.5 -10q-10 0 -38 2q-22 3 -47 3q-12 0 -40 -2q-22 -3 -50 -3q-21 0 -33 9.5zM64 610q0 11 8 22l88 116q15 18 30 18q16 0 31 -18l92 -116q7 -8 7 -22q0 -13 -7 -19q-6 -6 -16 -6q-15 0 -25 12l-65 68q-7 8 -16 8q-8 0 -16 -8l-63 -68q-11 -12 -24 -12
q-8 0 -16 6q-8 8 -8 19z" />
    <glyph glyph-name="idieresis" unicode="&#xef;" horiz-adv-x="420" 
d="M100 6.5q-12 9.5 -12 26.5q0 14 13 24t31 10h34q18 0 18 22v284q0 24 -22 26q-11 1 -23.5 0.5t-17.5 -0.5q-13 0 -23.5 7.5t-10.5 20.5t7.5 21t20.5 10q10 2 30 4l27 3l28 4q18 3 27 3q13 0 22 -8.5t9 -21.5v-351q0 -23 15 -23q30 0 36 -1q20 -2 30.5 -10.5t10.5 -23.5
q0 -16 -10.5 -26t-31.5 -10q-10 0 -38 2q-22 3 -47 3q-12 0 -40 -2q-22 -3 -50 -3q-21 0 -33 9.5zM62 639q-14 14 -14 34t14 33.5t34 13.5t34 -13.5t14 -33.5t-14 -34t-34 -14t-34 14zM253.5 639q-14.5 14 -14.5 34q0 19 14.5 33t34.5 14t34 -13.5t14 -33.5t-14 -34t-34 -14
t-34.5 14z" />
    <glyph glyph-name="i.loclTRK" horiz-adv-x="420" 
d="M100 6.5q-12 9.5 -12 26.5q0 14 13 24t31 10h34q18 0 18 22v284q0 24 -22 26q-11 1 -23.5 0.5t-17.5 -0.5q-13 0 -23.5 7.5t-10.5 20.5t7.5 21t20.5 10q10 2 30 4l27 3l28 4q18 3 27 3q13 0 22 -8.5t9 -21.5v-351q0 -23 15 -23q30 0 36 -1q20 -2 30.5 -10.5t10.5 -23.5
q0 -16 -10.5 -26t-31.5 -10q-10 0 -38 2q-22 3 -47 3q-12 0 -40 -2q-22 -3 -50 -3q-21 0 -33 9.5zM158 639q-14 14 -14 34t14 33.5t34 13.5t34 -13.5t14 -33.5t-14 -34t-34 -14t-34 14z" />
    <glyph glyph-name="igrave" unicode="&#xec;" horiz-adv-x="420" 
d="M100 6.5q-12 9.5 -12 26.5q0 14 13 24t31 10h34q18 0 18 22v284q0 24 -22 26q-11 1 -23.5 0.5t-17.5 -0.5q-13 0 -23.5 7.5t-10.5 20.5t7.5 21t20.5 10q10 2 30 4l27 3l28 4q18 3 27 3q13 0 22 -8.5t9 -21.5v-351q0 -23 15 -23q30 0 36 -1q20 -2 30.5 -10.5t10.5 -23.5
q0 -16 -10.5 -26t-31.5 -10q-10 0 -38 2q-22 3 -47 3q-12 0 -40 -2q-22 -3 -50 -3q-21 0 -33 9.5zM75 674.5q-7 9.5 -7 20.5q0 16 11.5 26.5t27.5 10.5q8 0 18 -5l168 -94q11 -6 17 -14.5t6 -16.5q0 -11 -8 -17.5t-20 -6.5q-8 0 -15 3l-178 78q-13 6 -20 15.5z" />
    <glyph glyph-name="j" unicode="j" horiz-adv-x="420" 
d="M214.5 602q-17.5 17 -17.5 43q0 25 18.5 42.5t44.5 17.5q28 0 45 -17.5t17 -41.5q0 -28 -17.5 -44.5t-44.5 -16.5q-28 0 -45.5 17zM47 -198q-6 19 -13 57t-7 59q0 19 7.5 30.5t22.5 11.5q11 0 19 -11t22 -40q13 -28 24 -36t35 -8q40 0 59.5 26.5t19.5 89.5v389
q0 9 -6 15.5t-17 6.5l-61 -1q-17 0 -27.5 8.5t-10.5 21.5t10 22t26 11q7 1 25.5 3t37.5 6q50 9 60 9q18 0 27.5 -10.5t9.5 -27.5v-461q0 -58 -26.5 -103.5t-76.5 -71.5t-118 -26q-32 0 -42 30z" />
    <glyph glyph-name="k" unicode="k" 
d="M60 6.5q-12 9.5 -12 25.5q0 14 12 24.5t28 10.5h20q14 0 20.5 7t6.5 25v483q0 14 -6 23.5t-16 10.5q-6 1 -45 3q-14 1 -23.5 9.5t-9.5 21.5q0 12 8.5 20t21.5 10l61 4l21 2q28 2 37 2q12 0 18.5 -8t6.5 -19v-369q0 -9 4.5 -13.5t10.5 -4.5q7 0 12 4l151 103q10 7 10 13
q0 8 -14 9q-18 1 -29 9t-11 23q0 17 13.5 27t37.5 10q10 0 32 -2q18 -3 43 -3q14 0 36 2t38 2q18 0 29.5 -9t11.5 -25q0 -15 -12.5 -24.5t-27.5 -9.5h-25q-15 0 -42 -17l-113 -76q-11 -8 -11 -20q0 -11 9 -22l156 -189q9 -10 19 -10h28q21 0 32.5 -10t11.5 -24
q0 -15 -11 -25t-32 -10h-53q-15 0 -29.5 8t-23.5 19l-157 205q-12 15 -26 15q-8 0 -15 -5l-34 -23q-9 -6 -14 -17.5t-5 -25.5v-78q0 -18 6 -24.5t18 -6.5h17q17 0 28.5 -10t11.5 -25t-10.5 -25t-28.5 -10q-8 0 -26 2q-39 3 -50 3q-5 0 -50 -3q-26 -2 -34 -2q-19 0 -31 9.5z
" />
    <glyph glyph-name="l" unicode="l" horiz-adv-x="420" 
d="M95.5 6.5q-10.5 9.5 -10.5 23.5q0 34 48 37q26 2 26 23v490q0 14 -6 23.5t-16 10.5q-7 1 -16 1t-18 1l-21 1q-14 1 -23.5 9.5t-9.5 21.5q0 12 8.5 20t21.5 10l62 5l28 3q28 2 35 2q14 0 21.5 -8.5t7.5 -21.5v-566q0 -14 6 -19.5t19 -5.5l72 1q21 0 31.5 -10t10.5 -24
q0 -17 -10.5 -27t-30.5 -10q-14 0 -48 2q-28 3 -59 3q-8 0 -62 -3q-26 -2 -33 -2q-23 0 -33.5 9.5z" />
    <glyph glyph-name="lacute" unicode="&#x13a;" horiz-adv-x="420" 
d="M95.5 6.5q-10.5 9.5 -10.5 23.5q0 34 48 37q26 2 26 23v490q0 14 -6 23.5t-16 10.5q-7 1 -16 1t-18 1l-21 1q-14 1 -23.5 9.5t-9.5 21.5q0 12 8.5 20t21.5 10l62 5l28 3q28 2 35 2q14 0 21.5 -8.5t7.5 -21.5v-566q0 -14 6 -19.5t19 -5.5l72 1q21 0 31.5 -10t10.5 -24
q0 -17 -10.5 -27t-30.5 -10q-14 0 -48 2q-28 3 -59 3q-8 0 -62 -3q-26 -2 -33 -2q-23 0 -33.5 9.5zM103 908q-11 0 -19.5 6.5t-8.5 17.5q0 8 6 16.5t17 14.5l168 94q8 4 18 4q11 0 21 -5.5t14 -14.5q4 -10 4 -16q0 -11 -7 -20.5t-20 -15.5l-178 -78q-7 -3 -15 -3z" />
    <glyph glyph-name="lcaron" unicode="&#x13e;" horiz-adv-x="420" 
d="M95.5 6.5q-10.5 9.5 -10.5 23.5q0 34 48 37q26 2 26 23v490q0 14 -6 23.5t-16 10.5q-7 1 -16 1t-18 1l-21 1q-14 1 -23.5 9.5t-9.5 21.5q0 12 8.5 20t21.5 10l62 5l28 3q28 2 35 2q14 0 21.5 -8.5t7.5 -21.5v-566q0 -14 6 -19.5t19 -5.5l72 1q21 0 31.5 -10t10.5 -24
q0 -17 -10.5 -27t-30.5 -10q-14 0 -48 2q-28 3 -59 3q-8 0 -62 -3q-26 -2 -33 -2q-23 0 -33.5 9.5zM82 1070q0 13 7 19q6 6 16 6q14 0 25 -12l65 -68q7 -8 16 -8q8 0 16 8l63 68q11 12 24 12q9 0 16 -6q8 -8 8 -19t-8 -22l-88 -116q-15 -18 -30 -18q-16 0 -31 18l-92 116
q-7 8 -7 22z" />
    <glyph glyph-name="m" unicode="m" horiz-adv-x="1050" 
d="M69 6q-11 9 -11 25q0 17 13.5 26.5t42.5 9.5q30 0 30 29v269q0 26 -22 28l-52 5q-14 2 -22.5 10.5t-8.5 21.5q0 29 34 32q20 2 26 2l25 2q11 1 23.5 2.5t27.5 1.5q16 0 24 -9.5t10 -22.5l3 -27q2 -17 12 -17q6 0 13 7q27 27 73 51t96 24q47 0 88 -24.5t60 -65.5
q6 -12 12 -12q8 0 17 12q28 35 78.5 62.5t106.5 27.5q41 0 77.5 -18t58.5 -51.5t22 -75.5v-235q0 -16 8 -22.5t28 -6.5q45 0 45 -34q0 -16 -11 -26t-34 -10q-6 0 -24 2q-39 3 -47 3q-25 0 -46 -3q-28 -2 -41 -2q-16 0 -27 9t-11 25q0 17 13.5 26.5t42.5 9.5q30 0 30 29v219
q0 42 -33 66t-77 24q-42 0 -88.5 -26t-66.5 -60q-12 -20 -17 -32.5t-5 -29.5v-161q0 -16 8 -22.5t28 -6.5q28 0 40 -8.5t12 -25.5q0 -16 -11 -26t-34 -10q-5 0 -27 2q-45 3 -51 3q-23 0 -43 -3q-24 -2 -37 -2q-16 0 -27 9t-11 25q0 17 13.5 26.5t42.5 9.5q14 0 18.5 6.5
t4.5 22.5v219q0 42 -33 66t-78 24q-41 0 -84.5 -26.5t-63.5 -60.5q-14 -24 -14 -58v-164q0 -16 8 -22.5t28 -6.5q45 0 45 -34q0 -16 -11 -26t-34 -10q-6 0 -24 2q-39 3 -47 3q-25 0 -46 -3q-28 -2 -41 -2q-16 0 -27 9z" />
    <glyph glyph-name="n" unicode="n" 
d="M65 6q-11 9 -11 25q0 17 13.5 26.5t42.5 9.5q30 0 30 29v267q0 14 -6 22t-16 9q-6 1 -22.5 1.5t-29.5 2.5q-14 2 -22.5 11t-8.5 21q0 13 9 21.5t25 10.5q20 2 26 2l25 2l21 2q20 2 30 2q15 0 23.5 -9t10.5 -23l2 -21q1 -10 5 -16t9 -6q8 0 15 9q23 28 58 50t83 22
q63 0 101.5 -39.5t38.5 -105.5v-235q0 -16 8 -22.5t28 -6.5q45 0 45 -34q0 -16 -11 -26t-34 -10q-6 0 -24 2q-39 3 -47 3q-25 0 -46 -3q-28 -2 -41 -2q-16 0 -27 9t-11 25q0 17 13.5 26.5t42.5 9.5q30 0 30 29v219q0 44 -24 67t-66 23q-39 0 -70.5 -24.5t-54.5 -62.5
q-14 -24 -14 -58v-164q0 -16 8 -22.5t28 -6.5q45 0 45 -34q0 -16 -11 -26t-34 -10q-6 0 -24 2q-39 3 -47 3q-25 0 -46 -3q-28 -2 -41 -2q-16 0 -27 9z" />
    <glyph glyph-name="nacute" unicode="&#x144;" 
d="M65 6q-11 9 -11 25q0 17 13.5 26.5t42.5 9.5q30 0 30 29v267q0 14 -6 22t-16 9q-6 1 -22.5 1.5t-29.5 2.5q-14 2 -22.5 11t-8.5 21q0 13 9 21.5t25 10.5q20 2 26 2l25 2l21 2q20 2 30 2q15 0 23.5 -9t10.5 -23l2 -21q1 -10 5 -16t9 -6q8 0 15 9q23 28 58 50t83 22
q63 0 101.5 -39.5t38.5 -105.5v-235q0 -16 8 -22.5t28 -6.5q45 0 45 -34q0 -16 -11 -26t-34 -10q-6 0 -24 2q-39 3 -47 3q-25 0 -46 -3q-28 -2 -41 -2q-16 0 -27 9t-11 25q0 17 13.5 26.5t42.5 9.5q30 0 30 29v219q0 44 -24 67t-66 23q-39 0 -70.5 -24.5t-54.5 -62.5
q-14 -24 -14 -58v-164q0 -16 8 -22.5t28 -6.5q45 0 45 -34q0 -16 -11 -26t-34 -10q-6 0 -24 2q-39 3 -47 3q-25 0 -46 -3q-28 -2 -41 -2q-16 0 -27 9zM208 578q-11 0 -19.5 6.5t-8.5 17.5q0 8 6 16.5t17 14.5l168 94q8 4 18 4q11 0 21 -5.5t14 -14.5q4 -10 4 -16
q0 -11 -7 -20.5t-20 -15.5l-178 -78q-7 -3 -15 -3z" />
    <glyph glyph-name="ncaron" unicode="&#x148;" 
d="M65 6q-11 9 -11 25q0 17 13.5 26.5t42.5 9.5q30 0 30 29v267q0 14 -6 22t-16 9q-6 1 -22.5 1.5t-29.5 2.5q-14 2 -22.5 11t-8.5 21q0 13 9 21.5t25 10.5q20 2 26 2l25 2l21 2q20 2 30 2q15 0 23.5 -9t10.5 -23l2 -21q1 -10 5 -16t9 -6q8 0 15 9q23 28 58 50t83 22
q63 0 101.5 -39.5t38.5 -105.5v-235q0 -16 8 -22.5t28 -6.5q45 0 45 -34q0 -16 -11 -26t-34 -10q-6 0 -24 2q-39 3 -47 3q-25 0 -46 -3q-28 -2 -41 -2q-16 0 -27 9t-11 25q0 17 13.5 26.5t42.5 9.5q30 0 30 29v219q0 44 -24 67t-66 23q-39 0 -70.5 -24.5t-54.5 -62.5
q-14 -24 -14 -58v-164q0 -16 8 -22.5t28 -6.5q45 0 45 -34q0 -16 -11 -26t-34 -10q-6 0 -24 2q-39 3 -47 3q-25 0 -46 -3q-28 -2 -41 -2q-16 0 -27 9zM187 740q0 13 7 19q6 6 16 6q14 0 25 -12l65 -68q7 -8 16 -8q8 0 16 8l63 68q11 12 24 12q9 0 16 -6q8 -8 8 -19t-8 -22
l-88 -116q-15 -18 -30 -18q-16 0 -31 18l-92 116q-7 8 -7 22z" />
    <glyph glyph-name="ntilde" unicode="&#xf1;" 
d="M65 6q-11 9 -11 25q0 17 13.5 26.5t42.5 9.5q30 0 30 29v267q0 14 -6 22t-16 9q-6 1 -22.5 1.5t-29.5 2.5q-14 2 -22.5 11t-8.5 21q0 13 9 21.5t25 10.5q20 2 26 2l25 2l21 2q20 2 30 2q15 0 23.5 -9t10.5 -23l2 -21q1 -10 5 -16t9 -6q8 0 15 9q23 28 58 50t83 22
q63 0 101.5 -39.5t38.5 -105.5v-235q0 -16 8 -22.5t28 -6.5q45 0 45 -34q0 -16 -11 -26t-34 -10q-6 0 -24 2q-39 3 -47 3q-25 0 -46 -3q-28 -2 -41 -2q-16 0 -27 9t-11 25q0 17 13.5 26.5t42.5 9.5q30 0 30 29v219q0 44 -24 67t-66 23q-39 0 -70.5 -24.5t-54.5 -62.5
q-14 -24 -14 -58v-164q0 -16 8 -22.5t28 -6.5q45 0 45 -34q0 -16 -11 -26t-34 -10q-6 0 -24 2q-39 3 -47 3q-25 0 -46 -3q-28 -2 -41 -2q-16 0 -27 9zM311 621q-26 15 -52 15q-24 0 -43 -14q-12 -8 -21 -8q-7 0 -15 5q-10 7 -10 19q0 10 6 19q10 18 35.5 33t51.5 15
q35 0 64 -19q22 -15 45 -15q19 0 32.5 9.5t15.5 11.5q10 5 16 5q9 0 16 -7q6 -6 6 -17q0 -13 -9 -26q-29 -44 -80 -44q-29 0 -58 18z" />
    <glyph glyph-name="o" unicode="o" 
d="M185.5 26q-57.5 31 -88.5 85t-31 120q0 68 32.5 123.5t89 88t124.5 32.5q74 0 131 -32.5t88.5 -88t31.5 -120.5q0 -67 -31.5 -121.5t-87 -86t-125.5 -31.5q-76 0 -133.5 31zM400 75q37 23 57.5 63.5t20.5 90.5q0 48 -20.5 91t-59 69.5t-89.5 26.5q-72 0 -115 -49
t-43 -128q0 -82 44.5 -134.5t119.5 -52.5q48 0 85 23z" />
    <glyph glyph-name="oacute" unicode="&#xf3;" 
d="M185.5 26q-57.5 31 -88.5 85t-31 120q0 68 32.5 123.5t89 88t124.5 32.5q74 0 131 -32.5t88.5 -88t31.5 -120.5q0 -67 -31.5 -121.5t-87 -86t-125.5 -31.5q-76 0 -133.5 31zM400 75q37 23 57.5 63.5t20.5 90.5q0 48 -20.5 91t-59 69.5t-89.5 26.5q-72 0 -115 -49
t-43 -128q0 -82 44.5 -134.5t119.5 -52.5q48 0 85 23zM208 578q-11 0 -19.5 6.5t-8.5 17.5q0 8 6 16.5t17 14.5l168 94q8 4 18 4q11 0 21 -5.5t14 -14.5q4 -10 4 -16q0 -11 -7 -20.5t-20 -15.5l-178 -78q-7 -3 -15 -3z" />
    <glyph glyph-name="ocircumflex" unicode="&#xf4;" 
d="M185.5 26q-57.5 31 -88.5 85t-31 120q0 68 32.5 123.5t89 88t124.5 32.5q74 0 131 -32.5t88.5 -88t31.5 -120.5q0 -67 -31.5 -121.5t-87 -86t-125.5 -31.5q-76 0 -133.5 31zM400 75q37 23 57.5 63.5t20.5 90.5q0 48 -20.5 91t-59 69.5t-89.5 26.5q-72 0 -115 -49
t-43 -128q0 -82 44.5 -134.5t119.5 -52.5q48 0 85 23zM187 610q0 11 8 22l88 116q15 18 30 18q16 0 31 -18l92 -116q7 -8 7 -22q0 -13 -7 -19q-6 -6 -16 -6q-15 0 -25 12l-65 68q-7 8 -16 8q-8 0 -16 -8l-63 -68q-11 -12 -24 -12q-8 0 -16 6q-8 8 -8 19z" />
    <glyph glyph-name="odieresis" unicode="&#xf6;" 
d="M185.5 26q-57.5 31 -88.5 85t-31 120q0 68 32.5 123.5t89 88t124.5 32.5q74 0 131 -32.5t88.5 -88t31.5 -120.5q0 -67 -31.5 -121.5t-87 -86t-125.5 -31.5q-76 0 -133.5 31zM400 75q37 23 57.5 63.5t20.5 90.5q0 48 -20.5 91t-59 69.5t-89.5 26.5q-72 0 -115 -49
t-43 -128q0 -82 44.5 -134.5t119.5 -52.5q48 0 85 23zM185 639q-14 14 -14 34t14 33.5t34 13.5t34 -13.5t14 -33.5t-14 -34t-34 -14t-34 14zM376.5 639q-14.5 14 -14.5 34q0 19 14.5 33t34.5 14t34 -13.5t14 -33.5t-14 -34t-34 -14t-34.5 14z" />
    <glyph glyph-name="ograve" unicode="&#xf2;" 
d="M185.5 26q-57.5 31 -88.5 85t-31 120q0 68 32.5 123.5t89 88t124.5 32.5q74 0 131 -32.5t88.5 -88t31.5 -120.5q0 -67 -31.5 -121.5t-87 -86t-125.5 -31.5q-76 0 -133.5 31zM400 75q37 23 57.5 63.5t20.5 90.5q0 48 -20.5 91t-59 69.5t-89.5 26.5q-72 0 -115 -49
t-43 -128q0 -82 44.5 -134.5t119.5 -52.5q48 0 85 23zM198 674.5q-7 9.5 -7 20.5q0 16 11.5 26.5t27.5 10.5q8 0 18 -5l168 -94q11 -6 17 -14.5t6 -16.5q0 -11 -8 -17.5t-20 -6.5q-8 0 -15 3l-178 78q-13 6 -20 15.5z" />
    <glyph glyph-name="oslash" unicode="&#xf8;" 
d="M182 28q-8 5 -13 5q-8 0 -17 -9l-5 -5q-23 -21 -43 -21q-12 0 -20 8q-9 9 -9 21q0 19 26 45q9 11 9 16q0 4 -3 8q-41 58 -41 135q0 68 32.5 123.5t89 88t124.5 32.5q80 0 140 -38q8 -5 13 -5q7 0 17 10l6 6q22 22 41 22q9 0 19 -8q9 -9 9 -19q0 -21 -25 -44l-4 -4
q-9 -9 -9 -16q0 -3 3 -8q19 -28 30 -63.5t11 -73.5q0 -67 -31.5 -121.5t-87 -86t-125.5 -31.5q-77 0 -137 33zM294 250q66 65 113 113q5 5 5 11q0 7 -9 14q-41 30 -94 30q-72 0 -116 -50t-44 -129q0 -45 16 -87q3 -8 10 -8q5 0 8 3q35 30 111 103zM400.5 75
q37.5 23 58.5 63.5t21 90.5q0 41 -15 77q-5 15 -14 15q-4 0 -11 -5l-110 -101q-61 -60 -107 -111q-8 -10 -8 -14q0 -6 8 -11q40 -27 92 -27q48 0 85.5 23z" />
    <glyph glyph-name="otilde" unicode="&#xf5;" 
d="M185.5 26q-57.5 31 -88.5 85t-31 120q0 68 32.5 123.5t89 88t124.5 32.5q74 0 131 -32.5t88.5 -88t31.5 -120.5q0 -67 -31.5 -121.5t-87 -86t-125.5 -31.5q-76 0 -133.5 31zM400 75q37 23 57.5 63.5t20.5 90.5q0 48 -20.5 91t-59 69.5t-89.5 26.5q-72 0 -115 -49
t-43 -128q0 -82 44.5 -134.5t119.5 -52.5q48 0 85 23zM311 621q-26 15 -52 15q-24 0 -43 -14q-12 -8 -21 -8q-7 0 -15 5q-10 7 -10 19q0 10 6 19q10 18 35.5 33t51.5 15q35 0 64 -19q22 -15 45 -15q19 0 32.5 9.5t15.5 11.5q10 5 16 5q9 0 16 -7q6 -6 6 -17q0 -13 -9 -26
q-29 -44 -80 -44q-29 0 -58 18z" />
    <glyph glyph-name="oe" unicode="&#x153;" horiz-adv-x="1050" 
d="M189 26q-59 31 -91 85t-32 120q0 67 33.5 123t91 88.5t126.5 32.5q71 0 125.5 -30t85.5 -82q5 -7 10 -7t8 6q29 53 83 83t127 30q52 0 101 -25.5t80 -64.5t31 -76q0 -20 -10 -30q-6 -6 -36 -10.5t-117 -14.5q-6 0 -22 -2l-27 -3l-161 -16q-9 -1 -11.5 -5.5t-2.5 -15.5
q0 -42 25.5 -74.5t69 -50.5t96.5 -18q40 0 73 11t52 32q3 4 12.5 14.5t19 16t19.5 5.5q16 0 26.5 -9.5t10.5 -24.5q0 -19 -10 -30t-11 -12q-36 -36 -88 -56.5t-117 -20.5q-70 0 -124.5 31.5t-85.5 86.5q-3 6 -7 6q-5 0 -8 -6q-30 -54 -85 -86t-125 -32q-76 0 -135 31z
M407 77q39 23 61 63t22 89t-23 92t-63.5 69t-89.5 26q-73 0 -119 -52t-46 -137q0 -46 21.5 -86t60.5 -63.5t89 -23.5q48 0 87 23zM729 296q80 10 121 16q15 3 15 20q0 8 -5 18q-14 26 -48.5 44.5t-72.5 18.5q-48 0 -82.5 -19.5t-52.5 -47t-18 -50.5q0 -16 20 -15
q43 5 123 15z" />
    <glyph glyph-name="p" unicode="p" 
d="M68 -223.5q-11 8.5 -11 24.5q0 34 48 37q13 1 19.5 6.5t6.5 18.5v501q0 27 -22 30l-37 3q-14 1 -23.5 10t-9.5 22t8.5 21t21.5 10l51 4l22 3q18 3 34 3q26 0 29 -26q1 -8 4.5 -13t8.5 -5q4 0 12 5q72 47 145 47q48 0 92 -30.5t71 -85t27 -122.5q0 -73 -30 -129t-77 -86.5
t-96 -30.5q-77 0 -138 49q-4 4 -9 4q-10 0 -10 -16v-168q0 -23 25 -24l45 -2q18 -1 28.5 -10.5t10.5 -24.5q0 -16 -10.5 -25t-30.5 -9q-7 0 -29 2q-48 3 -56 3q-28 0 -52 -3q-30 -2 -41 -2q-16 0 -27 8.5zM444 104.5q38 47.5 38 130.5q0 53 -17.5 93t-47 62t-65.5 22
q-75 0 -128 -46q-8 -6 -13.5 -17.5t-5.5 -24.5v-164q0 -19 3 -32t16 -24q26 -24 54.5 -35.5t62.5 -11.5q65 0 103 47.5z" />
    <glyph glyph-name="q" unicode="q" 
d="M330 -222.5q-11 9.5 -11 24.5t10.5 24.5t28.5 10.5l45 2q25 1 25 24v171q0 18 -9 18q-6 0 -13 -7q-17 -17 -45.5 -31t-65.5 -14q-63 0 -112.5 31t-77.5 86t-28 125q0 63 30.5 116.5t80 84.5t104.5 31q29 0 51.5 -8t33 -14.5t28.5 -21.5q11 -8 18 -8q8 0 13 10
q8 21 16 30.5t22 9.5t21 -9.5t7 -24.5v-575q0 -13 6.5 -18.5t19.5 -6.5q48 -3 48 -37q0 -16 -11 -24.5t-27 -8.5q-11 0 -41 2q-24 3 -52 3q-8 0 -56 -3q-22 -2 -29 -2q-19 0 -30 9.5zM364 75q20 10 41 28q10 8 16.5 24.5t6.5 37.5v145q0 38 -19 60q-14 17 -39 27.5t-60 10.5
q-66 0 -108 -43t-42 -123q0 -57 21 -97t56 -60t77 -20q30 0 50 10z" />
    <glyph glyph-name="r" unicode="r" 
d="M92 6.5q-13 9.5 -13 25.5q0 14 11.5 24.5t31.5 10.5h37q30 0 30 20v283q0 24 -22 27l-51 4q-14 2 -22.5 9t-8.5 20q0 11 7.5 19.5t20.5 10.5l72 11l24 4q17 3 27 3q27 0 27 -22v-71q0 -13 10 -13q7 0 13 5q73 53 116 76q42 22 79 22q35 0 54.5 -19.5t19.5 -51.5
q0 -26 -19.5 -46.5t-50.5 -20.5q-20 0 -36.5 11t-23.5 27q-4 9 -14 9q-2 0 -10 -2q-29 -7 -115 -60q-13 -8 -18 -17t-5 -24v-193q0 -9 7 -14.5t19 -5.5q34 -1 82 -1q21 0 32 -9.5t11 -24.5q0 -16 -11 -26t-33 -10l-50 2q-17 1 -41 2t-49 1q-29 0 -61 -3q-36 -2 -47 -2
q-17 0 -30 9.5z" />
    <glyph glyph-name="racute" unicode="&#x155;" 
d="M92 6.5q-13 9.5 -13 25.5q0 14 11.5 24.5t31.5 10.5h37q30 0 30 20v283q0 24 -22 27l-51 4q-14 2 -22.5 9t-8.5 20q0 11 7.5 19.5t20.5 10.5l72 11l24 4q17 3 27 3q27 0 27 -22v-71q0 -13 10 -13q7 0 13 5q73 53 116 76q42 22 79 22q35 0 54.5 -19.5t19.5 -51.5
q0 -26 -19.5 -46.5t-50.5 -20.5q-20 0 -36.5 11t-23.5 27q-4 9 -14 9q-2 0 -10 -2q-29 -7 -115 -60q-13 -8 -18 -17t-5 -24v-193q0 -9 7 -14.5t19 -5.5q34 -1 82 -1q21 0 32 -9.5t11 -24.5q0 -16 -11 -26t-33 -10l-50 2q-17 1 -41 2t-49 1q-29 0 -61 -3q-36 -2 -47 -2
q-17 0 -30 9.5zM208 578q-11 0 -19.5 6.5t-8.5 17.5q0 8 6 16.5t17 14.5l168 94q8 4 18 4q11 0 21 -5.5t14 -14.5q4 -10 4 -16q0 -11 -7 -20.5t-20 -15.5l-178 -78q-7 -3 -15 -3z" />
    <glyph glyph-name="rcaron" unicode="&#x159;" 
d="M92 6.5q-13 9.5 -13 25.5q0 14 11.5 24.5t31.5 10.5h37q30 0 30 20v283q0 24 -22 27l-51 4q-14 2 -22.5 9t-8.5 20q0 11 7.5 19.5t20.5 10.5l72 11l24 4q17 3 27 3q27 0 27 -22v-71q0 -13 10 -13q7 0 13 5q73 53 116 76q42 22 79 22q35 0 54.5 -19.5t19.5 -51.5
q0 -26 -19.5 -46.5t-50.5 -20.5q-20 0 -36.5 11t-23.5 27q-4 9 -14 9q-2 0 -10 -2q-29 -7 -115 -60q-13 -8 -18 -17t-5 -24v-193q0 -9 7 -14.5t19 -5.5q34 -1 82 -1q21 0 32 -9.5t11 -24.5q0 -16 -11 -26t-33 -10l-50 2q-17 1 -41 2t-49 1q-29 0 -61 -3q-36 -2 -47 -2
q-17 0 -30 9.5zM187 740q0 13 7 19q6 6 16 6q14 0 25 -12l65 -68q7 -8 16 -8q8 0 16 8l63 68q11 12 24 12q9 0 16 -6q8 -8 8 -19t-8 -22l-88 -116q-15 -18 -30 -18q-16 0 -31 18l-92 116q-7 8 -7 22z" />
    <glyph glyph-name="s" unicode="s" 
d="M250.5 8q-41.5 13 -60.5 25q-10 7 -17 7q-5 0 -14 -9q-6 -6 -11.5 -9t-13.5 -3q-10 0 -18 7.5t-10 21.5q-2 13 -5 46l-3 22q-3 14 -3 29q0 12 7.5 20.5t19.5 8.5q10 0 17.5 -6.5t11.5 -16.5q9 -22 35 -42.5t64 -34t81 -13.5q63 0 95 21.5t32 55.5q0 29 -32 45.5
t-119 23.5q-190 15 -190 130q0 62 52 100.5t149 38.5q56 0 110 -18q15 -5 20 -5q6 0 17.5 6t23.5 6q11 0 18.5 -8t7.5 -21l-1 -69q0 -15 -6.5 -23.5t-17.5 -8.5q-13 0 -22 10t-19 26q-12 19 -49 32.5t-85 13.5q-63 0 -92.5 -21t-29.5 -45q0 -30 32.5 -45t115.5 -22
q97 -8 145 -44t48 -92q0 -43 -24.5 -78t-69 -55t-103.5 -20q-45 0 -86.5 13z" />
    <glyph glyph-name="sacute" unicode="&#x15b;" 
d="M250.5 8q-41.5 13 -60.5 25q-10 7 -17 7q-5 0 -14 -9q-6 -6 -11.5 -9t-13.5 -3q-10 0 -18 7.5t-10 21.5q-2 13 -5 46l-3 22q-3 14 -3 29q0 12 7.5 20.5t19.5 8.5q10 0 17.5 -6.5t11.5 -16.5q9 -22 35 -42.5t64 -34t81 -13.5q63 0 95 21.5t32 55.5q0 29 -32 45.5
t-119 23.5q-190 15 -190 130q0 62 52 100.5t149 38.5q56 0 110 -18q15 -5 20 -5q6 0 17.5 6t23.5 6q11 0 18.5 -8t7.5 -21l-1 -69q0 -15 -6.5 -23.5t-17.5 -8.5q-13 0 -22 10t-19 26q-12 19 -49 32.5t-85 13.5q-63 0 -92.5 -21t-29.5 -45q0 -30 32.5 -45t115.5 -22
q97 -8 145 -44t48 -92q0 -43 -24.5 -78t-69 -55t-103.5 -20q-45 0 -86.5 13zM208 578q-11 0 -19.5 6.5t-8.5 17.5q0 8 6 16.5t17 14.5l168 94q8 4 18 4q11 0 21 -5.5t14 -14.5q4 -10 4 -16q0 -11 -7 -20.5t-20 -15.5l-178 -78q-7 -3 -15 -3z" />
    <glyph glyph-name="scaron" unicode="&#x161;" 
d="M250.5 8q-41.5 13 -60.5 25q-10 7 -17 7q-5 0 -14 -9q-6 -6 -11.5 -9t-13.5 -3q-10 0 -18 7.5t-10 21.5q-2 13 -5 46l-3 22q-3 14 -3 29q0 12 7.5 20.5t19.5 8.5q10 0 17.5 -6.5t11.5 -16.5q9 -22 35 -42.5t64 -34t81 -13.5q63 0 95 21.5t32 55.5q0 29 -32 45.5
t-119 23.5q-190 15 -190 130q0 62 52 100.5t149 38.5q56 0 110 -18q15 -5 20 -5q6 0 17.5 6t23.5 6q11 0 18.5 -8t7.5 -21l-1 -69q0 -15 -6.5 -23.5t-17.5 -8.5q-13 0 -22 10t-19 26q-12 19 -49 32.5t-85 13.5q-63 0 -92.5 -21t-29.5 -45q0 -30 32.5 -45t115.5 -22
q97 -8 145 -44t48 -92q0 -43 -24.5 -78t-69 -55t-103.5 -20q-45 0 -86.5 13zM187 740q0 13 7 19q6 6 16 6q14 0 25 -12l65 -68q7 -8 16 -8q8 0 16 8l63 68q11 12 24 12q9 0 16 -6q8 -8 8 -19t-8 -22l-88 -116q-15 -18 -30 -18q-16 0 -31 18l-92 116q-7 8 -7 22z" />
    <glyph glyph-name="scedilla" unicode="&#x15f;" 
d="M333 -28l-2 -9q0 -6 4.5 -8t13.5 -2q54 0 78 -20t24 -53q0 -41 -35 -69t-83 -28q-56 0 -99 25q-17 11 -17 25q0 4 4 12q7 11 22 11q9 0 21 -5q32 -15 63 -15q21 0 36 10t15 26q0 30 -37 30l-27 -1q-9 -1 -23 -1q-43 0 -43 33q0 18 19 43q7 9 7 14q0 8 -16 16
q-22 6 -40.5 13.5t-27.5 13.5q-10 7 -17 7q-5 0 -14 -9q-6 -6 -11.5 -9t-13.5 -3q-10 0 -18 7.5t-10 21.5q-2 13 -5 46l-3 22q-3 14 -3 29q0 12 7.5 20.5t19.5 8.5q10 0 17.5 -6.5t11.5 -16.5q9 -22 35 -42.5t64 -34t81 -13.5q63 0 95 21.5t32 55.5q0 29 -32 45.5t-119 23.5
q-190 15 -190 130q0 62 52 100.5t149 38.5q56 0 110 -18q15 -5 20 -5q6 0 17.5 6t23.5 6q11 0 18.5 -8t7.5 -21l-1 -69q0 -15 -6.5 -23.5t-17.5 -8.5q-13 0 -22 10t-19 26q-12 19 -49 32.5t-85 13.5q-63 0 -92.5 -21t-29.5 -45q0 -30 32.5 -45t115.5 -22q97 -8 145 -44
t48 -92q0 -60 -45 -102t-121 -49q-2 -1 -6 -1h-5q-13 -3 -24 -24z" />
    <glyph glyph-name="germandbls" unicode="&#xdf;" horiz-adv-x="840" 
d="M64 6.5q-13 10.5 -13 26.5t13 25.5t37 9.5l41 -1q11 0 15 6t4 18v284q0 12 -13 12q-24 0 -35 -0.5t-14 -0.5q-34 0 -34 27q0 23 31 28q4 1 52 5q13 1 13 14q0 63 29.5 119t87 91t136.5 35q93 0 147 -53.5t54 -147.5q0 -16 -9 -28t-28 -13q-51 -4 -82 -33t-31 -64
q0 -38 32.5 -57t108.5 -22q101 -4 142 -41t41 -101q0 -67 -52.5 -107.5t-138.5 -40.5q-40 0 -78.5 10t-54.5 20q-10 7 -19 7q-7 0 -14 -9q-5 -8 -11 -11t-16 -3q-19 0 -24 29q-3 18 -5 46q-1 8 -3.5 23t-2.5 28q0 12 7.5 20.5t17.5 8.5q11 0 19 -6.5t11 -16.5
q11 -32 56.5 -57t101.5 -25q65 0 98.5 19.5t33.5 50.5q0 24 -10.5 39t-42 24.5t-90.5 12.5q-89 5 -134.5 44.5t-45.5 105.5q0 52 28 91.5t86 59.5q27 9 22 29q-11 50 -47.5 78t-84.5 28q-53 0 -89 -24t-54 -62t-18 -81v-409q0 -62 -46 -65q-11 0 -25.5 -1.5t-21.5 -1.5
q-24 -3 -45 -3q-20 0 -33 10.5z" />
    <glyph glyph-name="t" unicode="t" horiz-adv-x="420" 
d="M153.5 31q-31.5 35 -31.5 99q0 49 4 153q3 62 3 103q0 20 -15 20l-44 -1q-15 0 -24.5 7.5t-9.5 21.5q0 13 10 22t26 12q25 5 37 15t20 38q4 13 15 61q5 20 15 32t24 12q16 0 25 -11t9 -31q0 -22 -3 -46q-1 -8 -2 -20.5t-1 -29.5q0 -11 4.5 -15.5t15.5 -4.5l43 1
q14 1 39 1q23 0 35 -10t12 -24q0 -15 -12 -25t-30 -10q-15 0 -27.5 1t-21.5 2q-24 3 -43 3q-26 0 -26 -21l-2 -225q0 -50 11 -73t33 -23q15 0 26.5 9t20.5 20t14 16q23 23 42 23q16 0 24 -9t8 -22q0 -18 -22 -43.5t-56 -44t-69 -18.5q-45 0 -76.5 35z" />
    <glyph glyph-name="tcaron" unicode="&#x165;" horiz-adv-x="420" 
d="M369 124q8 -9 8 -22q0 -18 -22 -43.5t-56 -44t-69 -18.5q-45 0 -76.5 35t-31.5 99q0 49 4 153q3 62 3 103q0 20 -15 20l-44 -1q-15 0 -24.5 7.5t-9.5 21.5q0 13 10 22t26 12q25 5 37 15t20 38q4 13 15 61q6 29 22 39l-77 97q-7 8 -7 22q0 13 7 19q6 6 16 6q14 0 25 -12
l65 -68q7 -8 16 -8q8 0 16 8l63 68q11 12 24 12q9 0 16 -6q8 -8 8 -19t-8 -22l-88 -116q-11 -14 -25 -17v-1q0 -22 -3 -46q-1 -8 -2 -20.5t-1 -29.5q0 -11 4.5 -15.5t15.5 -4.5l43 1q14 1 39 1q23 0 35 -10t12 -24q0 -15 -12 -25t-30 -10q-15 0 -27.5 1t-21.5 2q-24 3 -43 3
q-26 0 -26 -21l-2 -225q0 -50 11 -73t33 -23q15 0 26.5 9t20.5 20t14 16q23 23 42 23q16 0 24 -9z" />
    <glyph glyph-name="uni0163" unicode="&#x163;" horiz-adv-x="420" 
d="M361.5 67.5q-15.5 -20.5 -41 -39t-53.5 -26.5v-1q0 -5 -11 -5q-18 0 -28 -24l-2 -9q0 -6 4.5 -8t13.5 -2q54 0 78 -20t24 -53q0 -41 -35 -69t-83 -28q-56 0 -99 25q-17 11 -17 25q0 4 4 12q7 11 22 11q9 0 21 -5q32 -15 63 -15q21 0 36 10t15 26q0 30 -37 30l-27 -1
q-9 -1 -23 -1q-43 0 -43 33q0 18 19 43q7 9 7 14q0 9 -19 17q-12 6 -12 12q0 8 18 9q-34 36 -34 102q0 49 4 153q3 62 3 103q0 20 -15 20l-44 -1q-15 0 -24.5 7.5t-9.5 21.5q0 13 10 22t26 12q25 5 37 15t20 38q4 13 15 61q5 20 15 32t24 12q16 0 25 -11t9 -31q0 -22 -3 -46
q-1 -8 -2 -20.5t-1 -29.5q0 -11 4.5 -15.5t15.5 -4.5l43 1q14 1 39 1q23 0 35 -10t12 -24q0 -15 -12 -25t-30 -10q-15 0 -27.5 1t-21.5 2q-24 3 -43 3q-26 0 -26 -21l-2 -225q0 -50 11 -73t33 -23q15 0 26.5 9t20.5 20t14 16q23 23 42 23q16 0 24 -9t8 -22
q0 -14 -15.5 -34.5z" />
    <glyph glyph-name="u" unicode="u" 
d="M188.5 13.5q-32.5 16.5 -54.5 53.5t-22 94v221q0 9 -5 12.5t-14 4.5q-6 1 -18.5 1.5t-19.5 1.5q-9 2 -16.5 9t-7.5 17q0 13 9.5 20.5t22.5 9.5q16 2 27 4.5t18 3.5q6 1 21.5 4.5t30.5 3.5q14 0 21.5 -9.5t7.5 -26.5l-1 -30q0 -25 -1 -92t-1 -147q0 -53 27 -78t67 -25
q32 0 66 19t56 48t22 57v186q0 13 -4.5 18t-14.5 6q-14 1 -24.5 1.5t-19.5 1.5q-11 2 -18.5 9.5t-7.5 18.5q0 23 33 30q11 2 49 6l25 4q26 4 31 4q25 0 25 -31v-330q0 -16 7.5 -23t21.5 -7h35q13 0 22 -8t9 -19q0 -16 -9.5 -23t-24.5 -11.5t-24 -7.5q-8 -3 -21 -8t-23 -7.5
t-20 -2.5q-17 0 -25 9t-14 25q-6 15 -9.5 21t-12.5 6q-10 0 -38 -20q-28 -19 -56 -30t-61 -11q-34 0 -66.5 16.5z" />
    <glyph glyph-name="uacute" unicode="&#xfa;" 
d="M188.5 13.5q-32.5 16.5 -54.5 53.5t-22 94v221q0 9 -5 12.5t-14 4.5q-6 1 -18.5 1.5t-19.5 1.5q-9 2 -16.5 9t-7.5 17q0 13 9.5 20.5t22.5 9.5q16 2 27 4.5t18 3.5q6 1 21.5 4.5t30.5 3.5q14 0 21.5 -9.5t7.5 -26.5l-1 -30q0 -25 -1 -92t-1 -147q0 -53 27 -78t67 -25
q32 0 66 19t56 48t22 57v186q0 13 -4.5 18t-14.5 6q-14 1 -24.5 1.5t-19.5 1.5q-11 2 -18.5 9.5t-7.5 18.5q0 23 33 30q11 2 49 6l25 4q26 4 31 4q25 0 25 -31v-330q0 -16 7.5 -23t21.5 -7h35q13 0 22 -8t9 -19q0 -16 -9.5 -23t-24.5 -11.5t-24 -7.5q-8 -3 -21 -8t-23 -7.5
t-20 -2.5q-17 0 -25 9t-14 25q-6 15 -9.5 21t-12.5 6q-10 0 -38 -20q-28 -19 -56 -30t-61 -11q-34 0 -66.5 16.5zM208 578q-11 0 -19.5 6.5t-8.5 17.5q0 8 6 16.5t17 14.5l168 94q8 4 18 4q11 0 21 -5.5t14 -14.5q4 -10 4 -16q0 -11 -7 -20.5t-20 -15.5l-178 -78
q-7 -3 -15 -3z" />
    <glyph glyph-name="ucircumflex" unicode="&#xfb;" 
d="M188.5 13.5q-32.5 16.5 -54.5 53.5t-22 94v221q0 9 -5 12.5t-14 4.5q-6 1 -18.5 1.5t-19.5 1.5q-9 2 -16.5 9t-7.5 17q0 13 9.5 20.5t22.5 9.5q16 2 27 4.5t18 3.5q6 1 21.5 4.5t30.5 3.5q14 0 21.5 -9.5t7.5 -26.5l-1 -30q0 -25 -1 -92t-1 -147q0 -53 27 -78t67 -25
q32 0 66 19t56 48t22 57v186q0 13 -4.5 18t-14.5 6q-14 1 -24.5 1.5t-19.5 1.5q-11 2 -18.5 9.5t-7.5 18.5q0 23 33 30q11 2 49 6l25 4q26 4 31 4q25 0 25 -31v-330q0 -16 7.5 -23t21.5 -7h35q13 0 22 -8t9 -19q0 -16 -9.5 -23t-24.5 -11.5t-24 -7.5q-8 -3 -21 -8t-23 -7.5
t-20 -2.5q-17 0 -25 9t-14 25q-6 15 -9.5 21t-12.5 6q-10 0 -38 -20q-28 -19 -56 -30t-61 -11q-34 0 -66.5 16.5zM187 610q0 11 8 22l88 116q15 18 30 18q16 0 31 -18l92 -116q7 -8 7 -22q0 -13 -7 -19q-6 -6 -16 -6q-15 0 -25 12l-65 68q-7 8 -16 8q-8 0 -16 -8l-63 -68
q-11 -12 -24 -12q-8 0 -16 6q-8 8 -8 19z" />
    <glyph glyph-name="udieresis" unicode="&#xfc;" 
d="M188.5 13.5q-32.5 16.5 -54.5 53.5t-22 94v221q0 9 -5 12.5t-14 4.5q-6 1 -18.5 1.5t-19.5 1.5q-9 2 -16.5 9t-7.5 17q0 13 9.5 20.5t22.5 9.5q16 2 27 4.5t18 3.5q6 1 21.5 4.5t30.5 3.5q14 0 21.5 -9.5t7.5 -26.5l-1 -30q0 -25 -1 -92t-1 -147q0 -53 27 -78t67 -25
q32 0 66 19t56 48t22 57v186q0 13 -4.5 18t-14.5 6q-14 1 -24.5 1.5t-19.5 1.5q-11 2 -18.5 9.5t-7.5 18.5q0 23 33 30q11 2 49 6l25 4q26 4 31 4q25 0 25 -31v-330q0 -16 7.5 -23t21.5 -7h35q13 0 22 -8t9 -19q0 -16 -9.5 -23t-24.5 -11.5t-24 -7.5q-8 -3 -21 -8t-23 -7.5
t-20 -2.5q-17 0 -25 9t-14 25q-6 15 -9.5 21t-12.5 6q-10 0 -38 -20q-28 -19 -56 -30t-61 -11q-34 0 -66.5 16.5zM185 639q-14 14 -14 34t14 33.5t34 13.5t34 -13.5t14 -33.5t-14 -34t-34 -14t-34 14zM376.5 639q-14.5 14 -14.5 34q0 19 14.5 33t34.5 14t34 -13.5t14 -33.5
t-14 -34t-34 -14t-34.5 14z" />
    <glyph glyph-name="ugrave" unicode="&#xf9;" 
d="M188.5 13.5q-32.5 16.5 -54.5 53.5t-22 94v221q0 9 -5 12.5t-14 4.5q-6 1 -18.5 1.5t-19.5 1.5q-9 2 -16.5 9t-7.5 17q0 13 9.5 20.5t22.5 9.5q16 2 27 4.5t18 3.5q6 1 21.5 4.5t30.5 3.5q14 0 21.5 -9.5t7.5 -26.5l-1 -30q0 -25 -1 -92t-1 -147q0 -53 27 -78t67 -25
q32 0 66 19t56 48t22 57v186q0 13 -4.5 18t-14.5 6q-14 1 -24.5 1.5t-19.5 1.5q-11 2 -18.5 9.5t-7.5 18.5q0 23 33 30q11 2 49 6l25 4q26 4 31 4q25 0 25 -31v-330q0 -16 7.5 -23t21.5 -7h35q13 0 22 -8t9 -19q0 -16 -9.5 -23t-24.5 -11.5t-24 -7.5q-8 -3 -21 -8t-23 -7.5
t-20 -2.5q-17 0 -25 9t-14 25q-6 15 -9.5 21t-12.5 6q-10 0 -38 -20q-28 -19 -56 -30t-61 -11q-34 0 -66.5 16.5zM198 674.5q-7 9.5 -7 20.5q0 16 11.5 26.5t27.5 10.5q8 0 18 -5l168 -94q11 -6 17 -14.5t6 -16.5q0 -11 -8 -17.5t-20 -6.5q-8 0 -15 3l-178 78
q-13 6 -20 15.5z" />
    <glyph glyph-name="uring" unicode="&#x16f;" 
d="M188.5 13.5q-32.5 16.5 -54.5 53.5t-22 94v221q0 9 -5 12.5t-14 4.5q-6 1 -18.5 1.5t-19.5 1.5q-9 2 -16.5 9t-7.5 17q0 13 9.5 20.5t22.5 9.5q16 2 27 4.5t18 3.5q6 1 21.5 4.5t30.5 3.5q14 0 21.5 -9.5t7.5 -26.5l-1 -30q0 -25 -1 -92t-1 -147q0 -53 27 -78t67 -25
q32 0 66 19t56 48t22 57v186q0 13 -4.5 18t-14.5 6q-14 1 -24.5 1.5t-19.5 1.5q-11 2 -18.5 9.5t-7.5 18.5q0 23 33 30q11 2 49 6l25 4q26 4 31 4q25 0 25 -31v-330q0 -16 7.5 -23t21.5 -7h35q13 0 22 -8t9 -19q0 -16 -9.5 -23t-24.5 -11.5t-24 -7.5q-8 -3 -21 -8t-23 -7.5
t-20 -2.5q-17 0 -25 9t-14 25q-6 15 -9.5 21t-12.5 6q-10 0 -38 -20q-28 -19 -56 -30t-61 -11q-34 0 -66.5 16.5zM244 579.5q-28 27.5 -28 65.5q0 40 28.5 68t72.5 28q43 0 70 -27t27 -66t-27 -67.5t-74 -28.5q-41 0 -69 27.5zM348.5 610.5q13.5 14.5 13.5 34.5q0 24 -13 39
t-35 15q-18 0 -32 -16t-14 -35q0 -24 14 -38t33 -14q20 0 33.5 14.5z" />
    <glyph glyph-name="v" unicode="v" 
d="M200 200.5q-63 119.5 -93 178.5q-7 13 -15 19.5t-21 6.5q-16 0 -27.5 8.5t-11.5 21.5q0 16 11.5 26t27.5 10l27 -1q32 -2 55 -2q18 0 44 2l31 1q18 0 30.5 -9t12.5 -24q0 -14 -11.5 -23.5t-26.5 -9.5h-21q-17 0 -17 -12l2 -8l122 -243q6 -12 16 -12q12 0 18 15l9 22
l85 207q4 12 4 19q0 11 -12 12q-11 2 -21 11t-10 21q0 17 13 25.5t29 8.5q17 0 26 -1l28 -1q16 0 24 1l29 1q19 0 30 -10.5t11 -23.5q0 -12 -9.5 -21.5t-23.5 -10.5q-12 -1 -29 -1q-15 0 -21 -14l-163 -374q-9 -18 -26 -18t-28 18q-35 65 -98 184.5z" />
    <glyph glyph-name="w" unicode="w" horiz-adv-x="840" 
d="M59 404q-17 0 -28.5 9.5t-11.5 24.5q0 14 11 23.5t29 9.5l35 -1q24 -2 43 -2q14 0 40 2l31 1q18 0 28 -9t10 -23q0 -19 -14.5 -27t-43.5 -8q-12 0 -15.5 -5.5t-0.5 -13.5l119 -241q8 -16 18 -16q11 0 18 18q27 64 32 74q11 27 36 85q3 9 3 15q0 8 -3 14l-20 43
q-6 13 -16.5 19.5t-27.5 8.5q-15 1 -24.5 11t-9.5 22q0 13 12 23t30 10l36 -1q26 -2 43 -2t43 2l34 1q18 0 28.5 -9t10.5 -24q0 -13 -11 -23t-26 -10h-38q-9 0 -11.5 -5.5t0.5 -12.5l110 -223q8 -16 15 -16q8 0 14 16l85 210q3 11 3 17q0 12 -13 14t-23 10.5t-10 20.5
q0 15 10.5 25t30.5 10q16 0 26 -1l32 -1l31 1q8 1 23 1q18 0 28.5 -10t10.5 -22q0 -14 -10 -24t-26 -10q-20 0 -28 -1q-6 -1 -12 -7t-9 -14l-147 -367q-8 -17 -21 -17q-15 0 -22 17l-108 229q-3 7 -8 7q-6 0 -9 -8l-93 -228q-3 -7 -8.5 -11.5t-11.5 -4.5q-12 0 -22 16
l-191 361q-13 27 -36 27z" />
    <glyph glyph-name="wacute" unicode="&#x1e83;" horiz-adv-x="840" 
d="M59 404q-17 0 -28.5 9.5t-11.5 24.5q0 14 11 23.5t29 9.5l35 -1q24 -2 43 -2q14 0 40 2l31 1q18 0 28 -9t10 -23q0 -19 -14.5 -27t-43.5 -8q-12 0 -15.5 -5.5t-0.5 -13.5l119 -241q8 -16 18 -16q11 0 18 18q27 64 32 74q11 27 36 85q3 9 3 15q0 8 -3 14l-20 43
q-6 13 -16.5 19.5t-27.5 8.5q-15 1 -24.5 11t-9.5 22q0 13 12 23t30 10l36 -1q26 -2 43 -2t43 2l34 1q18 0 28.5 -9t10.5 -24q0 -13 -11 -23t-26 -10h-38q-9 0 -11.5 -5.5t0.5 -12.5l110 -223q8 -16 15 -16q8 0 14 16l85 210q3 11 3 17q0 12 -13 14t-23 10.5t-10 20.5
q0 15 10.5 25t30.5 10q16 0 26 -1l32 -1l31 1q8 1 23 1q18 0 28.5 -10t10.5 -22q0 -14 -10 -24t-26 -10q-20 0 -28 -1q-6 -1 -12 -7t-9 -14l-147 -367q-8 -17 -21 -17q-15 0 -22 17l-108 229q-3 7 -8 7q-6 0 -9 -8l-93 -228q-3 -7 -8.5 -11.5t-11.5 -4.5q-12 0 -22 16
l-191 361q-13 27 -36 27zM313 578q-11 0 -19.5 6.5t-8.5 17.5q0 8 6 16.5t17 14.5l168 94q8 4 18 4q11 0 21 -5.5t14 -14.5q4 -10 4 -16q0 -11 -7 -20.5t-20 -15.5l-178 -78q-7 -3 -15 -3z" />
    <glyph glyph-name="wcircumflex" unicode="&#x175;" horiz-adv-x="840" 
d="M59 404q-17 0 -28.5 9.5t-11.5 24.5q0 14 11 23.5t29 9.5l35 -1q24 -2 43 -2q14 0 40 2l31 1q18 0 28 -9t10 -23q0 -19 -14.5 -27t-43.5 -8q-12 0 -15.5 -5.5t-0.5 -13.5l119 -241q8 -16 18 -16q11 0 18 18q27 64 32 74q11 27 36 85q3 9 3 15q0 8 -3 14l-20 43
q-6 13 -16.5 19.5t-27.5 8.5q-15 1 -24.5 11t-9.5 22q0 13 12 23t30 10l36 -1q26 -2 43 -2t43 2l34 1q18 0 28.5 -9t10.5 -24q0 -13 -11 -23t-26 -10h-38q-9 0 -11.5 -5.5t0.5 -12.5l110 -223q8 -16 15 -16q8 0 14 16l85 210q3 11 3 17q0 12 -13 14t-23 10.5t-10 20.5
q0 15 10.5 25t30.5 10q16 0 26 -1l32 -1l31 1q8 1 23 1q18 0 28.5 -10t10.5 -22q0 -14 -10 -24t-26 -10q-20 0 -28 -1q-6 -1 -12 -7t-9 -14l-147 -367q-8 -17 -21 -17q-15 0 -22 17l-108 229q-3 7 -8 7q-6 0 -9 -8l-93 -228q-3 -7 -8.5 -11.5t-11.5 -4.5q-12 0 -22 16
l-191 361q-13 27 -36 27zM292 610q0 11 8 22l88 116q15 18 30 18q16 0 31 -18l92 -116q7 -8 7 -22q0 -13 -7 -19q-6 -6 -16 -6q-15 0 -25 12l-65 68q-7 8 -16 8q-8 0 -16 -8l-63 -68q-11 -12 -24 -12q-8 0 -16 6q-8 8 -8 19z" />
    <glyph glyph-name="wdieresis" unicode="&#x1e85;" horiz-adv-x="840" 
d="M59 404q-17 0 -28.5 9.5t-11.5 24.5q0 14 11 23.5t29 9.5l35 -1q24 -2 43 -2q14 0 40 2l31 1q18 0 28 -9t10 -23q0 -19 -14.5 -27t-43.5 -8q-12 0 -15.5 -5.5t-0.5 -13.5l119 -241q8 -16 18 -16q11 0 18 18q27 64 32 74q11 27 36 85q3 9 3 15q0 8 -3 14l-20 43
q-6 13 -16.5 19.5t-27.5 8.5q-15 1 -24.5 11t-9.5 22q0 13 12 23t30 10l36 -1q26 -2 43 -2t43 2l34 1q18 0 28.5 -9t10.5 -24q0 -13 -11 -23t-26 -10h-38q-9 0 -11.5 -5.5t0.5 -12.5l110 -223q8 -16 15 -16q8 0 14 16l85 210q3 11 3 17q0 12 -13 14t-23 10.5t-10 20.5
q0 15 10.5 25t30.5 10q16 0 26 -1l32 -1l31 1q8 1 23 1q18 0 28.5 -10t10.5 -22q0 -14 -10 -24t-26 -10q-20 0 -28 -1q-6 -1 -12 -7t-9 -14l-147 -367q-8 -17 -21 -17q-15 0 -22 17l-108 229q-3 7 -8 7q-6 0 -9 -8l-93 -228q-3 -7 -8.5 -11.5t-11.5 -4.5q-12 0 -22 16
l-191 361q-13 27 -36 27zM290 639q-14 14 -14 34t14 33.5t34 13.5t34 -13.5t14 -33.5t-14 -34t-34 -14t-34 14zM481.5 639q-14.5 14 -14.5 34q0 19 14.5 33t34.5 14t34 -13.5t14 -33.5t-14 -34t-34 -14t-34.5 14z" />
    <glyph glyph-name="wgrave" unicode="&#x1e81;" horiz-adv-x="840" 
d="M59 404q-17 0 -28.5 9.5t-11.5 24.5q0 14 11 23.5t29 9.5l35 -1q24 -2 43 -2q14 0 40 2l31 1q18 0 28 -9t10 -23q0 -19 -14.5 -27t-43.5 -8q-12 0 -15.5 -5.5t-0.5 -13.5l119 -241q8 -16 18 -16q11 0 18 18q27 64 32 74q11 27 36 85q3 9 3 15q0 8 -3 14l-20 43
q-6 13 -16.5 19.5t-27.5 8.5q-15 1 -24.5 11t-9.5 22q0 13 12 23t30 10l36 -1q26 -2 43 -2t43 2l34 1q18 0 28.5 -9t10.5 -24q0 -13 -11 -23t-26 -10h-38q-9 0 -11.5 -5.5t0.5 -12.5l110 -223q8 -16 15 -16q8 0 14 16l85 210q3 11 3 17q0 12 -13 14t-23 10.5t-10 20.5
q0 15 10.5 25t30.5 10q16 0 26 -1l32 -1l31 1q8 1 23 1q18 0 28.5 -10t10.5 -22q0 -14 -10 -24t-26 -10q-20 0 -28 -1q-6 -1 -12 -7t-9 -14l-147 -367q-8 -17 -21 -17q-15 0 -22 17l-108 229q-3 7 -8 7q-6 0 -9 -8l-93 -228q-3 -7 -8.5 -11.5t-11.5 -4.5q-12 0 -22 16
l-191 361q-13 27 -36 27zM303 674.5q-7 9.5 -7 20.5q0 16 11.5 26.5t27.5 10.5q8 0 18 -5l168 -94q11 -6 17 -14.5t6 -16.5q0 -11 -8 -17.5t-20 -6.5q-8 0 -15 3l-178 78q-13 6 -20 15.5z" />
    <glyph glyph-name="x" unicode="x" 
d="M172 -2q-19 3 -41 3q-15 0 -35 -2q-18 -2 -29 -2q-17 0 -28.5 9.5t-11.5 23.5t10.5 24t29.5 11q16 1 43 26l152 140q3 3 3 7q0 7 -6 11l-133 131q-12 12 -21 18.5t-19 6.5h-12q-18 0 -29 10t-11 24q0 13 11.5 23t28.5 10l23 -1q21 -3 51 -3q19 0 53 2q26 2 37 2
q20 0 31 -9.5t11 -23.5t-11 -24t-27 -10h-32q-6 0 -9.5 -3.5t-3.5 -8.5q0 -7 7 -13l94 -90q7 -7 13 -7q7 0 13 6l105 96q9 8 9 14t-9 6q-20 0 -31 9t-11 23t11 24t26 10q17 0 26 -1l51 -1l29 1q8 1 23 1q20 0 31 -9.5t11 -23.5q0 -15 -11 -24t-31 -9q-21 0 -29 -3.5
t-22 -16.5l-139 -131q-7 -7 -7 -14q0 -5 5 -10l146 -139q17 -16 25.5 -21t25.5 -5h6q16 0 27.5 -10t11.5 -22q0 -17 -11 -26t-28 -9l-20 1q-45 3 -59 3q-26 0 -58 -2q-26 -2 -35 -2q-20 0 -31 10.5t-11 23.5t11.5 23t33.5 10h14q7 0 12 4t5 9q0 6 -5 11l-106 104q-4 4 -9 4
q-4 0 -8 -4l-111 -104q-7 -7 -7 -14q0 -10 11 -10h10q21 0 32.5 -9t11.5 -24q0 -17 -13 -26.5t-30 -9.5q-8 0 -30 2z" />
    <glyph glyph-name="y" unicode="y" 
d="M123 -228.5q-21 14.5 -21 36.5q0 15 10.5 26t29.5 12q22 1 37.5 8.5t30.5 25.5q18 21 34 53.5t24 56.5q5 15 5 25q0 8 -3 14l-160 342q-5 12 -16.5 21t-23.5 11q-16 3 -28 11.5t-12 23.5q0 16 10 25t28 9l34 -1q28 -2 39 -2q14 0 42 2l29 1q18 0 28 -9t10 -23
q0 -19 -14 -26.5t-41 -10.5q-8 -1 -13 -5.5t-5 -12.5q0 -4 4 -14l112 -227q6 -14 17 -14q10 0 16 14l91 230q3 8 3 13q0 7 -7.5 10.5t-25.5 5.5q-17 2 -28 11t-11 23q0 15 10 25t30 10q17 0 45 -2t47 -2q22 0 50 2q22 2 33 2q17 0 27 -8t10 -23q0 -14 -8 -23t-23 -12
q-5 -1 -48 -4q-25 -2 -37 -31l-194 -497q-24 -62 -46 -87q-15 -16 -30.5 -23t-39.5 -7q-30 0 -51 14.5z" />
    <glyph glyph-name="yacute" unicode="&#xfd;" 
d="M123 -228.5q-21 14.5 -21 36.5q0 15 10.5 26t29.5 12q22 1 37.5 8.5t30.5 25.5q18 21 34 53.5t24 56.5q5 15 5 25q0 8 -3 14l-160 342q-5 12 -16.5 21t-23.5 11q-16 3 -28 11.5t-12 23.5q0 16 10 25t28 9l34 -1q28 -2 39 -2q14 0 42 2l29 1q18 0 28 -9t10 -23
q0 -19 -14 -26.5t-41 -10.5q-8 -1 -13 -5.5t-5 -12.5q0 -4 4 -14l112 -227q6 -14 17 -14q10 0 16 14l91 230q3 8 3 13q0 7 -7.5 10.5t-25.5 5.5q-17 2 -28 11t-11 23q0 15 10 25t30 10q17 0 45 -2t47 -2q22 0 50 2q22 2 33 2q17 0 27 -8t10 -23q0 -14 -8 -23t-23 -12
q-5 -1 -48 -4q-25 -2 -37 -31l-194 -497q-24 -62 -46 -87q-15 -16 -30.5 -23t-39.5 -7q-30 0 -51 14.5zM208 578q-11 0 -19.5 6.5t-8.5 17.5q0 8 6 16.5t17 14.5l168 94q8 4 18 4q11 0 21 -5.5t14 -14.5q4 -10 4 -16q0 -11 -7 -20.5t-20 -15.5l-178 -78q-7 -3 -15 -3z" />
    <glyph glyph-name="ycircumflex" unicode="&#x177;" 
d="M123 -228.5q-21 14.5 -21 36.5q0 15 10.5 26t29.5 12q22 1 37.5 8.5t30.5 25.5q18 21 34 53.5t24 56.5q5 15 5 25q0 8 -3 14l-160 342q-5 12 -16.5 21t-23.5 11q-16 3 -28 11.5t-12 23.5q0 16 10 25t28 9l34 -1q28 -2 39 -2q14 0 42 2l29 1q18 0 28 -9t10 -23
q0 -19 -14 -26.5t-41 -10.5q-8 -1 -13 -5.5t-5 -12.5q0 -4 4 -14l112 -227q6 -14 17 -14q10 0 16 14l91 230q3 8 3 13q0 7 -7.5 10.5t-25.5 5.5q-17 2 -28 11t-11 23q0 15 10 25t30 10q17 0 45 -2t47 -2q22 0 50 2q22 2 33 2q17 0 27 -8t10 -23q0 -14 -8 -23t-23 -12
q-5 -1 -48 -4q-25 -2 -37 -31l-194 -497q-24 -62 -46 -87q-15 -16 -30.5 -23t-39.5 -7q-30 0 -51 14.5zM187 610q0 11 8 22l88 116q15 18 30 18q16 0 31 -18l92 -116q7 -8 7 -22q0 -13 -7 -19q-6 -6 -16 -6q-15 0 -25 12l-65 68q-7 8 -16 8q-8 0 -16 -8l-63 -68
q-11 -12 -24 -12q-8 0 -16 6q-8 8 -8 19z" />
    <glyph glyph-name="ydieresis" unicode="&#xff;" 
d="M123 -228.5q-21 14.5 -21 36.5q0 15 10.5 26t29.5 12q22 1 37.5 8.5t30.5 25.5q18 21 34 53.5t24 56.5q5 15 5 25q0 8 -3 14l-160 342q-5 12 -16.5 21t-23.5 11q-16 3 -28 11.5t-12 23.5q0 16 10 25t28 9l34 -1q28 -2 39 -2q14 0 42 2l29 1q18 0 28 -9t10 -23
q0 -19 -14 -26.5t-41 -10.5q-8 -1 -13 -5.5t-5 -12.5q0 -4 4 -14l112 -227q6 -14 17 -14q10 0 16 14l91 230q3 8 3 13q0 7 -7.5 10.5t-25.5 5.5q-17 2 -28 11t-11 23q0 15 10 25t30 10q17 0 45 -2t47 -2q22 0 50 2q22 2 33 2q17 0 27 -8t10 -23q0 -14 -8 -23t-23 -12
q-5 -1 -48 -4q-25 -2 -37 -31l-194 -497q-24 -62 -46 -87q-15 -16 -30.5 -23t-39.5 -7q-30 0 -51 14.5zM185 639q-14 14 -14 34t14 33.5t34 13.5t34 -13.5t14 -33.5t-14 -34t-34 -14t-34 14zM376.5 639q-14.5 14 -14.5 34q0 19 14.5 33t34.5 14t34 -13.5t14 -33.5t-14 -34
t-34 -14t-34.5 14z" />
    <glyph glyph-name="ygrave" unicode="&#x1ef3;" 
d="M123 -228.5q-21 14.5 -21 36.5q0 15 10.5 26t29.5 12q22 1 37.5 8.5t30.5 25.5q18 21 34 53.5t24 56.5q5 15 5 25q0 8 -3 14l-160 342q-5 12 -16.5 21t-23.5 11q-16 3 -28 11.5t-12 23.5q0 16 10 25t28 9l34 -1q28 -2 39 -2q14 0 42 2l29 1q18 0 28 -9t10 -23
q0 -19 -14 -26.5t-41 -10.5q-8 -1 -13 -5.5t-5 -12.5q0 -4 4 -14l112 -227q6 -14 17 -14q10 0 16 14l91 230q3 8 3 13q0 7 -7.5 10.5t-25.5 5.5q-17 2 -28 11t-11 23q0 15 10 25t30 10q17 0 45 -2t47 -2q22 0 50 2q22 2 33 2q17 0 27 -8t10 -23q0 -14 -8 -23t-23 -12
q-5 -1 -48 -4q-25 -2 -37 -31l-194 -497q-24 -62 -46 -87q-15 -16 -30.5 -23t-39.5 -7q-30 0 -51 14.5zM198 674.5q-7 9.5 -7 20.5q0 16 11.5 26.5t27.5 10.5q8 0 18 -5l168 -94q11 -6 17 -14.5t6 -16.5q0 -11 -8 -17.5t-20 -6.5q-8 0 -15 3l-178 78q-13 6 -20 15.5z" />
    <glyph glyph-name="z" unicode="z" 
d="M68 8q-9 7 -9 20q0 14 15 29l35 37q96 104 125 131q44 42 92.5 87t69.5 64q10 7 10 17t-11 10h-111q-22 0 -82 5l-30 2q-17 0 -17 -21q0 -8 1 -20t1 -26q0 -31 -9 -45.5t-27 -14.5q-17 0 -27 14.5t-10 43.5v90q0 19 11 31.5t31 12.5l30 -2q79 -9 175 -9q64 0 130 4l45 2
q16 0 24.5 -9t8.5 -20q0 -14 -11 -28q-20 -20 -47 -45q-118 -111 -130 -123q-112 -108 -150 -149q-7 -7 -7 -15q0 -6 5.5 -10t15.5 -4h259q30 0 30 38v70q0 17 9 28t25 11q15 0 23.5 -9.5t8.5 -29.5q0 -15 -2 -33t-3 -33l-5 -53q-1 -26 -16 -40.5t-40 -14.5h-410
q-17 0 -26 7z" />
    <glyph glyph-name="zacute" unicode="&#x17a;" 
d="M68 8q-9 7 -9 20q0 14 15 29l35 37q96 104 125 131q44 42 92.5 87t69.5 64q10 7 10 17t-11 10h-111q-22 0 -82 5l-30 2q-17 0 -17 -21q0 -8 1 -20t1 -26q0 -31 -9 -45.5t-27 -14.5q-17 0 -27 14.5t-10 43.5v90q0 19 11 31.5t31 12.5l30 -2q79 -9 175 -9q64 0 130 4l45 2
q16 0 24.5 -9t8.5 -20q0 -14 -11 -28q-20 -20 -47 -45q-118 -111 -130 -123q-112 -108 -150 -149q-7 -7 -7 -15q0 -6 5.5 -10t15.5 -4h259q30 0 30 38v70q0 17 9 28t25 11q15 0 23.5 -9.5t8.5 -29.5q0 -15 -2 -33t-3 -33l-5 -53q-1 -26 -16 -40.5t-40 -14.5h-410
q-17 0 -26 7zM208 578q-11 0 -19.5 6.5t-8.5 17.5q0 8 6 16.5t17 14.5l168 94q8 4 18 4q11 0 21 -5.5t14 -14.5q4 -10 4 -16q0 -11 -7 -20.5t-20 -15.5l-178 -78q-7 -3 -15 -3z" />
    <glyph glyph-name="zcaron" unicode="&#x17e;" 
d="M68 8q-9 7 -9 20q0 14 15 29l35 37q96 104 125 131q44 42 92.5 87t69.5 64q10 7 10 17t-11 10h-111q-22 0 -82 5l-30 2q-17 0 -17 -21q0 -8 1 -20t1 -26q0 -31 -9 -45.5t-27 -14.5q-17 0 -27 14.5t-10 43.5v90q0 19 11 31.5t31 12.5l30 -2q79 -9 175 -9q64 0 130 4l45 2
q16 0 24.5 -9t8.5 -20q0 -14 -11 -28q-20 -20 -47 -45q-118 -111 -130 -123q-112 -108 -150 -149q-7 -7 -7 -15q0 -6 5.5 -10t15.5 -4h259q30 0 30 38v70q0 17 9 28t25 11q15 0 23.5 -9.5t8.5 -29.5q0 -15 -2 -33t-3 -33l-5 -53q-1 -26 -16 -40.5t-40 -14.5h-410
q-17 0 -26 7zM187 740q0 13 7 19q6 6 16 6q14 0 25 -12l65 -68q7 -8 16 -8q8 0 16 8l63 68q11 12 24 12q9 0 16 -6q8 -8 8 -19t-8 -22l-88 -116q-15 -18 -30 -18q-16 0 -31 18l-92 116q-7 8 -7 22z" />
    <glyph glyph-name="zdotaccent" unicode="&#x17c;" 
d="M68 8q-9 7 -9 20q0 14 15 29l35 37q96 104 125 131q44 42 92.5 87t69.5 64q10 7 10 17t-11 10h-111q-22 0 -82 5l-30 2q-17 0 -17 -21q0 -8 1 -20t1 -26q0 -31 -9 -45.5t-27 -14.5q-17 0 -27 14.5t-10 43.5v90q0 19 11 31.5t31 12.5l30 -2q79 -9 175 -9q64 0 130 4l45 2
q16 0 24.5 -9t8.5 -20q0 -14 -11 -28q-20 -20 -47 -45q-118 -111 -130 -123q-112 -108 -150 -149q-7 -7 -7 -15q0 -6 5.5 -10t15.5 -4h259q30 0 30 38v70q0 17 9 28t25 11q15 0 23.5 -9.5t8.5 -29.5q0 -15 -2 -33t-3 -33l-5 -53q-1 -26 -16 -40.5t-40 -14.5h-410
q-17 0 -26 7zM281 639q-14 14 -14 34t14 33.5t34 13.5t34 -13.5t14 -33.5t-14 -34t-34 -14t-34 14z" />
    <glyph glyph-name="ordfeminine" unicode="&#xaa;" horiz-adv-x="420" 
d="M71 495.5q-33 28.5 -33 68.5q0 78 77 111q37 16 71 21t39 6q23 5 23 48q0 27 -15 42.5t-45 15.5q-17 0 -31.5 -10t-30.5 -27q-14 -16 -37 -16q-17 0 -26.5 9t-9.5 24q0 20 20.5 35.5t51 24t56.5 8.5q61 0 98.5 -30.5t37.5 -80.5v-191q0 -10 5 -18t12 -8q5 0 13 2t12 2
q10 0 16.5 -7.5t6.5 -19.5q0 -15 -19 -26.5t-44 -11.5q-36 0 -55 22q-1 1 -5.5 6t-10.5 5t-12 -5q-18 -13 -35.5 -20.5t-51.5 -7.5q-45 0 -78 28.5zM216.5 544q16.5 14 18.5 15q8 6 10.5 14t2.5 22v34q0 16 -4 21t-22 5q-16 0 -38 -7t-43 -19t-30 -28t-9 -32t14.5 -27.5
t45.5 -11.5q38 0 54.5 14z" />
    <glyph glyph-name="ordmasculine" unicode="&#xba;" horiz-adv-x="420" 
d="M134 485.5q-36 20.5 -58.5 63.5t-22.5 106q0 94 46 147.5t120 53.5q73 0 116.5 -51.5t43.5 -150.5q0 -62 -23 -104.5t-61.5 -63.5t-83.5 -21q-41 0 -77 20.5zM277 551.5q24 33.5 24 97.5q0 78 -20.5 118.5t-64.5 40.5q-37 0 -63 -39t-26 -110q0 -73 24.5 -107t61.5 -34
q40 0 64 33.5z" />
    <glyph glyph-name="zero" unicode="0" 
d="M199 32q-50 43 -80 124t-30 191q0 116 29.5 197t81.5 122.5t119 41.5q58 0 109 -41.5t82 -124t31 -198.5q0 -118 -33 -198t-86 -118.5t-114 -38.5q-59 0 -109 43zM412.5 134q37.5 74 37.5 201q0 135 -34 222.5t-101 87.5q-39 0 -71 -33.5t-51 -99.5t-19 -159
q0 -147 37.5 -220t99.5 -73q64 0 101.5 74z" />
    <glyph glyph-name="one" unicode="1" 
d="M154.5 8q-11.5 10 -11.5 24t11.5 25.5t28.5 11.5l38 -1q26 -2 37 -2q14 0 22 12t8 23v487q0 15 -8 24t-22 9q-26 0 -42 1q-23 1 -38 9.5t-15 25.5q0 13 8.5 22.5t24.5 11.5q126 18 145 18q14 0 20 -7t6 -26v-581q0 -14 8.5 -21.5t22.5 -7.5l51 1q19 0 28.5 -9t9.5 -25
t-11 -25.5t-27 -9.5l-54 1q-48 2 -79 2q-25 0 -71 -2l-62 -1q-17 0 -28.5 10z" />
    <glyph glyph-name="two" unicode="2" 
d="M379 -2q-32 2 -109 4l-144 3q-14 0 -24 11t-10 26q0 52 8 85q13 51 47 103t84 97l41 36q63 54 94 90t31 75q0 40 -30.5 70t-83.5 30q-35 0 -58.5 -7.5t-46.5 -19.5q-4 -2 -13.5 -6t-15.5 -4q-17 0 -29 9.5t-12 29.5q0 9 9 20t19 18q25 17 66.5 28.5t93.5 11.5
q59 0 103.5 -23.5t68 -63t23.5 -85.5q0 -44 -25 -83t-57.5 -67.5t-79.5 -63.5q-19 -13 -35 -26q-105 -83 -124 -174q-1 -3 -1 -10q0 -12 7 -20t20 -8q45 0 129.5 6t91.5 6q10 1 17 7.5t14 21.5l20 40q13 26 34 26q14 0 22.5 -9.5t8.5 -23.5q0 -9 -6.5 -26t-8.5 -24
q-12 -32 -33 -72q-13 -24 -22.5 -32t-29.5 -8q-14 0 -54 2z" />
    <glyph glyph-name="three" unicode="3" 
d="M174.5 2.5q-34.5 13.5 -64.5 34.5q-24 18 -24 41q0 14 10 24t23 10q16 0 32 -13q20 -16 40 -24.5t56 -8.5q47 0 88.5 22.5t66.5 59.5t25 79q0 54 -32.5 87.5t-81.5 39.5q-5 1 -13 1q-9 0 -18 -1.5t-17 -1.5q-11 0 -20.5 8t-9.5 18q0 18 18 32l31 23q49 36 70 53
q31 26 31 68q0 31 -28.5 56.5t-63.5 25.5q-33 0 -53.5 -8.5t-36.5 -31.5q-8 -11 -16 -17t-20 -6q-14 0 -23 8.5t-9 20.5q0 17 13 36q19 28 55.5 49t86.5 21q54 0 94.5 -20.5t61.5 -54.5t21 -72q0 -26 -9 -44.5t-28 -37.5l-16 -16l-37 -37q-11 -10 -11 -17t14 -11
q56 -16 98 -59.5t42 -109.5q0 -67 -35 -121.5t-96 -86.5t-135 -32q-45 0 -79.5 13.5z" />
    <glyph glyph-name="four" unicode="4" 
d="M222 -1.5q-12 9.5 -12 24.5q0 16 12 26t37 10q17 0 39 -3l34 -2q13 0 19.5 10.5t6.5 26.5v98q0 5 -4 9t-10 4h-271q-16 0 -26 10.5t-10 23.5q0 17 12 34q52 67 162.5 206.5t165.5 207.5q10 11 16.5 15.5t16.5 4.5q11 0 18 -8t7 -21v-393q0 -8 3.5 -11t11.5 -3h84
q16 0 26.5 -7.5t10.5 -22.5t-10.5 -25.5t-26.5 -10.5h-87q-5 0 -8.5 -3.5t-3.5 -9.5v-98q0 -15 5 -24t14 -9l42 1q20 0 31.5 -10t11.5 -26q0 -34 -47 -34q-16 0 -56 2q-42 2 -61 2q-18 0 -54 -2q-38 -2 -61 -2q-26 0 -38 9.5zM358 282v247q0 8 -3.5 12.5t-8.5 4.5
q-6 0 -13 -8q-34 -43 -109.5 -140t-81.5 -107q-4 -5 -4 -11t5 -9t11 -3h188q16 0 16 14z" />
    <glyph glyph-name="five" unicode="5" 
d="M173 -15.5q-37 12.5 -59 26.5q-23 15 -23 43q0 14 9.5 27t21.5 13q8 0 13 -3t12 -10q16 -16 51.5 -26.5t73.5 -10.5q43 0 83.5 25.5t65 65.5t24.5 80q0 39 -20.5 71.5t-54.5 51.5t-74 19q-52 0 -86 -15q-15 -7 -23 -22q-7 -12 -13 -19t-17 -7q-12 0 -19.5 11t-4.5 26
t9.5 74t6.5 109l-2 148q0 20 14 27.5t34 7.5l118 4l122 4q21 0 30 -8.5t9 -26.5t-16 -41t-37 -23q-18 0 -36 2q-26 3 -72 5.5t-77 3.5q-23 0 -25 -28l-3 -73q-1 -42 -5 -100v-2q0 -7 3 -11.5t8 -4.5t9 3q57 37 119 37q40 0 82 -25t70 -70t28 -103q0 -75 -41.5 -136.5
t-106.5 -96.5t-132 -35q-32 0 -69 12.5z" />
    <glyph glyph-name="six" unicode="6" 
d="M153 64q-58 75 -58 205q0 112 55.5 234.5t155.5 233.5q8 9 20 15t25 6q15 0 25.5 -11.5t10.5 -26.5q0 -13 -6.5 -22.5t-21.5 -23.5q-153 -144 -189 -290l-1 -5q0 -5 2.5 -8t6.5 -3q6 0 12 6q22 22 61.5 38t85.5 16q56 0 101 -28.5t71 -77t26 -105.5q0 -62 -26.5 -114
t-77 -83t-119.5 -31q-101 0 -159 75zM379 71.5q33 20.5 52 56.5t19 80q0 64 -36.5 108.5t-93.5 44.5q-43 0 -76.5 -20.5t-51.5 -54t-18 -71.5q0 -72 36.5 -118t94.5 -46q41 0 74 20.5z" />
    <glyph glyph-name="seven" unicode="7" 
d="M258.5 9q-14.5 17 -14.5 45q0 44 13 104.5t38 120.5q18 42 67 124l28 45q62 99 74 131q2 6 2 10q0 9 -7 14.5t-19 5.5l-126 -2l-69 2l-40 2q-14 0 -26.5 -6.5t-17.5 -16.5q-14 -30 -23 -43t-22 -13q-14 0 -23.5 8.5t-9.5 23.5q0 16 10 53.5t19 55.5q10 19 24 28.5t31 9.5
q18 0 61 -9q26 -5 57 -9.5t61 -4.5q51 0 105 6q29 3 47 3q43 0 43 -59q0 -24 -12.5 -60t-25.5 -55q-4 -7 -54 -94q-9 -14 -15.5 -26.5t-12.5 -22.5q-17 -29 -33.5 -65.5t-24.5 -60.5q-17 -49 -17 -107q0 -29 2 -57q2 -24 2 -37q0 -26 -15 -43.5t-38 -17.5q-24 0 -38.5 17z
" />
    <glyph glyph-name="eight" unicode="8" 
d="M157 40.5q-60 51.5 -60 145.5q0 53 27 96t64 69q9 6 9 15q0 6 -7 12q-75 52 -75 147q0 50 25 92t72 66.5t109 24.5q53 0 95 -25t66 -65.5t24 -86.5q0 -91 -99 -154q-7 -4 -7 -10q0 -7 8 -10q50 -21 76.5 -43.5t37 -50.5t10.5 -69q0 -46 -26 -93.5t-75 -79.5t-114 -32
q-100 0 -160 51.5zM335 391q13 0 26 8q30 16 53.5 46.5t23.5 79.5q0 30 -15.5 58t-44 45.5t-65.5 17.5q-54 0 -85.5 -34t-31.5 -84q0 -47 27.5 -77t96.5 -57q8 -3 15 -3zM409.5 92.5q33.5 37.5 33.5 92.5q0 31 -12 51t-46 41t-105 52q-13 5 -19 5q-7 0 -21 -7
q-33 -18 -55 -56.5t-22 -77.5q0 -64 42.5 -101t104.5 -37q66 0 99.5 37.5z" />
    <glyph glyph-name="nine" unicode="9" 
d="M253.5 -48.5q-10.5 11.5 -10.5 26.5q0 13 6.5 22.5t21.5 23.5q153 144 189 290l1 5q0 5 -2.5 8t-6.5 3q-6 0 -12 -6q-22 -22 -61.5 -38t-85.5 -16q-55 0 -101 29t-72.5 77t-26.5 102q0 61 28 114t79.5 84.5t117.5 31.5q102 0 159.5 -76t57.5 -203q0 -112 -55.5 -234.5
t-155.5 -233.5q-8 -9 -20 -15t-25 -6q-15 0 -25.5 11.5zM386.5 357.5q33.5 20.5 51.5 54t18 71.5q0 44 -17 81.5t-47 59.5t-67 22q-38 0 -72 -21.5t-54.5 -58t-20.5 -79.5q0 -39 18 -73.5t48 -55.5t66 -21q43 0 76.5 20.5z" />
    <glyph glyph-name="zero.dnom" 
d="M229 -233.5q-37 27.5 -59 80.5t-22 126q0 115 47 177t123 62q43 0 80.5 -27.5t60.5 -82t23 -131.5q0 -78 -24 -130t-63.5 -77t-84.5 -25q-44 0 -81 27.5zM381 -157.5q25 44.5 25 123.5q0 83 -23 137.5t-68 54.5q-40 0 -67.5 -47.5t-27.5 -133.5q0 -91 25 -135t67 -44
q44 0 69 44.5z" />
    <glyph glyph-name="one.dnom" 
d="M168.5 -246q-11.5 10 -11.5 24t11.5 25.5t28.5 11.5l35 -1q26 -2 35 -2q14 0 22 12t8 23v246q0 19 -11 28t-41 13t-46.5 10t-16.5 18q0 25 33 29q98 14 117 14q14 0 20 -7.5t6 -25.5v-331q0 -14 8.5 -21.5t22.5 -7.5l46 1q19 0 28.5 -9t9.5 -25t-11 -25.5t-27 -9.5l-49 1
q-40 2 -71 2q-25 0 -63 -2l-55 -1q-17 0 -28.5 10z" />
    <glyph glyph-name="two.dnom" 
d="M357 -257l-75 3l-90 1q-15 0 -26 10.5t-11 23.5q0 26 5 46q9 34 33.5 69t59.5 64q55 45 83 75t28 58q0 22 -18 39t-55 17q-23 0 -37.5 -5.5t-31.5 -15.5q-15 -12 -28 -12t-20.5 7t-7.5 20q0 8 6 18t14 15q58 36 115 36q64 0 104 -31.5t40 -81.5q0 -34 -21.5 -65.5
t-46 -52t-62.5 -48.5q-46 -33 -61 -49.5t-22 -38.5q-2 -5 -2 -13q0 -10 6 -15.5t16 -5.5q28 0 112 7q12 1 22 7t15 14q3 5 10 21q10 19 27 19q14 0 22.5 -8.5t8.5 -20.5q0 -13 -9 -36q-7 -17 -24 -47q-9 -14 -16 -19.5t-21 -5.5z" />
    <glyph glyph-name="three.dnom" 
d="M174 -226q-9 6 -13.5 14.5t-4.5 16.5q0 13 8 22t22 9q15 0 27 -9q26 -19 60 -19q55 0 94 24.5t39 66.5q0 29 -19.5 48.5t-54.5 25.5q-4 1 -11 1q-9 0 -17.5 -1.5t-16.5 -1.5q-11 0 -19.5 6t-8.5 19q0 15 25 36q11 9 33 23l26 18q23 16 23 43q0 19 -15 30.5t-39 11.5
q-18 0 -34.5 -6.5t-25.5 -15.5q-8 -8 -13.5 -11.5t-14.5 -3.5t-16.5 6t-7.5 18q0 17 16 33q34 34 96 34q60 0 91.5 -25.5t31.5 -59.5q0 -22 -6.5 -35.5t-22.5 -26.5q-32 -26 -38 -30q-8 -5 -8 -11q0 -5 10 -8q39 -9 71 -41t32 -75q0 -44 -25.5 -80t-70 -56.5t-99.5 -20.5
q-53 0 -104 31z" />
    <glyph glyph-name="four.dnom" 
d="M343.5 -246q-9.5 10 -9.5 25v71q0 8 -5 13t-12 5h-164q-11 0 -17.5 7.5t-6.5 15.5q0 13 8 23l209 270q14 19 30 19q12 0 18 -7.5t6 -17.5v-238q0 -18 18 -18h49q25 0 25 -30q0 -11 -6.5 -17.5t-18.5 -6.5h-50q-7 0 -12 -5t-5 -13v-71q0 -14 -10 -24.5t-24 -10.5
q-13 0 -22.5 10zM329 -73q5 5 5 13v107q0 7 -4.5 11.5t-9.5 4.5t-10 -6l-79 -109q-5 -7 -5 -12q0 -6 4.5 -10t10.5 -4h74q9 0 14 5z" />
    <glyph glyph-name="five.dnom" 
d="M215.5 -251.5q-26.5 7.5 -40.5 17.5q-7 5 -11.5 13t-4.5 16q0 12 8.5 23.5t18.5 11.5q11 0 23 -10q21 -18 76 -18q30 0 55.5 14t40 37t14.5 47q0 37 -25.5 60.5t-67.5 23.5q-35 0 -57 -15q-6 -5 -12 -11t-11 -9t-12 -3q-9 0 -15.5 7.5t-5.5 16.5q2 14 6 51.5t4 68.5
l-1 77q0 13 11.5 24t27.5 11l161 5q15 0 22 -7.5t7 -19.5t-11.5 -27.5t-26.5 -15.5l-25 1q-17 1 -45 3t-44 3q-10 0 -16.5 -7t-7.5 -16q-2 -28 -2 -36q0 -16 -3 -45v-2q0 -6 4 -8t9 1q26 12 76 12q34 0 65.5 -17t51 -46.5t19.5 -63.5q0 -46 -31.5 -86.5t-80 -64.5t-94.5 -24
q-23 0 -49.5 7.5z" />
    <glyph glyph-name="six.dnom" 
d="M204.5 -211.5q-38.5 46.5 -38.5 124.5q0 73 36.5 150.5t107.5 138.5q15 13 30 13q14 0 22.5 -9t8.5 -25q0 -18 -20 -35q-40 -34 -67 -66t-45 -70q-3 -6 -3 -10q0 -9 8 -9q6 0 14 5q29 17 71 17q40 0 71 -18.5t47.5 -49t16.5 -63.5q0 -38 -18.5 -70t-53 -51t-79.5 -19
q-70 0 -108.5 46.5zM371 -183q26 25 26 61q0 32 -23.5 56.5t-55.5 24.5q-39 0 -63.5 -24t-24.5 -56q0 -37 22.5 -62t56.5 -25q36 0 62 25z" />
    <glyph glyph-name="seven.dnom" 
d="M268.5 -243.5q-13.5 12.5 -13.5 33.5q0 59 33 138q6 14 19.5 38.5t23.5 40.5l18 27q6 9 20 31.5t21 36.5q4 10 -3 18t-19 8h-51l-45 2l-25 1q-9 0 -17 -4.5t-11 -10.5q-17 -36 -33 -36q-13 0 -20 8t-7 22q0 10 6.5 34t12.5 36q13 25 35 25q14 0 37 -5q46 -10 87 -10
q34 0 74 4l34 2q27 0 27 -38q0 -16 -8 -39t-16 -35l-15 -21q-34 -47 -47 -70q-11 -20 -22.5 -43.5t-15.5 -37.5q-10 -32 -10 -64q0 -27 1 -41.5t1 -22.5q0 -16 -12 -28t-30 -12q-16 0 -29.5 12.5z" />
    <glyph glyph-name="eight.dnom" 
d="M232.5 -240.5q-35.5 17.5 -54.5 47.5t-19 66q0 33 16.5 58t36.5 41q8 6 8 17q0 10 -7 18q-21 18 -31 38.5t-10 49.5q0 48 38 82.5t107 34.5q41 0 71 -17t45 -43.5t15 -54.5q0 -33 -16.5 -53.5t-29.5 -29.5t-16 -11q-6 -4 -6 -9t6 -10q45 -24 62 -50t17 -61
q0 -28 -18.5 -58.5t-53 -51.5t-79.5 -21q-46 0 -81.5 17.5zM331 13q9 0 17 7q2 2 13.5 11.5t19.5 25t8 35.5q0 27 -21 48.5t-56 21.5t-57 -20t-22 -50q0 -24 16.5 -42t67.5 -35q10 -2 14 -2zM376 -181.5q25 22.5 25 48.5q0 23 -8 36.5t-27.5 24.5t-61.5 27q-7 3 -16 3
q-17 0 -35 -12q-19 -15 -27 -31t-8 -39q0 -33 28 -56.5t66 -23.5q39 0 64 22.5z" />
    <glyph glyph-name="nine.dnom" 
d="M267.5 -259q-8.5 9 -8.5 25q0 18 20 35q41 34 68 66t44 70q3 6 3 10q0 9 -8 9q-6 0 -14 -5q-29 -17 -71 -17q-60 0 -97.5 37.5t-37.5 94.5q0 35 18 67t52.5 52t80.5 20q70 0 108.5 -46.5t38.5 -124.5q0 -73 -36.5 -150.5t-107.5 -138.5q-15 -13 -30 -13q-14 0 -22.5 9z
M375.5 12q24.5 24 24.5 56q0 37 -23.5 64t-57.5 27q-38 0 -62 -27.5t-24 -61.5q0 -37 24.5 -59.5t54.5 -22.5q39 0 63.5 24z" />
    <glyph glyph-name="zero.numr" 
d="M229 489.5q-37 27.5 -59 80.5t-22 126q0 115 47 177t123 62q43 0 80.5 -27.5t60.5 -82t23 -131.5q0 -78 -24 -130t-63.5 -77t-84.5 -25q-44 0 -81 27.5zM381 565.5q25 44.5 25 123.5q0 83 -23 137.5t-68 54.5q-40 0 -67.5 -47.5t-27.5 -133.5q0 -91 25 -135t67 -44
q44 0 69 44.5z" />
    <glyph glyph-name="one.numr" 
d="M168.5 477q-11.5 10 -11.5 24t11.5 25.5t28.5 11.5l35 -1q26 -2 35 -2q14 0 22 12t8 23v246q0 19 -11 28t-41 13t-46.5 10t-16.5 18q0 25 33 29q98 14 117 14q14 0 20 -7.5t6 -25.5v-331q0 -14 8.5 -21.5t22.5 -7.5l46 1q19 0 28.5 -9t9.5 -25t-11 -25.5t-27 -9.5l-49 1
q-40 2 -71 2q-25 0 -63 -2l-55 -1q-17 0 -28.5 10z" />
    <glyph glyph-name="two.numr" 
d="M357 466l-75 3l-90 1q-15 0 -26 10.5t-11 23.5q0 26 5 46q9 34 33.5 69t59.5 64q55 45 83 75t28 58q0 22 -18 39t-55 17q-23 0 -37.5 -5.5t-31.5 -15.5q-15 -12 -28 -12t-20.5 7t-7.5 20q0 8 6 18t14 15q58 36 115 36q64 0 104 -31.5t40 -81.5q0 -34 -21.5 -65.5t-46 -52
t-62.5 -48.5q-46 -33 -61 -49.5t-22 -38.5q-2 -5 -2 -13q0 -10 6 -15.5t16 -5.5q28 0 112 7q12 1 22 7t15 14q3 5 10 21q10 19 27 19q14 0 22.5 -8.5t8.5 -20.5q0 -13 -9 -36q-7 -17 -24 -47q-9 -14 -16 -19.5t-21 -5.5z" />
    <glyph glyph-name="three.numr" 
d="M174 497q-9 6 -13.5 14.5t-4.5 16.5q0 13 8 22t22 9q15 0 27 -9q26 -19 60 -19q55 0 94 24.5t39 66.5q0 29 -19.5 48.5t-54.5 25.5q-4 1 -11 1q-9 0 -17.5 -1.5t-16.5 -1.5q-11 0 -19.5 6t-8.5 19q0 15 25 36q11 9 33 23l26 18q23 16 23 43q0 19 -15 30.5t-39 11.5
q-18 0 -34.5 -6.5t-25.5 -15.5q-8 -8 -13.5 -11.5t-14.5 -3.5t-16.5 6t-7.5 18q0 17 16 33q34 34 96 34q60 0 91.5 -25.5t31.5 -59.5q0 -22 -6.5 -35.5t-22.5 -26.5q-32 -26 -38 -30q-8 -5 -8 -11q0 -5 10 -8q39 -9 71 -41t32 -75q0 -44 -25.5 -80t-70 -56.5t-99.5 -20.5
q-53 0 -104 31z" />
    <glyph glyph-name="four.numr" 
d="M343.5 479q-9.5 10 -9.5 25v71q0 8 -5 13t-12 5h-164q-11 0 -17.5 7.5t-6.5 15.5q0 13 8 23l209 270q14 19 30 19q12 0 18 -7.5t6 -17.5v-238q0 -18 18 -18h49q25 0 25 -30q0 -11 -6.5 -17.5t-18.5 -6.5h-50q-7 0 -12 -5t-5 -13v-71q0 -14 -10 -24.5t-24 -10.5
q-13 0 -22.5 10zM329 652q5 5 5 13v107q0 7 -4.5 11.5t-9.5 4.5t-10 -6l-79 -109q-5 -7 -5 -12q0 -6 4.5 -10t10.5 -4h74q9 0 14 5z" />
    <glyph glyph-name="five.numr" 
d="M215.5 471.5q-26.5 7.5 -40.5 17.5q-7 5 -11.5 13t-4.5 16q0 12 8.5 23.5t18.5 11.5q11 0 23 -10q21 -18 76 -18q30 0 55.5 14t40 37t14.5 47q0 37 -25.5 60.5t-67.5 23.5q-35 0 -57 -15q-6 -5 -12 -11t-11 -9t-12 -3q-9 0 -15.5 7.5t-5.5 16.5q2 14 6 51.5t4 68.5l-1 77
q0 13 11.5 24t27.5 11l161 5q15 0 22 -7.5t7 -19.5t-11.5 -27.5t-26.5 -15.5l-25 1q-17 1 -45 3t-44 3q-10 0 -16.5 -7t-7.5 -16q-2 -28 -2 -36q0 -16 -3 -45v-2q0 -6 4 -8t9 1q26 12 76 12q34 0 65.5 -17t51 -46.5t19.5 -63.5q0 -46 -31.5 -86.5t-80 -64.5t-94.5 -24
q-23 0 -49.5 7.5z" />
    <glyph glyph-name="six.numr" 
d="M204.5 511.5q-38.5 46.5 -38.5 124.5q0 73 36.5 150.5t107.5 138.5q15 13 30 13q14 0 22.5 -9t8.5 -25q0 -18 -20 -35q-40 -34 -67 -66t-45 -70q-3 -6 -3 -10q0 -9 8 -9q6 0 14 5q29 17 71 17q40 0 71 -18.5t47.5 -49t16.5 -63.5q0 -38 -18.5 -70t-53 -51t-79.5 -19
q-70 0 -108.5 46.5zM371 540q26 25 26 61q0 32 -23.5 56.5t-55.5 24.5q-39 0 -63.5 -24t-24.5 -56q0 -37 22.5 -62t56.5 -25q36 0 62 25z" />
    <glyph glyph-name="seven.numr" 
d="M268.5 479.5q-13.5 12.5 -13.5 33.5q0 59 33 138q6 14 19.5 38.5t23.5 40.5l18 27q6 9 20 31.5t21 36.5q4 10 -3 18t-19 8h-51l-45 2l-25 1q-9 0 -17 -4.5t-11 -10.5q-17 -36 -33 -36q-13 0 -20 8t-7 22q0 10 6.5 34t12.5 36q13 25 35 25q14 0 37 -5q46 -10 87 -10
q34 0 74 4l34 2q27 0 27 -38q0 -16 -8 -39t-16 -35l-15 -21q-34 -47 -47 -70q-11 -20 -22.5 -43.5t-15.5 -37.5q-10 -32 -10 -64q0 -27 1 -41.5t1 -22.5q0 -16 -12 -28t-30 -12q-16 0 -29.5 12.5z" />
    <glyph glyph-name="eight.numr" 
d="M232.5 482.5q-35.5 17.5 -54.5 47.5t-19 66q0 33 16.5 58t36.5 41q8 6 8 17q0 10 -7 18q-21 18 -31 38.5t-10 49.5q0 48 38 82.5t107 34.5q41 0 71 -17t45 -43.5t15 -54.5q0 -33 -16.5 -53.5t-29.5 -29.5t-16 -11q-6 -4 -6 -9t6 -10q45 -24 62 -50t17 -61
q0 -28 -18.5 -58.5t-53 -51.5t-79.5 -21q-46 0 -81.5 17.5zM331 736q9 0 17 7q2 2 13.5 11.5t19.5 25t8 35.5q0 27 -21 48.5t-56 21.5t-57 -20t-22 -50q0 -24 16.5 -42t67.5 -35q10 -2 14 -2zM376 541.5q25 22.5 25 48.5q0 23 -8 36.5t-27.5 24.5t-61.5 27q-7 3 -16 3
q-17 0 -35 -12q-19 -15 -27 -31t-8 -39q0 -33 28 -56.5t66 -23.5q39 0 64 22.5z" />
    <glyph glyph-name="nine.numr" 
d="M267.5 464q-8.5 9 -8.5 25q0 18 20 35q41 34 68 66t44 70q3 6 3 10q0 9 -8 9q-6 0 -14 -5q-29 -17 -71 -17q-60 0 -97.5 37.5t-37.5 94.5q0 35 18 67t52.5 52t80.5 20q70 0 108.5 -46.5t38.5 -124.5q0 -73 -36.5 -150.5t-107.5 -138.5q-15 -13 -30 -13q-14 0 -22.5 9z
M375.5 735q24.5 24 24.5 56q0 37 -23.5 64t-57.5 27q-38 0 -62 -27.5t-24 -61.5q0 -37 24.5 -59.5t54.5 -22.5q39 0 63.5 24z" />
    <glyph glyph-name="uni00B9" unicode="&#xb9;" horiz-adv-x="420" 
d="M86.5 477q-11.5 10 -11.5 24t11.5 25.5t28.5 11.5q13 0 24.5 -1.5t20.5 -1.5q14 0 22 12t8 23v174q0 21 -7 29t-35 12t-43 9.5t-15 18.5q0 25 33 29l27 4q58 10 77 10q14 0 20 -7.5t6 -25.5v-259q0 -14 8.5 -21.5t22.5 -7.5q5 0 8 0.5t16 0.5q19 0 28.5 -9t9.5 -25
t-11 -25.5t-27 -9.5l-41 1q-28 2 -54 2q-25 0 -53 -2l-45 -1q-17 0 -28.5 10z" />
    <glyph glyph-name="uni00B2" unicode="&#xb2;" horiz-adv-x="420" 
d="M251 466q-34 2 -67 2l-75 1q-13 0 -22 8t-9 20q0 22 4 39q7 27 27.5 56t50.5 54q39 33 62 60t23 51q0 18 -13.5 30t-40.5 12q-19 0 -30.5 -5t-21.5 -13q-5 -4 -10.5 -7t-11.5 -3q-14 0 -21.5 6.5t-7.5 19.5q0 9 4.5 16.5t11.5 12.5q46 30 95 30q54 0 87 -26t33 -68
q0 -41 -30 -76t-68 -60q-32 -21 -47.5 -34.5t-21.5 -29.5q-2 -5 -2 -13q0 -16 19 -16q23 0 83 6q9 1 17.5 6t13.5 12l10 17q9 16 22 16q12 0 19 -6.5t7 -16.5q0 -8 -9 -38q-9 -26 -19 -43q-7 -12 -13.5 -16.5t-18.5 -4.5q-19 0 -30 1z" />
    <glyph glyph-name="uni00B3" unicode="&#xb3;" horiz-adv-x="420" 
d="M97 493q-9 8 -13.5 15t-4.5 17q0 12 7.5 20t19.5 8t23 -8t21.5 -12t26.5 -4q44 0 72 17.5t28 47.5q0 47 -51 57q-4 1 -11 1q-8 0 -15.5 -1t-14.5 -1q-10 0 -16.5 6t-6.5 16q0 9 3.5 15t12.5 13q26 21 51 39q21 15 21 34q0 13 -10.5 21t-30.5 8q-15 0 -28.5 -5.5
t-20.5 -15.5q-9 -12 -23 -12q-7 0 -14 7t-7 17q0 8 4.5 17t9.5 14q33 28 74 28q53 0 80 -22t27 -54q0 -14 -5.5 -24t-18.5 -21q-15 -13 -32 -25q-7 -5 -7 -8q0 -4 9 -7q33 -9 59 -35t26 -61q0 -36 -21 -65.5t-57.5 -46.5t-82.5 -17q-53 0 -84 27z" />
    <glyph glyph-name="fraction" unicode="&#x2044;" 
d="M74 311.5q-9 7.5 -9 19.5t9 20t21 8q72 0 108 -1l108 -1l112 1q37 1 111 1q13 0 22.5 -7.5t9.5 -20.5t-9 -20t-23 -7l-112 1q-37 1 -112 1q-72 0 -107 -1l-108 -1q-12 0 -21 7.5z" />
    <glyph glyph-name="onehalf" unicode="&#xbd;" 
d="M168.5 477q-11.5 10 -11.5 24t11.5 25.5t28.5 11.5l35 -1q26 -2 35 -2q14 0 22 12t8 23v246q0 19 -11 28t-41 13t-46.5 10t-16.5 18q0 25 33 29q98 14 117 14q14 0 20 -7.5t6 -25.5v-331q0 -14 8.5 -21.5t22.5 -7.5l46 1q19 0 28.5 -9t9.5 -25t-11 -25.5t-27 -9.5l-49 1
q-40 2 -71 2q-25 0 -63 -2l-55 -1q-17 0 -28.5 10zM74 311.5q-9 7.5 -9 19.5t9 20t21 8q72 0 108 -1l108 -1l112 1q37 1 111 1q13 0 22.5 -7.5t9.5 -20.5t-9 -20t-23 -7l-112 1q-37 1 -112 1q-72 0 -107 -1l-108 -1q-12 0 -21 7.5zM357 -257l-75 3l-90 1q-15 0 -26 10.5
t-11 23.5q0 26 5 46q9 34 33.5 69t59.5 64q55 45 83 75t28 58q0 22 -18 39t-55 17q-23 0 -37.5 -5.5t-31.5 -15.5q-15 -12 -28 -12t-20.5 7t-7.5 20q0 8 6 18t14 15q58 36 115 36q64 0 104 -31.5t40 -81.5q0 -34 -21.5 -65.5t-46 -52t-62.5 -48.5q-46 -33 -61 -49.5
t-22 -38.5q-2 -5 -2 -13q0 -10 6 -15.5t16 -5.5q28 0 112 7q12 1 22 7t15 14q3 5 10 21q10 19 27 19q14 0 22.5 -8.5t8.5 -20.5q0 -13 -9 -36q-7 -17 -24 -47q-9 -14 -16 -19.5t-21 -5.5z" />
    <glyph glyph-name="onequarter" unicode="&#xbc;" 
d="M168.5 477q-11.5 10 -11.5 24t11.5 25.5t28.5 11.5l35 -1q26 -2 35 -2q14 0 22 12t8 23v246q0 19 -11 28t-41 13t-46.5 10t-16.5 18q0 25 33 29q98 14 117 14q14 0 20 -7.5t6 -25.5v-331q0 -14 8.5 -21.5t22.5 -7.5l46 1q19 0 28.5 -9t9.5 -25t-11 -25.5t-27 -9.5l-49 1
q-40 2 -71 2q-25 0 -63 -2l-55 -1q-17 0 -28.5 10zM74 311.5q-9 7.5 -9 19.5t9 20t21 8q72 0 108 -1l108 -1l112 1q37 1 111 1q13 0 22.5 -7.5t9.5 -20.5t-9 -20t-23 -7l-112 1q-37 1 -112 1q-72 0 -107 -1l-108 -1q-12 0 -21 7.5zM343.5 -246q-9.5 10 -9.5 25v71q0 8 -5 13
t-12 5h-164q-11 0 -17.5 7.5t-6.5 15.5q0 13 8 23l209 270q14 19 30 19q12 0 18 -7.5t6 -17.5v-238q0 -18 18 -18h49q25 0 25 -30q0 -11 -6.5 -17.5t-18.5 -6.5h-50q-7 0 -12 -5t-5 -13v-71q0 -14 -10 -24.5t-24 -10.5q-13 0 -22.5 10zM329 -73q5 5 5 13v107q0 7 -4.5 11.5
t-9.5 4.5t-10 -6l-79 -109q-5 -7 -5 -12q0 -6 4.5 -10t10.5 -4h74q9 0 14 5z" />
    <glyph glyph-name="threequarters" unicode="&#xbe;" 
d="M174 497q-9 6 -13.5 14.5t-4.5 16.5q0 13 8 22t22 9q15 0 27 -9q26 -19 60 -19q55 0 94 24.5t39 66.5q0 29 -19.5 48.5t-54.5 25.5q-4 1 -11 1q-9 0 -17.5 -1.5t-16.5 -1.5q-11 0 -19.5 6t-8.5 19q0 15 25 36q11 9 33 23l26 18q23 16 23 43q0 19 -15 30.5t-39 11.5
q-18 0 -34.5 -6.5t-25.5 -15.5q-8 -8 -13.5 -11.5t-14.5 -3.5t-16.5 6t-7.5 18q0 17 16 33q34 34 96 34q60 0 91.5 -25.5t31.5 -59.5q0 -22 -6.5 -35.5t-22.5 -26.5q-32 -26 -38 -30q-8 -5 -8 -11q0 -5 10 -8q39 -9 71 -41t32 -75q0 -44 -25.5 -80t-70 -56.5t-99.5 -20.5
q-53 0 -104 31zM74 311.5q-9 7.5 -9 19.5t9 20t21 8q72 0 108 -1l108 -1l112 1q37 1 111 1q13 0 22.5 -7.5t9.5 -20.5t-9 -20t-23 -7l-112 1q-37 1 -112 1q-72 0 -107 -1l-108 -1q-12 0 -21 7.5zM343.5 -246q-9.5 10 -9.5 25v71q0 8 -5 13t-12 5h-164q-11 0 -17.5 7.5
t-6.5 15.5q0 13 8 23l209 270q14 19 30 19q12 0 18 -7.5t6 -17.5v-238q0 -18 18 -18h49q25 0 25 -30q0 -11 -6.5 -17.5t-18.5 -6.5h-50q-7 0 -12 -5t-5 -13v-71q0 -14 -10 -24.5t-24 -10.5q-13 0 -22.5 10zM329 -73q5 5 5 13v107q0 7 -4.5 11.5t-9.5 4.5t-10 -6l-79 -109
q-5 -7 -5 -12q0 -6 4.5 -10t10.5 -4h74q9 0 14 5z" />
    <glyph glyph-name="oneeighth" unicode="&#x215b;" 
d="M168.5 477q-11.5 10 -11.5 24t11.5 25.5t28.5 11.5l35 -1q26 -2 35 -2q14 0 22 12t8 23v246q0 19 -11 28t-41 13t-46.5 10t-16.5 18q0 25 33 29q98 14 117 14q14 0 20 -7.5t6 -25.5v-331q0 -14 8.5 -21.5t22.5 -7.5l46 1q19 0 28.5 -9t9.5 -25t-11 -25.5t-27 -9.5l-49 1
q-40 2 -71 2q-25 0 -63 -2l-55 -1q-17 0 -28.5 10zM74 311.5q-9 7.5 -9 19.5t9 20t21 8q72 0 108 -1l108 -1l112 1q37 1 111 1q13 0 22.5 -7.5t9.5 -20.5t-9 -20t-23 -7l-112 1q-37 1 -112 1q-72 0 -107 -1l-108 -1q-12 0 -21 7.5zM232.5 -240.5q-35.5 17.5 -54.5 47.5
t-19 66q0 33 16.5 58t36.5 41q8 6 8 17q0 10 -7 18q-21 18 -31 38.5t-10 49.5q0 48 38 82.5t107 34.5q41 0 71 -17t45 -43.5t15 -54.5q0 -33 -16.5 -53.5t-29.5 -29.5t-16 -11q-6 -4 -6 -9t6 -10q45 -24 62 -50t17 -61q0 -28 -18.5 -58.5t-53 -51.5t-79.5 -21
q-46 0 -81.5 17.5zM331 13q9 0 17 7q2 2 13.5 11.5t19.5 25t8 35.5q0 27 -21 48.5t-56 21.5t-57 -20t-22 -50q0 -24 16.5 -42t67.5 -35q10 -2 14 -2zM376 -181.5q25 22.5 25 48.5q0 23 -8 36.5t-27.5 24.5t-61.5 27q-7 3 -16 3q-17 0 -35 -12q-19 -15 -27 -31t-8 -39
q0 -33 28 -56.5t66 -23.5q39 0 64 22.5z" />
    <glyph glyph-name="threeeighths" unicode="&#x215c;" 
d="M174 497q-9 6 -13.5 14.5t-4.5 16.5q0 13 8 22t22 9q15 0 27 -9q26 -19 60 -19q55 0 94 24.5t39 66.5q0 29 -19.5 48.5t-54.5 25.5q-4 1 -11 1q-9 0 -17.5 -1.5t-16.5 -1.5q-11 0 -19.5 6t-8.5 19q0 15 25 36q11 9 33 23l26 18q23 16 23 43q0 19 -15 30.5t-39 11.5
q-18 0 -34.5 -6.5t-25.5 -15.5q-8 -8 -13.5 -11.5t-14.5 -3.5t-16.5 6t-7.5 18q0 17 16 33q34 34 96 34q60 0 91.5 -25.5t31.5 -59.5q0 -22 -6.5 -35.5t-22.5 -26.5q-32 -26 -38 -30q-8 -5 -8 -11q0 -5 10 -8q39 -9 71 -41t32 -75q0 -44 -25.5 -80t-70 -56.5t-99.5 -20.5
q-53 0 -104 31zM74 311.5q-9 7.5 -9 19.5t9 20t21 8q72 0 108 -1l108 -1l112 1q37 1 111 1q13 0 22.5 -7.5t9.5 -20.5t-9 -20t-23 -7l-112 1q-37 1 -112 1q-72 0 -107 -1l-108 -1q-12 0 -21 7.5zM232.5 -240.5q-35.5 17.5 -54.5 47.5t-19 66q0 33 16.5 58t36.5 41q8 6 8 17
q0 10 -7 18q-21 18 -31 38.5t-10 49.5q0 48 38 82.5t107 34.5q41 0 71 -17t45 -43.5t15 -54.5q0 -33 -16.5 -53.5t-29.5 -29.5t-16 -11q-6 -4 -6 -9t6 -10q45 -24 62 -50t17 -61q0 -28 -18.5 -58.5t-53 -51.5t-79.5 -21q-46 0 -81.5 17.5zM331 13q9 0 17 7q2 2 13.5 11.5
t19.5 25t8 35.5q0 27 -21 48.5t-56 21.5t-57 -20t-22 -50q0 -24 16.5 -42t67.5 -35q10 -2 14 -2zM376 -181.5q25 22.5 25 48.5q0 23 -8 36.5t-27.5 24.5t-61.5 27q-7 3 -16 3q-17 0 -35 -12q-19 -15 -27 -31t-8 -39q0 -33 28 -56.5t66 -23.5q39 0 64 22.5z" />
    <glyph glyph-name="fiveeighths" unicode="&#x215d;" 
d="M215.5 471.5q-26.5 7.5 -40.5 17.5q-7 5 -11.5 13t-4.5 16q0 12 8.5 23.5t18.5 11.5q11 0 23 -10q21 -18 76 -18q30 0 55.5 14t40 37t14.5 47q0 37 -25.5 60.5t-67.5 23.5q-35 0 -57 -15q-6 -5 -12 -11t-11 -9t-12 -3q-9 0 -15.5 7.5t-5.5 16.5q2 14 6 51.5t4 68.5l-1 77
q0 13 11.5 24t27.5 11l161 5q15 0 22 -7.5t7 -19.5t-11.5 -27.5t-26.5 -15.5l-25 1q-17 1 -45 3t-44 3q-10 0 -16.5 -7t-7.5 -16q-2 -28 -2 -36q0 -16 -3 -45v-2q0 -6 4 -8t9 1q26 12 76 12q34 0 65.5 -17t51 -46.5t19.5 -63.5q0 -46 -31.5 -86.5t-80 -64.5t-94.5 -24
q-23 0 -49.5 7.5zM74 311.5q-9 7.5 -9 19.5t9 20t21 8q72 0 108 -1l108 -1l112 1q37 1 111 1q13 0 22.5 -7.5t9.5 -20.5t-9 -20t-23 -7l-112 1q-37 1 -112 1q-72 0 -107 -1l-108 -1q-12 0 -21 7.5zM232.5 -240.5q-35.5 17.5 -54.5 47.5t-19 66q0 33 16.5 58t36.5 41
q8 6 8 17q0 10 -7 18q-21 18 -31 38.5t-10 49.5q0 48 38 82.5t107 34.5q41 0 71 -17t45 -43.5t15 -54.5q0 -33 -16.5 -53.5t-29.5 -29.5t-16 -11q-6 -4 -6 -9t6 -10q45 -24 62 -50t17 -61q0 -28 -18.5 -58.5t-53 -51.5t-79.5 -21q-46 0 -81.5 17.5zM331 13q9 0 17 7
q2 2 13.5 11.5t19.5 25t8 35.5q0 27 -21 48.5t-56 21.5t-57 -20t-22 -50q0 -24 16.5 -42t67.5 -35q10 -2 14 -2zM376 -181.5q25 22.5 25 48.5q0 23 -8 36.5t-27.5 24.5t-61.5 27q-7 3 -16 3q-17 0 -35 -12q-19 -15 -27 -31t-8 -39q0 -33 28 -56.5t66 -23.5q39 0 64 22.5z
" />
    <glyph glyph-name="seveneighths" unicode="&#x215e;" 
d="M268.5 479.5q-13.5 12.5 -13.5 33.5q0 59 33 138q6 14 19.5 38.5t23.5 40.5l18 27q6 9 20 31.5t21 36.5q4 10 -3 18t-19 8h-51l-45 2l-25 1q-9 0 -17 -4.5t-11 -10.5q-17 -36 -33 -36q-13 0 -20 8t-7 22q0 10 6.5 34t12.5 36q13 25 35 25q14 0 37 -5q46 -10 87 -10
q34 0 74 4l34 2q27 0 27 -38q0 -16 -8 -39t-16 -35l-15 -21q-34 -47 -47 -70q-11 -20 -22.5 -43.5t-15.5 -37.5q-10 -32 -10 -64q0 -27 1 -41.5t1 -22.5q0 -16 -12 -28t-30 -12q-16 0 -29.5 12.5zM74 311.5q-9 7.5 -9 19.5t9 20t21 8q72 0 108 -1l108 -1l112 1q37 1 111 1
q13 0 22.5 -7.5t9.5 -20.5t-9 -20t-23 -7l-112 1q-37 1 -112 1q-72 0 -107 -1l-108 -1q-12 0 -21 7.5zM232.5 -240.5q-35.5 17.5 -54.5 47.5t-19 66q0 33 16.5 58t36.5 41q8 6 8 17q0 10 -7 18q-21 18 -31 38.5t-10 49.5q0 48 38 82.5t107 34.5q41 0 71 -17t45 -43.5
t15 -54.5q0 -33 -16.5 -53.5t-29.5 -29.5t-16 -11q-6 -4 -6 -9t6 -10q45 -24 62 -50t17 -61q0 -28 -18.5 -58.5t-53 -51.5t-79.5 -21q-46 0 -81.5 17.5zM331 13q9 0 17 7q2 2 13.5 11.5t19.5 25t8 35.5q0 27 -21 48.5t-56 21.5t-57 -20t-22 -50q0 -24 16.5 -42t67.5 -35
q10 -2 14 -2zM376 -181.5q25 22.5 25 48.5q0 23 -8 36.5t-27.5 24.5t-61.5 27q-7 3 -16 3q-17 0 -35 -12q-19 -15 -27 -31t-8 -39q0 -33 28 -56.5t66 -23.5q39 0 64 22.5z" />
    <glyph glyph-name="period" unicode="." 
d="M239.5 13.5q-23.5 23.5 -23.5 57.5q0 33 23.5 56.5t57.5 23.5t57.5 -23.5t23.5 -56.5q0 -34 -23.5 -57.5t-57.5 -23.5t-57.5 23.5z" />
    <glyph glyph-name="comma" unicode="," 
d="M227.5 -119.5q-10.5 8.5 -10.5 23.5q0 21 22 31q13 8 25.5 21t12.5 26q0 8 -4.5 13t-16.5 13q-17 12 -27.5 29.5t-10.5 38.5q0 32 23 55t56 23q34 0 56.5 -26.5t22.5 -72.5q0 -49 -18.5 -91.5t-47 -67t-57.5 -24.5q-15 0 -25.5 8.5z" />
    <glyph glyph-name="colon" unicode=":" horiz-adv-x="420" 
d="M152.5 13.5q-23.5 23.5 -23.5 57.5q0 33 23.5 56.5t57.5 23.5t57.5 -23.5t23.5 -56.5q0 -34 -23.5 -57.5t-57.5 -23.5t-57.5 23.5zM152.5 334.5q-23.5 23.5 -23.5 57.5q0 33 23.5 56.5t57.5 23.5t57.5 -23.5t23.5 -56.5q0 -34 -23.5 -57.5t-57.5 -23.5t-57.5 23.5z" />
    <glyph glyph-name="semicolon" unicode=";" horiz-adv-x="420" 
d="M143.5 -119.5q-10.5 8.5 -10.5 23.5q0 21 22 31q13 8 25.5 21t12.5 26q0 8 -4.5 13t-16.5 13q-17 12 -27.5 29.5t-10.5 38.5q0 32 23 55t56 23q34 0 56.5 -26.5t22.5 -72.5q0 -49 -18.5 -91.5t-47 -67t-57.5 -24.5q-15 0 -25.5 8.5zM155.5 332.5q-23.5 23.5 -23.5 57.5
q0 33 23.5 56.5t57.5 23.5t57.5 -23.5t23.5 -56.5q0 -34 -23.5 -57.5t-57.5 -23.5t-57.5 23.5z" />
    <glyph glyph-name="ellipsis" unicode="&#x2026;" horiz-adv-x="840" 
d="M77.5 13.5q-23.5 23.5 -23.5 57.5q0 33 23.5 56.5t57.5 23.5t57.5 -23.5t23.5 -56.5q0 -34 -23.5 -57.5t-57.5 -23.5t-57.5 23.5zM647.5 13.5q-23.5 23.5 -23.5 57.5q0 33 23.5 56.5t57.5 23.5t57.5 -23.5t23.5 -56.5q0 -34 -23.5 -57.5t-57.5 -23.5t-57.5 23.5z
M367.5 13.5q-23.5 23.5 -23.5 57.5q0 33 23.5 56.5t57.5 23.5t57.5 -23.5t23.5 -56.5q0 -34 -23.5 -57.5t-57.5 -23.5t-57.5 23.5z" />
    <glyph glyph-name="exclam" unicode="!" 
d="M285.5 197.5q-12.5 12.5 -13.5 31.5q-2 63 -7 215t-5 182q0 36 14 56.5t41 20.5q25 0 39 -19.5t14 -56.5q0 7 -7 -226l-5 -171q0 -18 -12 -31.5t-29 -13.5t-29.5 12.5zM267.5 7.5q-19.5 17.5 -19.5 47.5q0 26 19.5 45t47.5 19q29 0 48 -19t19 -45q0 -27 -18.5 -46
t-48.5 -19q-28 0 -47.5 17.5z" />
    <glyph glyph-name="exclamdown" unicode="&#xa1;" 
d="M362.5 648.5q19.5 -17.5 19.5 -47.5q0 -26 -19.5 -45t-47.5 -19q-29 0 -48 19t-19 45q0 27 18.5 46t48.5 19q28 0 47.5 -17.5zM344.5 458.5q12.5 -12.5 13.5 -31.5q2 -63 7 -215t5 -182q0 -36 -14 -56.5t-41 -20.5q-25 0 -39 19.5t-14 56.5q0 -7 7 226l5 171
q0 18 12 31.5t29 13.5t29.5 -12.5z" />
    <glyph glyph-name="question" unicode="?" 
d="M252.5 194.5q-13.5 17.5 -13.5 52.5q0 44 26 79.5t74 64.5q7 4 34.5 19.5t44.5 38.5t17 54q0 30 -17 60t-50.5 50t-80.5 20q-19 0 -36 -9t-25 -22q-12 -19 -12 -42l1 -24q0 -23 -14 -39.5t-35 -16.5q-25 0 -39.5 18.5t-14.5 49.5q0 33 21.5 68.5t62 60t95.5 24.5
q68 0 120 -26t80 -71t28 -101q0 -42 -15.5 -70t-36 -43.5t-52.5 -32.5q-13 -5 -21 -11q-29 -16 -43 -27.5t-24 -31.5q-6 -13 -6 -28q0 -8 2 -22t2 -20q0 -17 -12 -28.5t-26 -11.5q-21 0 -34.5 17.5zM231.5 7.5q-19.5 17.5 -19.5 47.5q0 26 19.5 45t47.5 19q29 0 48 -19
t19 -45q0 -27 -18.5 -46t-48.5 -19q-28 0 -47.5 17.5z" />
    <glyph glyph-name="questiondown" unicode="&#xbf;" 
d="M399.5 643.5q19.5 -17.5 19.5 -47.5q0 -26 -19.5 -45t-47.5 -19q-29 0 -48 19t-19 45q0 27 18.5 46t48.5 19q28 0 47.5 -17.5zM378.5 456.5q13.5 -17.5 13.5 -52.5q0 -44 -26 -79.5t-74 -64.5q-7 -4 -34.5 -19.5t-44.5 -38.5t-17 -54q0 -30 17 -60t50.5 -50t80.5 -20
q19 0 36 9t25 22q12 19 12 42l-1 24q0 23 14 39.5t35 16.5q25 0 39.5 -18.5t14.5 -49.5q0 -33 -21.5 -68.5t-62 -60t-95.5 -24.5q-68 0 -120 26t-80 71t-28 101q0 42 15.5 70t36 43.5t52.5 32.5q13 5 21 11q29 16 43 27.5t24 31.5q6 11 6 28q0 8 -2 22t-2 20q0 17 12 28.5
t26 11.5q21 0 34.5 -17.5z" />
    <glyph glyph-name="periodcentered" unicode="&#xb7;" 
d="M239.5 293.5q-23.5 23.5 -23.5 57.5q0 33 23.5 56.5t57.5 23.5t57.5 -23.5t23.5 -56.5q0 -34 -23.5 -57.5t-57.5 -23.5t-57.5 23.5z" />
    <glyph glyph-name="bullet" unicode="&#x2022;" 
d="M228.5 261q-37.5 36 -37.5 87t37.5 87t90.5 36t90.5 -36t37.5 -87t-37.5 -87t-90.5 -36t-90.5 36z" />
    <glyph glyph-name="asterisk" unicode="*" 
d="M346 572q0 4 2 14q3 13 20 53t24 51q15 23 38 23q11 0 24 -8q20 -13 20 -35q0 -14 -8 -25q-13 -19 -37 -51.5t-31 -39.5q-13 -13 -25 -13q-5 0 -15 5q-12 7 -12 26zM269 540q-14 0 -29 15q-9 9 -34 45.5t-31 47.5q-5 12 -5 22q0 26 25 38q8 4 20 4q27 0 38 -25
q36 -88 41 -106q2 -10 2 -13q0 -16 -16 -25q-5 -3 -11 -3zM68.5 447q-11.5 12 -11.5 30q0 20 13 32t33 12q12 0 55.5 -7.5t55.5 -11.5q29 -11 29 -30q0 -23 -29 -29q-10 -2 -50 -4.5t-63 -3.5q-21 0 -32.5 12zM477 438.5q-40 2.5 -50 4.5q-29 6 -29 29q0 19 29 30
q12 4 55.5 11.5t55.5 7.5q20 0 33 -12t13 -32q0 -18 -11.5 -30t-32.5 -12q-23 1 -63 3.5zM170 276q0 10 5 22q6 11 31 47.5t34 45.5q15 15 29 15q6 0 11 -3q16 -9 16 -25q0 -3 -2 -13q-3 -11 -17 -48t-24 -58q-11 -25 -38 -25q-12 0 -20 4q-25 12 -25 38zM430 233
q-23 0 -38 23q-7 11 -24 51t-20 53q-2 10 -2 14q0 19 12 26q10 5 15 5q12 0 25 -13q7 -7 31 -39.5t37 -51.5q8 -11 8 -25q0 -22 -20 -35q-13 -8 -24 -8z" />
    <glyph glyph-name="numbersign" unicode="#" 
d="M149 -6q-9 9 -9 25q0 4 2 14q3 11 37 221v2q0 14 -13 14h-56q-15 0 -24 9t-9 20q0 13 10 22t25 9h66q14 0 15 13l12 68v2q0 13 -13 13h-66q-15 0 -24 9t-9 20q0 13 10 22t25 9h76q14 0 15 13q11 69 37 226q2 12 11.5 19.5t21.5 7.5q15 0 21 -11t3 -25l-34 -214v-2
q0 -14 13 -14l83 -1q14 0 15 13q12 76 37 227q2 12 10 19.5t20 7.5q15 0 22 -11t5 -25l-34 -215v-2q0 -14 13 -14h43q18 0 28 -8.5t10 -21.5t-10.5 -22t-27.5 -9h-55q-6 0 -10 -3.5t-5 -9.5l-11 -67v-2q0 -13 13 -13h52q18 0 28 -8.5t10 -21.5t-10.5 -22t-27.5 -9h-63
q-14 0 -15 -13l-37 -233q-7 -37 -32 -37q-32 0 -32 32q0 4 2 16q4 13 37 220v2q0 14 -13 14h-81q-14 0 -15 -13l-37 -234q-4 -20 -12 -28.5t-22 -8.5q-12 0 -21 9zM364 342q2 19 11 68v4q0 11 -12 11h-83q-6 0 -10 -3.5t-5 -9.5l-11 -67v-2q0 -13 14 -13l81 -1q14 0 15 13z
" />
    <glyph glyph-name="slash" unicode="/" 
d="M60 -107q0 16 7 34q16 35 33 66l9 18q5 8 164 344q183 384 189 395q5 10 28 64q6 13 17.5 22t23.5 9q8 0 16 -5q17 -10 17 -33q0 -13 -7 -29q-2 -5 -18 -32q-14 -21 -18 -29q-8 -15 -149 -316.5t-199 -425.5l-24 -58q-5 -14 -10 -26q-7 -18 -19 -27.5t-25 -9.5
q-6 0 -16 4q-19 8 -19 35z" />
    <glyph glyph-name="backslash" unicode="\" 
d="M535 -146q-13 0 -25 9.5t-19 27.5q-5 12 -10 26l-24 58q-58 124 -199 425.5t-149 316.5q-4 8 -18 29q-16 27 -18 32q-7 16 -7 29q0 23 17 33q8 5 16 5q12 0 23.5 -9t17.5 -22q23 -54 28 -64q6 -11 189 -395q159 -336 164 -344l9 -18q16 -31 33 -66q7 -18 7 -34
q0 -27 -19 -35q-10 -4 -16 -4z" />
    <glyph glyph-name="parenleft" unicode="(" horiz-adv-x="420" 
d="M245 -151.5q-12 12.5 -22.5 28t-15.5 22.5q-29 42 -60 111.5t-52.5 157t-21.5 176.5q0 125 38 252.5t104 236.5q23 37 40.5 57t41.5 20q18 0 28 -10.5t10 -27.5q0 -11 -7 -22.5t-22 -31.5q-4 -6 -17 -24t-25 -38q-94 -165 -94 -412q0 -114 30 -222t72 -177q10 -14 14 -21
q11 -15 16.5 -25.5t5.5 -21.5q0 -19 -11 -30t-25 -11q-15 0 -27 12.5z" />
    <glyph glyph-name="parenright" unicode=")" horiz-adv-x="420" 
d="M123 -153q-11 11 -11 30q0 11 5.5 21.5t16.5 25.5q4 7 14 21q42 69 72 177t30 222q0 247 -94 412q-12 20 -25 38t-17 24q-15 20 -22 31.5t-7 22.5q0 17 10 27.5t28 10.5q24 0 41.5 -20t40.5 -57q66 -109 104 -236.5t38 -252.5q0 -89 -21.5 -176.5t-52.5 -157t-60 -111.5
q-5 -7 -17 -25t-23.5 -28t-24.5 -10q-14 0 -25 11z" />
    <glyph glyph-name="braceleft" unicode="{" horiz-adv-x="420" 
d="M190 -125q-48 41 -48 119q-2 37 -6 107t-7 108q-6 45 -16 72t-35 40q-20 10 -30.5 22t-10.5 29q0 29 41 49q22 11 35.5 32.5t16.5 49.5q3 41 7 115t6 112q0 83 50 131.5t141 48.5q16 0 26 -10t10 -23q0 -15 -10.5 -26.5t-25.5 -12.5q-58 -2 -86.5 -30.5t-28.5 -77.5
l2 -231q0 -26 -6 -45.5t-20 -40.5q-9 -13 -27 -31q-6 -6 -6 -11q0 -4 3.5 -7.5l4.5 -4.5q18 -18 25 -31q26 -48 26 -114l-2 -220q0 -44 25 -65t74 -23q17 -1 27 -11t10 -23q0 -16 -10.5 -27t-26.5 -11q-80 0 -128 41z" />
    <glyph glyph-name="braceright" unicode="}" horiz-adv-x="420" 
d="M75.5 -155q-10.5 11 -10.5 27q0 13 10 23t27 11q49 2 74 23t25 65l-2 220q0 66 26 114q7 13 25 31l4.5 4.5t3.5 7.5q0 5 -6 11q-18 18 -27 31q-14 21 -20 40.5t-6 45.5l2 231q0 49 -28.5 77.5t-86.5 30.5q-15 1 -25.5 12.5t-10.5 26.5q0 13 10 23t26 10q91 0 141 -48.5
t50 -131.5q2 -38 6 -112t7 -115q3 -28 16.5 -49.5t35.5 -32.5q41 -20 41 -49q0 -17 -10.5 -29t-30.5 -22q-25 -13 -35 -40t-16 -72q-3 -38 -7 -108t-6 -107q0 -78 -48 -119t-128 -41q-16 0 -26.5 11z" />
    <glyph glyph-name="bracketleft" unicode="[" horiz-adv-x="420" 
d="M346 -132q0 -18 -13.5 -27t-33.5 -9q-13 0 -23 1l-65 1l-60 -1q-11 -1 -26 -1q-23 0 -37 11.5t-14 34.5v983v1q0 22 13.5 35t35.5 13q25 0 39 -1l48 -1l55 1q13 1 34 1q47 0 47 -36q0 -18 -13.5 -27t-33.5 -9h-123q-19 0 -19 -19v-889v-12q0 -8 2 -11t9 -3h131
q47 0 47 -36z" />
    <glyph glyph-name="bracketright" unicode="]" horiz-adv-x="420" 
d="M346 861v-983q0 -23 -14 -34.5t-37 -11.5q-15 0 -26 1l-60 1l-65 -1q-10 -1 -23 -1q-20 0 -33.5 9t-13.5 27q0 36 47 36h131q8 0 9.5 4.5t1.5 11.5v10v889q0 19 -19 19h-123q-20 0 -33.5 9t-13.5 27q0 36 47 36q21 0 34 -1l55 -1l48 1q14 1 39 1q22 0 35.5 -13t13.5 -35
v-1z" />
    <glyph glyph-name="hyphen" unicode="-" 
d="M137 268q0 18 15 29.5t38 11.5q17 0 31 -1q50 -2 96 -2q45 0 93 2q14 1 30 1q26 0 39.5 -11t13.5 -30t-14.5 -30.5t-38.5 -11.5q-15 0 -29 1q-50 2 -100 2q-47 0 -95 -2q-12 -1 -26 -1q-53 0 -53 42z" />
    <glyph glyph-name="endash" unicode="&#x2013;" 
d="M89.5 235.5q-13.5 11.5 -13.5 32.5q0 19 15 31t38 12q25 0 49 -1l139 -1l137 1q23 1 47 1q25 0 39 -11t14 -32t-14.5 -32.5t-38.5 -11.5l-45 1l-145 1l-140 -1l-42 -1q-26 0 -39.5 11.5z" />
    <glyph glyph-name="emdash" unicode="&#x2014;" horiz-adv-x="840" 
d="M89.5 235.5q-13.5 11.5 -13.5 32.5q0 19 15 31t38 12l107 -1q122 -2 202 -2q97 0 195 2q31 1 78 1q25 0 39 -11t14 -32t-14.5 -32.5t-38.5 -11.5q-46 0 -78 1l-201 1l-201 -1q-42 -1 -102 -1q-26 0 -39.5 11.5z" />
    <glyph glyph-name="underscore" unicode="_" 
d="M69.5 6q-12.5 9 -12.5 27q0 17 14 26.5t34 9.5h39q86 -2 177 -2q90 0 168 2h37q47 0 47 -36q0 -18 -13.5 -27t-33.5 -9h-25q-74 2 -178 2q-99 0 -183 -2h-35q-23 0 -35.5 9z" />
    <glyph glyph-name="quotesinglbase" unicode="&#x201a;" horiz-adv-x="420" 
d="M143.5 -119.5q-10.5 8.5 -10.5 23.5q0 21 22 31q13 8 25.5 21t12.5 26q0 8 -4.5 13t-16.5 13q-17 12 -27.5 29.5t-10.5 38.5q0 32 23 55t56 23q34 0 56.5 -26.5t22.5 -72.5q0 -49 -18.5 -91.5t-47 -67t-57.5 -24.5q-15 0 -25.5 8.5z" />
    <glyph glyph-name="quotedblbase" unicode="&#x201e;" 
d="M108.5 -119.5q-10.5 8.5 -10.5 23.5q0 21 22 31q13 8 25.5 21t12.5 26q0 8 -4.5 13t-16.5 13q-17 12 -27.5 29.5t-10.5 38.5q0 32 23 55t56 23q34 0 56.5 -26.5t22.5 -72.5q0 -49 -18.5 -91.5t-47 -67t-57.5 -24.5q-15 0 -25.5 8.5zM388.5 -119.5q-10.5 8.5 -10.5 23.5
q0 21 22 31q13 8 25.5 21t12.5 26q0 8 -4.5 13t-16.5 13q-17 12 -27.5 29.5t-10.5 38.5q0 32 23 55t56 23q34 0 56.5 -26.5t22.5 -72.5q0 -49 -18.5 -91.5t-47 -67t-57.5 -24.5q-15 0 -25.5 8.5z" />
    <glyph glyph-name="quotedblleft" unicode="&#x201c;" 
d="M241.5 711.5q10.5 -8.5 10.5 -23.5q0 -21 -22 -31q-13 -8 -25.5 -21t-12.5 -26q0 -8 4.5 -13t16.5 -13q17 -12 27.5 -29.5t10.5 -38.5q0 -32 -23 -55t-56 -23q-34 0 -56.5 26.5t-22.5 72.5q0 49 18.5 91.5t47 67t57.5 24.5q15 0 25.5 -8.5zM521.5 711.5
q10.5 -8.5 10.5 -23.5q0 -21 -22 -31q-13 -8 -25.5 -21t-12.5 -26q0 -8 4.5 -13t16.5 -13q17 -12 27.5 -29.5t10.5 -38.5q0 -32 -23 -55t-56 -23q-34 0 -56.5 26.5t-22.5 72.5q0 49 18.5 91.5t47 67t57.5 24.5q15 0 25.5 -8.5z" />
    <glyph glyph-name="quotedblright" unicode="&#x201d;" 
d="M106.5 456.5q-10.5 8.5 -10.5 23.5q0 21 22 31q13 8 25.5 21t12.5 26q0 8 -4.5 13t-16.5 13q-17 12 -27.5 29.5t-10.5 38.5q0 32 23 55t56 23q34 0 56.5 -26.5t22.5 -72.5q0 -49 -18.5 -91.5t-47 -67t-57.5 -24.5q-15 0 -25.5 8.5zM386.5 456.5q-10.5 8.5 -10.5 23.5
q0 21 22 31q13 8 25.5 21t12.5 26q0 8 -4.5 13t-16.5 13q-17 12 -27.5 29.5t-10.5 38.5q0 32 23 55t56 23q34 0 56.5 -26.5t22.5 -72.5q0 -49 -18.5 -91.5t-47 -67t-57.5 -24.5q-15 0 -25.5 8.5z" />
    <glyph glyph-name="quoteleft" unicode="&#x2018;" horiz-adv-x="420" 
d="M276.5 711.5q10.5 -8.5 10.5 -23.5q0 -21 -22 -31q-13 -8 -25.5 -21t-12.5 -26q0 -8 4.5 -13t16.5 -13q17 -12 27.5 -29.5t10.5 -38.5q0 -32 -23 -55t-56 -23q-34 0 -56.5 26.5t-22.5 72.5q0 49 18.5 91.5t47 67t57.5 24.5q15 0 25.5 -8.5z" />
    <glyph glyph-name="quoteright" unicode="&#x2019;" horiz-adv-x="420" 
d="M143.5 447.5q-10.5 8.5 -10.5 23.5q0 21 22 31q13 8 25.5 21t12.5 26q0 8 -4.5 13t-16.5 13q-17 12 -27.5 29.5t-10.5 38.5q0 32 23 55t56 23q34 0 56.5 -26.5t22.5 -72.5q0 -49 -18.5 -91.5t-47 -67t-57.5 -24.5q-15 0 -25.5 8.5z" />
    <glyph glyph-name="guillemotleft" unicode="&#xab;" 
d="M240 35.5q-9 5.5 -19 18.5l-120 159q-13 17 -13 36q0 20 15 39l118 159q20 27 42 27q13 0 22 -9.5t9 -22.5q0 -14 -11 -32l-89 -144q-5 -10 -5 -18t4 -15l90 -138q11 -17 11 -30q0 -15 -9.5 -25t-23.5 -10q-12 0 -21 5.5zM480 35.5q-9 5.5 -19 18.5l-120 159
q-13 17 -13 36q0 20 15 39l118 159q20 27 42 27q13 0 22 -9.5t9 -22.5q0 -14 -11 -32l-89 -144q-5 -10 -5 -18t4 -15l90 -138q11 -17 11 -30q0 -15 -9.5 -25t-23.5 -10q-12 0 -21 5.5z" />
    <glyph glyph-name="guillemotright" unicode="&#xbb;" 
d="M105.5 40q-9.5 10 -9.5 25q0 13 11 30l90 138q4 7 4 15t-5 18l-89 144q-11 18 -11 32q0 13 9 22.5t22 9.5q22 0 42 -27l118 -159q15 -19 15 -39q0 -19 -13 -36l-120 -159q-10 -13 -19 -18.5t-21 -5.5q-14 0 -23.5 10zM345.5 40q-9.5 10 -9.5 25q0 13 11 30l90 138
q4 7 4 15t-5 18l-89 144q-11 18 -11 32q0 13 9 22.5t22 9.5q22 0 42 -27l118 -159q15 -19 15 -39q0 -19 -13 -36l-120 -159q-10 -13 -19 -18.5t-21 -5.5q-14 0 -23.5 10z" />
    <glyph glyph-name="guilsinglleft" unicode="&#x2039;" horiz-adv-x="420" 
d="M261 35.5q-9 5.5 -19 18.5l-120 159q-13 17 -13 36q0 20 15 39l118 159q20 27 42 27q13 0 22 -9.5t9 -22.5q0 -14 -11 -32l-89 -144q-5 -10 -5 -18t4 -15l90 -138q11 -17 11 -30q0 -15 -9.5 -25t-23.5 -10q-12 0 -21 5.5z" />
    <glyph glyph-name="guilsinglright" unicode="&#x203a;" horiz-adv-x="420" 
d="M114.5 40q-9.5 10 -9.5 25q0 13 11 30l90 138q4 7 4 15t-5 18l-89 144q-11 18 -11 32q0 13 9 22.5t22 9.5q22 0 42 -27l118 -159q15 -20 15 -39t-13 -36l-120 -159q-10 -13 -19 -18.5t-21 -5.5q-14 0 -23.5 10z" />
    <glyph glyph-name="quotedbl" unicode="&#x22;" horiz-adv-x="640" 
d="M155 335.5q-9 12.5 -11 27.5q-4 46 -12 151.5t-8 127.5q0 25 16 42.5t39 17.5t37 -17.5t14 -39.5q-2 -45 -9 -157t-9 -125q-3 -17 -11 -28.5t-22 -11.5q-15 0 -24 12.5zM441 335.5q-9 12.5 -11 27.5q-4 46 -12 151.5t-8 127.5q0 25 16 42.5t39 17.5t37 -17.5t14 -39.5
q-2 -45 -9 -157t-9 -125q-3 -17 -11 -28.5t-22 -11.5q-15 0 -24 12.5z" />
    <glyph glyph-name="quotesingle" unicode="'" horiz-adv-x="420" 
d="M188 335.5q-9 12.5 -11 27.5q-4 46 -12 151.5t-8 127.5q0 25 16 42.5t39 17.5t37 -17.5t14 -39.5q-2 -45 -9 -157t-9 -125q-3 -17 -11 -28.5t-22 -11.5q-15 0 -24 12.5z" />
    <glyph glyph-name="cent" unicode="&#xa2;" 
d="M238.5 -13.5q-9.5 12.5 -6.5 28.5q7 30 24 93q17 60 18 68q1 4 1 11q0 12 -7 17q-53 21 -86 64.5t-33 111.5q0 48 22.5 90t62.5 69t90 30q8 1 11.5 6.5t5.5 16.5q2 13 4 61q4 56 5 62q1 11 11 18.5t22 7.5q14 0 23.5 -10.5t7.5 -25.5l-13 -118v-8q0 -17 11 -19
q38 -11 56 -26q14 -12 14 -31q0 -14 -9 -23q-8 -8 -22 -8q-16 0 -27 12q-12 16 -27.5 25t-47.5 9q-33 0 -62 -18t-46.5 -49t-17.5 -68q0 -68 40.5 -103.5t96.5 -35.5q29 0 45 6.5t19 7.5q8 3 15 3q13 0 20 -7t7 -17q0 -11 -7 -18q-15 -15 -38 -22.5t-65 -7.5q-11 0 -17 -5
t-7 -17q-5 -30 -16.5 -90t-15.5 -72q-4 -14 -13 -22.5t-20 -8.5q-19 0 -28.5 12.5z" />
    <glyph glyph-name="dollar" unicode="$" 
d="M274 -4q-1 6 -4.5 9t-14.5 4q-76 9 -130 44q-19 12 -28.5 28t-9.5 31q0 13 9 22.5t21 9.5q20 0 44 -24q26 -26 44.5 -38.5t51.5 -17.5h4q13 0 13 13l1 276q0 14 -9 15q-86 18 -126 62.5t-40 116.5q0 65 45 114.5t114 61.5q13 2 15 15q5 38 32 38q11 0 19.5 -9.5
t9.5 -25.5q2 -14 14 -17q65 -11 114 -47q9 -7 16.5 -18.5t7.5 -21.5q0 -14 -7 -22t-19 -8q-16 0 -28 13q-15 17 -38 28.5t-50 16.5h-3q-9 0 -9 -10q0 -13 -2 -61q-3 -114 -3 -146v-3q0 -8 2.5 -12t11.5 -5q62 -9 107 -38.5t69 -73t24 -93.5q0 -47 -26.5 -92t-73 -77.5
t-103.5 -42.5q-11 -2 -11 -15q0 -16 -7 -25t-19 -9q-22 0 -28 34zM268 442q8 0 8 12l-1 139q-1 24 -1 62q0 12 -13 8q-42 -12 -67.5 -44.5t-25.5 -68.5q0 -41 21.5 -66.5t75.5 -40.5zM435 128q33 44 33 98q0 93 -125 126q-3 1 -7 1q-8 0 -8 -10v-262q0 -16 14 -12
q60 15 93 59z" />
    <glyph glyph-name="Euro" unicode="&#x20ac;" 
d="M292.5 16.5q-62.5 30.5 -107.5 88.5t-64 136q-3 10 -11 10h-39q-41 0 -41 27q0 14 12.5 22t28.5 8h28q4 0 7 3.5t3 8.5l-1 30q0 17 2 49q0 5 -2.5 9t-6.5 4q-41 0 -41 27q0 14 12.5 22t28.5 8q14 0 19 4t8 14q34 109 113 176t183 67q50 0 87.5 -14.5t37.5 -38.5
q0 -13 -8.5 -21.5t-20.5 -8.5t-22 5.5t-13 6.5q-18 8 -50 8q-83 0 -143 -50t-87 -132q-1 -3 -1 -7q0 -8 8 -8l173 1q17 0 28.5 -9t11.5 -23q0 -12 -10.5 -19.5t-29.5 -7.5h-182q-14 0 -16 -15q-2 -26 -2 -40q0 -23 1 -34q1 -14 14 -14l155 1q18 0 29 -8t11 -22
q0 -12 -11 -20.5t-29 -8.5h-140q-16 0 -13 -13q26 -86 87 -134.5t135 -48.5q32 0 52.5 10t35.5 28q18 21 44 21q18 0 30.5 -13t12.5 -32q0 -18 -17 -37t-56 -32.5t-100 -13.5q-71 0 -133.5 30.5z" />
    <glyph glyph-name="sterling" unicode="&#xa3;" 
d="M387.5 7.5q-24.5 11.5 -39 26t-39.5 43.5q-7 7 -13 0q-26 -35 -62 -54t-72 -19q-43 0 -71.5 26.5t-28.5 72.5q0 45 28.5 76.5t74.5 31.5q50 0 90 -22l5 -2q5 0 7 10q1 10 1 31q0 27 -9.5 60t-27.5 76q-5 11 -13 9q-40 -5 -56 -5q-33 0 -59.5 13.5t-26.5 36.5q0 16 5.5 27
t16.5 11q4 0 9 -3.5t11 -7.5q15 -11 28 -17t31 -6q12 0 19 1q10 2 5 13q-19 43 -29 73.5t-10 53.5q0 47 22.5 85t61.5 60t88 22q42 0 78 -14t57.5 -36t21.5 -44q0 -17 -10.5 -30t-30.5 -13q-10 0 -21.5 4.5t-18.5 14.5q-15 20 -38 36t-49 16q-39 0 -60 -25.5t-21 -72.5
q0 -31 9.5 -59.5t27.5 -65.5q5 -10 14 -8q40 4 51 4q50 0 74 -5q11 -3 16 -7t5 -16q0 -15 -8 -27.5t-17 -12.5q-11 0 -23 4.5t-16 5.5q-17 5 -42 5q-10 0 -17 -1q-9 -2 -5 -12q30 -71 30 -143q0 -44 -11 -83q-1 -3 -1 -7q0 -8 8 -15q29 -25 51.5 -33.5t52.5 -8.5
q14 0 24.5 5t29.5 17q23 15 33 15q17 0 28 -12t11 -30q0 -17 -14.5 -36t-42 -31.5t-64.5 -12.5q-34 0 -58.5 11.5zM246 116q2 3 2 8q0 4 -4 7q-36 20 -77 20q-22 0 -36 -10t-14 -26q0 -18 14 -31t38 -13q52 0 77 45z" />
    <glyph glyph-name="yen" unicode="&#xa5;" 
d="M291 -26q-12 12 -12 31v134q0 10 -10 10h-111q-17 0 -29 7t-12 22q0 13 12.5 20.5t28.5 7.5h109q13 0 13 10v81q0 12 -16 12h-108q-17 0 -29 7t-12 22q0 13 12.5 20.5t28.5 7.5h81q6 0 7.5 3.5t-0.5 8.5l-182 268q-12 17 -12 35q0 12 10 21t24 9q15 0 25.5 -10t17.5 -21
t9 -14l186 -284q4 -4 6 -4q3 0 8 5l177 306q6 11 16.5 18.5t22.5 7.5q13 0 21 -7.5t8 -20.5q0 -12 -8 -24l-178 -286q-5 -9 5 -9h80q18 0 29 -8t11 -22q0 -12 -11 -20.5t-29 -8.5h-112q-13 0 -13 -15l1 -76q0 -11 11 -11l115 1q18 0 29 -8t11 -22q0 -12 -11 -20.5t-29 -8.5
h-115q-6 0 -8 -4t-2 -11l1 -129q0 -19 -11 -31t-28 -12q-16 0 -28 12z" />
    <glyph glyph-name="plus" unicode="+" 
d="M281.5 4q-11.5 12 -11.5 37l2 36q5 87 6 182q0 7 -7 7q-23 0 -113 -3l-43 -1q-24 0 -37 10t-13 27q0 16 14 26.5t36 10.5l36 -1q56 -4 116 -4q11 0 11 9q-2 123 -4 166l-1 47q0 23 11 36.5t29 13.5q16 0 26.5 -14t10.5 -36l-2 -39q0 -16 -2 -65t-3 -110q0 -8 8 -8
q48 0 128 8q24 3 39 3q20 0 33.5 -10.5t13.5 -28.5t-12 -29.5t-37 -11.5l-39 1q-93 3 -127 3q-7 0 -7 -7q1 -67 3 -117t2 -65l2 -38q0 -20 -10 -33.5t-28 -13.5q-19 0 -30.5 12z" />
    <glyph glyph-name="multiply" unicode="&#xd7;" 
d="M98 116q0 18 18 37q20 21 114 107l22 21q10 9 10 17q0 10 -9 17l-88 82l-49 46q-20 20 -20 38q0 13 11 24q9 9 23 9q20 0 39 -19l34 -37q64 -69 90 -97q11 -11 21 -11q7 0 14 7q25 25 100 106l31 34q20 20 38 20q13 0 24 -11q9 -9 9 -23q0 -20 -19 -39l-31 -28
q-56 -48 -113 -105q-5 -5 -5 -11q0 -8 8 -16q57 -55 114 -99q30 -26 34 -30q16 -16 16 -35q0 -15 -11 -26q-12 -12 -26 -12q-18 0 -37 18q-13 11 -40 43q-14 15 -34 36.5t-49 51.5q-14 14 -24 14t-23 -13q-29 -30 -86 -98q-21 -27 -33 -39q-16 -16 -35 -16q-15 0 -26 11
q-12 12 -12 26z" />
    <glyph glyph-name="divide" unicode="&#xf7;" 
d="M272 468q-19 19 -19 46q0 26 19 44.5t46 18.5q26 0 45 -18.5t19 -44.5q0 -27 -19 -46t-45 -19q-27 0 -46 19zM79.5 264.5q-14.5 11.5 -14.5 30.5q0 18 16 29.5t35 11.5l24 -1q120 -3 182 -3q37 0 154 3l34 1q23 0 39 -11.5t16 -30.5q0 -17 -15 -28t-42 -11q-25 0 -47 1
q-80 2 -140 2q-69 0 -155 -4l-46 -1q-26 0 -40.5 11.5zM272 36q-19 19 -19 46q0 26 19 44.5t46 18.5q26 0 45 -18.5t19 -44.5q0 -27 -19 -46t-45 -19q-27 0 -46 19z" />
    <glyph glyph-name="equal" unicode="=" 
d="M107.5 377q-13.5 11 -13.5 28q0 20 16 30t39 10q7 0 58 -2t111 -2q38 0 134 3q14 1 29 1q24 0 39.5 -10t15.5 -29q0 -17 -16 -27.5t-43 -10.5q-20 0 -37 1q-62 2 -119 2q-66 0 -134 -4l-38 -1q-28 0 -41.5 11zM108.5 159.5q-14.5 10.5 -14.5 29.5q0 18 16 28.5t35 10.5
q7 0 60 -2t115 -2q40 0 130 3q13 1 27 1q24 0 39.5 -10.5t15.5 -29.5q0 -17 -14.5 -27t-42.5 -10q-21 0 -38 1q-62 2 -118 2q-64 0 -132 -4l-38 -1q-26 0 -40.5 10.5z" />
    <glyph glyph-name="notequal" unicode="&#x2260;" 
d="M221 6q-11 10 -11 28q0 9 3 19l25 87q1 2 1 5q0 9 -16 8l-30 -2l-44 -2q-26 0 -40.5 10.5t-14.5 29.5q0 18 16 28.5t35 10.5l84 -4q18 -1 25.5 2.5t9.5 12.5l17 69l10 41q2 8 2 11q0 12 -20 12q-27 0 -56.5 -1.5t-40.5 -2.5l-27 -2q-28 0 -41.5 11t-13.5 28q0 20 16 30
t39 10q7 0 50.5 -2.5t95.5 -3.5q10 0 13.5 5.5t5.5 16.5l21 98q4 20 15 31t25 11q16 0 25 -11t9 -28q0 -8 -3 -19q-19 -72 -23 -85q-1 -3 -1 -7q0 -10 15 -10l84 4q24 0 39.5 -10t15.5 -29q0 -17 -16 -27.5t-43 -10.5q-20 0 -65 3l-31 1h-2q-19 0 -23 -17l-15 -60l-13 -58
l-1 -5q0 -10 9 -10q66 1 113 5l28 1q24 0 39.5 -10.5t15.5 -29.5q0 -17 -14.5 -27t-42.5 -10l-38 1q-62 4 -118 4q-6 0 -8 -4t-4 -14l-12 -64l-8 -40q-4 -17 -14 -27.5t-25 -10.5q-16 0 -27 10z" />
    <glyph glyph-name="greater" unicode="&#x3e;" 
d="M122 85q-10 8 -10 21q0 14 10 25.5t34 25.5l218 126q13 7 13 17q0 9 -13 16l-218 124q-44 25 -44 51q0 11 8.5 20t22.5 9q18 0 37 -11l300 -159q38 -20 38 -49t-38 -50l-287 -157q-32 -17 -45 -17q-16 0 -26 8z" />
    <glyph glyph-name="less" unicode="&#x3c;" 
d="M437 94l-287 157q-38 21 -38 50t38 49l300 159q19 11 37 11q14 0 22.5 -9t8.5 -20q0 -26 -44 -51l-218 -124q-13 -8 -13 -16q0 -9 13 -17l218 -126q24 -14 34 -25.5t10 -25.5q0 -13 -10 -21t-26 -8q-13 0 -45 17z" />
    <glyph glyph-name="asciitilde" unicode="~" 
d="M354 235.5q-26 8.5 -44 21.5q-39 27 -82 27q-41 0 -68 -24q-14 -13 -31 -13q-11 0 -21 8q-9 9 -9 22q0 14 10 27q15 22 50.5 42.5t74.5 20.5q27 0 54 -8.5t47 -22.5q17 -13 37 -20.5t34 -7.5q24 0 41 9.5t34 23.5q16 14 31 14q11 0 18 -7q10 -8 10 -22q0 -17 -15 -33
q-27 -29 -54.5 -47.5t-69.5 -18.5q-21 0 -47 8.5z" />
    <glyph glyph-name="asciicircum" unicode="^" 
d="M126.5 445.5q-8.5 7.5 -8.5 21.5q0 15 12 31l138 192q21 30 47 30t45 -26l145 -198q10 -13 10 -28q0 -14 -7.5 -22t-21.5 -8q-11 0 -21 8t-25 26l-109 130q-7 8 -15 8t-15 -8l-108 -130q-14 -18 -23.5 -26t-20.5 -8q-14 0 -22.5 7.5z" />
    <glyph glyph-name="percent" unicode="%" horiz-adv-x="840" 
d="M161 -105q0 17 6 32q5 12 28 53l17 31q6 10 304 641q2 6 2 9q0 13 -13 13l-8 -2q-12 -4 -40.5 -8t-58.5 -4q-12 0 -36 2q-20 2 -28 2q-23 0 -23 -15q0 -6 2 -10q14 -36 14 -77q0 -43 -21.5 -90.5t-58.5 -80t-82 -32.5q-51 0 -82 36.5t-31 106.5q0 44 23 93t61.5 82
t82.5 33q34 0 100 -2l74 -1q70 0 119.5 25.5t76.5 86.5q5 12 15.5 18.5t22.5 6.5q13 0 23 -7q17 -10 17 -32q0 -14 -7 -26q-2 -4 -14 -22q-16 -23 -24 -39q-8 -15 -149 -316.5t-199 -425.5l-16 -41l-16 -42q-8 -18 -20 -27.5t-25 -9.5q-9 0 -17 4q-19 9 -19 35zM208.5 443
q24.5 23 41 61.5t16.5 83.5q0 28 -11.5 45.5t-32.5 17.5q-26 0 -51 -24t-40.5 -60t-15.5 -68q0 -39 12 -59t35 -20q22 0 46.5 23zM543.5 31q-31.5 35 -31.5 108q0 44 23 93t61.5 82t82.5 33q108 0 108 -148q0 -43 -21.5 -90.5t-58.5 -80t-82 -32.5q-50 0 -81.5 35zM668.5 80
q24.5 23 41 61.5t16.5 83.5q0 28 -11.5 45.5t-32.5 17.5q-26 0 -51 -24t-40.5 -60t-15.5 -68q0 -39 12 -59t35 -20q22 0 46.5 23z" />
    <glyph glyph-name="at" unicode="@" horiz-adv-x="1050" 
d="M304.5 -71.5q-100.5 50.5 -158 142.5t-57.5 211q0 152 65 277.5t177 198t247 72.5q116 0 203 -40t134 -111.5t47 -164.5q0 -109 -36 -196t-98 -136t-137 -49q-40 0 -65 22q-1 1 -7 6t-10 5q-6 0 -17 -7q-24 -16 -52 -24t-66 -8q-72 0 -111 43t-39 120q0 67 30 129
t78 100.5t99 38.5q41 0 63 -9t42 -24q11 -11 19 -11q5 0 7.5 5t6.5 19q1 11 6 25q2 7 10 12t19 5q29 0 29 -31q0 -10 -9 -39l-30 -135l-18 -86q-3 -11 -5.5 -27.5t-2.5 -28.5q0 -45 40 -45q48 0 91 43t68.5 119t25.5 170q0 72 -37.5 129.5t-107 90.5t-160.5 33
q-120 0 -217.5 -64t-153 -176.5t-55.5 -252.5q0 -104 49 -182.5t133.5 -121t187.5 -42.5q75 0 143.5 21.5t119 54t72.5 65.5q12 18 29 18q10 0 17 -6.5t7 -17.5q0 -13 -13 -30q-28 -37 -80 -74t-128 -62t-169 -25q-125 0 -225.5 50.5zM539 194.5q16 6.5 40 22.5q25 16 35 63
l5 24q8 44 16 80q4 19 4 35q0 35 -27 60.5t-70 25.5q-36 0 -70 -30t-55.5 -80t-21.5 -106q0 -47 25.5 -74t71.5 -27q31 0 47 6.5z" />
    <glyph glyph-name="ampersand" unicode="&#x26;" 
d="M122.5 11.5q-46.5 26.5 -72.5 71.5t-26 99q0 57 25.5 105t67.5 84q6 5 6 11q0 5 -2 8q-45 80 -45 158q0 47 18.5 86t50.5 61.5t71 22.5q59 0 95.5 -42t36.5 -111q0 -58 -28.5 -107t-81.5 -83q-8 -5 -8 -11q0 -3 3 -8q32 -41 58 -69q79 -84 120 -119q4 -4 9 -4q7 0 11 7
q29 50 38 102l1 7q0 19 -22 19q-13 0 -22 8.5t-9 20.5q0 13 9.5 21.5t23.5 8.5l39 -1q9 -1 24 -1l32 1q11 1 27 1t25 -8t9 -22q0 -31 -37 -31q-20 0 -27 -25q-8 -29 -25.5 -69t-36.5 -73q-2 -3 -2 -9t6 -11q32 -20 47 -27q13 -7 20 -18t7 -23q0 -17 -11 -29.5t-28 -12.5
q-9 0 -22.5 5.5t-26.5 14.5l-38 30q-7 5 -10 5q-4 0 -10 -4q-38 -29 -86.5 -47.5t-99.5 -18.5q-57 0 -103.5 26.5zM261.5 486.5q15.5 30.5 15.5 75.5q0 39 -20 64.5t-47 25.5q-23 0 -40 -28t-17 -67q0 -61 32 -124q5 -8 11 -8q4 0 9 3q41 28 56.5 58.5zM362 94q6 5 6 9
q0 5 -5 10q-70 65 -127 126q-37 38 -66 76q-5 6 -10 6t-10 -5q-50 -51 -50 -123q0 -60 40 -99t100 -39q65 0 122 39z" />
    <glyph glyph-name="section" unicode="&#xa7;" 
d="M211 -51q-48 18 -72.5 47t-24.5 63q0 17 9.5 27t22.5 10q12 0 22 -8t15 -23q28 -79 133 -79q42 0 70.5 11.5t42.5 29.5t14 36q0 36 -29.5 56.5t-113.5 25.5q-86 5 -133 41t-47 89q0 70 57 107q7 4 7 9q0 4 -7 8q-57 38 -57 102t49.5 105t146.5 41q45 0 87.5 -13t69 -34
t26.5 -44q0 -13 -9.5 -23t-23.5 -10q-13 0 -23 5t-17 11t-10 8q-23 17 -48.5 27.5t-60.5 10.5q-57 0 -85.5 -23.5t-28.5 -51.5q0 -38 30.5 -56.5t105.5 -23.5q100 -7 144 -41t44 -95q0 -58 -51 -98q-8 -6 -8 -12q0 -7 11 -15q48 -31 48 -86q0 -44 -24 -78.5t-67.5 -54
t-99.5 -19.5q-67 0 -115 18zM386.5 216q27.5 13 42 33t14.5 40q0 76 -136 76q-39 0 -64.5 -13t-37.5 -32t-12 -36q0 -35 33.5 -58t94.5 -23q38 0 65.5 13z" />
    <glyph glyph-name="copyright" unicode="&#xa9;" horiz-adv-x="840" 
d="M234 34q-84 47 -133 129t-49 183q0 102 49 186t133.5 132.5t184.5 48.5q102 0 186 -46.5t132.5 -127.5t48.5 -180q0 -102 -49.5 -187.5t-134 -135t-184.5 -49.5t-184 47zM572.5 87q66.5 41 104.5 110.5t38 152.5q0 87 -41 156.5t-110 108.5t-150 39q-82 0 -148.5 -39.5
t-104.5 -108t-38 -151.5q0 -84 42 -155t111.5 -112.5t147.5 -41.5q82 0 148.5 41zM327 183.5q-43 24.5 -69.5 69t-26.5 101.5q0 46 22.5 89.5t65.5 71t100 27.5q43 0 78.5 -14t55.5 -35.5t20 -41.5q0 -17 -9.5 -28t-26.5 -11q-21 0 -41 32q-1 2 -8.5 14.5t-28.5 21.5t-52 9
q-46 0 -77.5 -40.5t-31.5 -97.5q0 -39 18.5 -68t47.5 -45t60 -16t48 7.5t31 21.5q5 5 13 14.5t15 14.5t17 5q15 0 25.5 -10t10.5 -24q0 -10 -5.5 -22t-12.5 -18q-22 -20 -53.5 -36t-93.5 -16q-49 0 -92 24.5z" />
    <glyph glyph-name="registered" unicode="&#xae;" 
d="M179.5 264.5q-59.5 34.5 -93 91.5t-33.5 123q0 70 34.5 128.5t96 93t138.5 34.5q79 0 137 -35.5t88.5 -92.5t30.5 -121q0 -67 -31 -125.5t-91 -94.5t-144 -36q-73 0 -132.5 34.5zM418 307q45 27 69.5 72t24.5 99q0 55 -25 102.5t-70 76.5t-102 29q-56 0 -100.5 -28.5
t-69.5 -74.5t-25 -97q0 -65 27.5 -111.5t72.5 -70.5t95 -24q58 0 103 27zM231.5 374.5q-7.5 8.5 -7.5 21.5v174q0 15 9.5 24.5t25.5 9.5h74q37 0 60 -22t23 -53q0 -23 -13.5 -42t-29.5 -27q-5 -3 -5 -7t4 -7l33 -28q18 -14 18 -28q0 -11 -6.5 -17.5t-16.5 -6.5q-14 0 -30 16
l-30 26q-14 11 -21 18q-19 17 -28 17q-15 0 -15 -15v-31q0 -13 -7.5 -22t-18.5 -9t-18.5 8.5zM314 491q22 0 35.5 9.5t13.5 24.5q0 14 -10 23t-28 9h-39q-4 0 -7.5 -4t-3.5 -11v-40q0 -4 4 -7.5t9 -3.5h26z" />
    <glyph glyph-name="degree" unicode="&#xb0;" 
d="M226.5 448.5q-34.5 19.5 -54 53t-19.5 71.5q0 40 20 74t56 54t80 20q43 0 77 -19.5t53 -52.5t19 -72t-18 -72.5t-53 -54.5t-84 -21q-42 0 -76.5 19.5zM369.5 506.5q25.5 27.5 25.5 65.5q0 46 -25 74t-65 28q-36 0 -62.5 -30t-26.5 -66q0 -47 26 -73t64 -26t63.5 27.5z
" />
    <glyph glyph-name="bar" unicode="|" horiz-adv-x="420" 
d="M182 -133q-11 12 -11 28l1 68q1 25 1 68v620l-1 76q-2 54 -2 75q0 16 11.5 28t28.5 12q14 0 24.5 -11.5t10.5 -27.5q0 -47 -1 -74l-1 -75v-619l1 -70q1 -26 1 -70q0 -17 -10 -28.5t-25 -11.5q-17 0 -28 12z" />
    <glyph glyph-name="dagger" unicode="&#x2020;" 
d="M293.5 229q-11.5 12 -11.5 37q0 22 1 40l3 179q0 8 -7 8q-18 0 -56 -2q-34 -2 -45 -2q-24 0 -37 9.5t-13 25.5q0 15 14 25t36 10q23 0 53 -3l44 -2q11 0 11 7q0 28 -2 72l-2 55q0 23 11 36.5t27 13.5q15 0 25 -14t10 -36l-2 -41q-4 -45 -5 -87q0 -6 7 -6q17 0 53 6
q7 1 22.5 3t24.5 2q20 0 33.5 -10t13.5 -27t-12 -28t-37 -11q-12 0 -48 2t-51 2q-7 0 -7 -7q1 -89 9 -183l2 -39q0 -20 -9.5 -33.5t-26.5 -13.5t-28.5 12z" />
    <glyph glyph-name="uni0308" unicode="&#x308;" horiz-adv-x="0" 
d="M-340 639q-14 14 -14 34t14 33.5t34 13.5t34 -13.5t14 -33.5t-14 -34t-34 -14t-34 14zM-148.5 639q-14.5 14 -14.5 34q0 19 14.5 33t34.5 14t34 -13.5t14 -33.5t-14 -34t-34 -14t-34.5 14z" />
    <glyph glyph-name="uni0307" unicode="&#x307;" horiz-adv-x="0" 
d="M-148 639q-14 14 -14 34t14 33.5t34 13.5t34 -13.5t14 -33.5t-14 -34t-34 -14t-34 14z" />
    <glyph glyph-name="gravecomb" unicode="&#x300;" horiz-adv-x="0" 
d="M-327 674.5q-7 9.5 -7 20.5q0 16 11.5 26.5t27.5 10.5q8 0 18 -5l168 -94q11 -6 17 -14.5t6 -16.5q0 -11 -8 -17.5t-20 -6.5q-8 0 -15 3l-178 78q-13 6 -20 15.5z" />
    <glyph glyph-name="acutecomb" unicode="&#x301;" horiz-adv-x="0" 
d="M-306 578q-11 0 -19.5 6.5t-8.5 17.5q0 8 6 16.5t17 14.5l168 94q8 4 18 4q11 0 21 -5.5t14 -14.5q4 -10 4 -16q0 -11 -7 -20.5t-20 -15.5l-178 -78q-7 -3 -15 -3z" />
    <glyph glyph-name="uni0302" unicode="&#x302;" horiz-adv-x="0" 
d="M-338 610q0 11 8 22l88 116q15 18 30 18q16 0 31 -18l92 -116q7 -8 7 -22q0 -13 -7 -19q-6 -6 -16 -6q-15 0 -25 12l-65 68q-7 8 -16 8q-8 0 -16 -8l-63 -68q-11 -12 -24 -12q-8 0 -16 6q-8 8 -8 19z" />
    <glyph glyph-name="uni030C" unicode="&#x30c;" horiz-adv-x="0" 
d="M-338 740q0 13 7 19q6 6 16 6q14 0 25 -12l65 -68q7 -8 16 -8q8 0 16 8l63 68q11 12 24 12q9 0 16 -6q8 -8 8 -19t-8 -22l-88 -116q-15 -18 -30 -18q-16 0 -31 18l-92 116q-7 8 -7 22z" />
    <glyph glyph-name="uni030A" unicode="&#x30a;" horiz-adv-x="0" 
d="M-281 579.5q-28 27.5 -28 65.5q0 40 28.5 68t72.5 28q43 0 70 -27t27 -66t-27 -67.5t-74 -28.5q-41 0 -69 27.5zM-176.5 610.5q13.5 14.5 13.5 34.5q0 24 -13 39t-35 15q-18 0 -32 -16t-14 -35q0 -24 14 -38t33 -14q20 0 33.5 14.5z" />
    <glyph glyph-name="tildecomb" unicode="&#x303;" horiz-adv-x="0" 
d="M-214 621q-26 15 -52 15q-24 0 -43 -14q-12 -8 -21 -8q-7 0 -15 5q-10 7 -10 19q0 10 6 19q10 18 35.5 33t51.5 15q35 0 64 -19q22 -15 45 -15q19 0 32.5 9.5t15.5 11.5q10 5 16 5q9 0 16 -7q6 -6 6 -17q0 -13 -9 -26q-29 -44 -80 -44q-29 0 -58 18z" />
    <glyph glyph-name="uni0327" unicode="&#x327;" horiz-adv-x="0" 
d="M-291 -192q-17 11 -17 25q0 4 4 12q7 11 22 11q9 0 21 -5q32 -15 63 -15q21 0 36 10t15 26q0 30 -37 30l-27 -1q-9 -1 -23 -1q-43 0 -43 33q0 18 19 43q7 9 7 14q0 9 -19 17q-12 6 -12 12q0 10 31 10q7 0 29 -2q32 -4 51 -12t19 -14q0 -5 -12 -5q-18 0 -28 -24l-2 -9
q0 -6 4.5 -8t13.5 -2q54 0 78 -20t24 -53q0 -41 -35 -69t-83 -28q-56 0 -99 25z" />
    <glyph glyph-name="dieresis" unicode="&#xa8;" horiz-adv-x="420" 
d="M80 639q-14 14 -14 34t14 33.5t34 13.5t34 -13.5t14 -33.5t-14 -34t-34 -14t-34 14zM271.5 639q-14.5 14 -14.5 34q0 19 14.5 33t34.5 14t34 -13.5t14 -33.5t-14 -34t-34 -14t-34.5 14z" />
    <glyph glyph-name="grave" unicode="`" horiz-adv-x="420" 
d="M93 674.5q-7 9.5 -7 20.5q0 16 11.5 26.5t27.5 10.5q8 0 18 -5l168 -94q11 -6 17 -14.5t6 -16.5q0 -11 -8 -17.5t-20 -6.5q-8 0 -15 3l-178 78q-13 6 -20 15.5z" />
    <glyph glyph-name="acute" unicode="&#xb4;" horiz-adv-x="420" 
d="M114 578q-11 0 -19.5 6.5t-8.5 17.5q0 8 6 16.5t17 14.5l168 94q8 4 18 4q11 0 21 -5.5t14 -14.5q4 -10 4 -16q0 -11 -7 -20.5t-20 -15.5l-178 -78q-7 -3 -15 -3z" />
    <glyph glyph-name="circumflex" unicode="&#x2c6;" horiz-adv-x="420" 
d="M82 610q0 11 8 22l88 116q15 18 30 18q16 0 31 -18l92 -116q7 -8 7 -22q0 -13 -7 -19q-6 -6 -16 -6q-15 0 -25 12l-65 68q-7 8 -16 8q-8 0 -16 -8l-63 -68q-11 -12 -24 -12q-8 0 -16 6q-8 8 -8 19z" />
    <glyph glyph-name="caron" unicode="&#x2c7;" horiz-adv-x="420" 
d="M82 740q0 13 7 19q6 6 16 6q14 0 25 -12l65 -68q7 -8 16 -8q8 0 16 8l63 68q11 12 24 12q9 0 16 -6q8 -8 8 -19t-8 -22l-88 -116q-15 -18 -30 -18q-16 0 -31 18l-92 116q-7 8 -7 22z" />
    <glyph glyph-name="ring" unicode="&#x2da;" horiz-adv-x="420" 
d="M139 579.5q-28 27.5 -28 65.5q0 40 28.5 68t72.5 28q43 0 70 -27t27 -66t-27 -67.5t-74 -28.5q-41 0 -69 27.5zM243.5 610.5q13.5 14.5 13.5 34.5q0 24 -13 39t-35 15q-18 0 -32 -16t-14 -35q0 -24 14 -38t33 -14q20 0 33.5 14.5z" />
    <glyph glyph-name="tilde" unicode="&#x2dc;" horiz-adv-x="420" 
d="M206 621q-26 15 -52 15q-24 0 -43 -14q-12 -8 -21 -8q-7 0 -15 5q-10 7 -10 19q0 10 6 19q10 18 35.5 33t51.5 15q35 0 64 -19q22 -15 45 -15q19 0 32.5 9.5t15.5 11.5q10 5 16 5q9 0 16 -7q6 -6 6 -17q0 -13 -9 -26q-29 -44 -80 -44q-29 0 -58 18z" />
    <glyph glyph-name="cedilla" unicode="&#xb8;" horiz-adv-x="420" 
d="M129 -192q-17 11 -17 25q0 4 4 12q7 11 22 11q9 0 21 -5q32 -15 63 -15q21 0 36 10t15 26q0 30 -37 30l-27 -1q-9 -1 -23 -1q-43 0 -43 33q0 18 19 43q7 9 7 14q0 9 -19 17q-12 6 -12 12q0 10 31 10q7 0 29 -2q32 -4 51 -12t19 -14q0 -5 -12 -5q-18 0 -28 -24l-2 -9
q0 -6 4.5 -8t13.5 -2q54 0 78 -20t24 -53q0 -41 -35 -69t-83 -28q-56 0 -99 25z" />
    </font>
</defs>
</svg>
